<svg version="1.1" id="Layer_1"
  xmlns="http://www.w3.org/2000/svg"
  xmlns:xlink="http://www.w3.org/1999/xlink" x="0px" y="0px" width="480" viewBox="0 0 480 496" enable-background="new 0 0 480 496" xml:space="preserve" height="505">
  <path fill="#000000" opacity="1.000000" stroke="none" d="
M63.887215,445.444702 
	C60.636883,443.091034 58.450321,440.693268 58.468414,436.634460 
	C58.481625,433.671021 56.263176,432.539093 53.377502,432.287964 
	C43.581863,431.435547 38.764027,425.402618 39.773514,415.562073 
	C40.283184,410.593781 42.611183,406.389557 45.118935,402.235748 
	C48.215904,397.105896 51.181000,391.905243 52.904602,386.114960 
	C53.852665,382.930023 56.191055,381.378815 59.101250,380.126526 
	C71.589539,374.752594 71.931564,374.073578 65.113503,362.721985 
	C54.906342,345.727722 49.089741,327.595795 50.732674,307.643280 
	C52.698139,283.773804 54.684925,259.767303 65.895607,237.976837 
	C74.390068,221.465942 82.102142,204.468781 96.591537,191.694168 
	C109.845932,180.008408 123.881653,169.859543 140.365814,163.323807 
	C146.998611,160.693970 153.007721,155.634705 160.257904,155.615372 
	C171.789597,155.584641 174.972641,148.743973 176.559525,139.195404 
	C178.988388,124.580315 188.315521,113.217216 195.906265,101.226715 
	C211.915649,75.937920 234.961182,58.888535 262.157745,46.980148 
	C282.764709,37.957100 303.971344,37.022587 325.759583,41.037479 
	C333.595795,42.481441 341.517029,43.487606 349.419678,44.542000 
	C364.932007,46.611675 378.463013,52.943794 389.934265,63.508389 
	C402.938477,75.484764 415.691223,87.776756 425.425659,102.667091 
	C433.176331,114.522949 440.384186,127.052505 444.610931,140.379440 
	C447.621918,149.873276 451.039215,159.897079 450.790375,170.364700 
	C450.721863,173.247604 450.432465,176.035355 449.168457,178.610291 
	C448.095551,180.795959 446.166687,181.669678 443.756500,181.229584 
	C441.504822,180.818420 440.664886,178.968201 440.862457,177.137436 
	C441.972961,166.846710 438.450073,157.088699 437.640686,147.032654 
	C437.094055,140.240829 432.752228,135.066315 430.060669,129.249359 
	C413.856934,94.230492 385.716095,73.506821 349.712860,61.450584 
	C318.631683,51.042561 288.576691,54.649902 259.209991,66.272820 
	C238.545959,74.451340 220.472824,86.742943 208.765884,106.814453 
	C201.520493,119.236687 192.468979,130.607880 189.066101,145.048843 
	C187.740845,150.672913 187.986755,151.670959 193.647598,151.638855 
	C206.686310,151.564957 219.741104,152.038544 232.142624,156.306274 
	C242.500473,159.870667 252.481308,164.531082 262.626923,168.711411 
	C264.473053,169.472092 266.244507,170.659607 268.159851,170.965958 
	C278.913757,172.685974 285.156189,180.443420 292.081787,187.736771 
	C303.160980,199.404373 311.115570,213.337860 320.119080,226.390839 
	C325.955505,234.852264 331.063660,244.498413 333.627869,255.105743 
	C335.568573,263.133881 339.054810,270.809967 342.113586,278.539734 
	C344.757141,285.220062 344.272583,286.154449 337.279266,286.407349 
	C337.279266,293.248016 337.279266,300.049072 337.279266,307.503143 
	C340.614227,305.907806 339.744415,303.661835 339.923889,301.908936 
	C340.263123,298.595428 341.716187,296.644653 345.285828,296.683990 
	C348.930603,296.724152 348.565125,299.294617 348.414093,301.628418 
	C348.189148,305.103699 349.924316,305.920898 353.040466,305.563843 
	C360.363434,304.724854 366.671143,301.331512 372.928833,297.838898 
	C379.221313,294.326935 383.160919,294.248505 385.354340,297.845764 
	C387.445740,301.275696 385.871277,304.627380 380.283508,308.816956 
	C371.913666,315.092499 362.014404,318.337372 352.694702,322.720947 
	C350.713745,323.652710 349.227478,324.514679 349.313171,326.993500 
	C349.391479,329.258636 348.966980,331.522949 346.328247,332.100372 
	C343.570099,332.703918 341.996735,330.986877 340.954803,328.662201 
	C340.692749,328.077545 340.648499,327.323090 338.892273,327.081329 
	C336.741547,331.339081 333.734131,335.705994 332.234497,340.540588 
	C326.233276,359.887848 315.222443,376.197662 302.039124,391.129242 
	C288.103180,406.913147 271.859558,420.499542 252.310287,428.055115 
	C237.320648,433.848450 222.265778,440.989929 205.654068,441.693146 
	C199.373062,441.959015 193.058792,441.417389 186.759003,441.273071 
	C184.627991,441.224243 182.494888,441.265350 180.162766,441.909546 
	C182.333603,445.561188 186.140213,446.344360 189.627167,446.489624 
	C203.254669,447.057251 216.442093,451.589325 230.208206,450.805298 
	C232.424438,450.679047 234.604706,451.527893 235.335846,453.990082 
	C235.972733,456.134796 234.548859,457.593170 232.916107,458.462952 
	C219.721786,465.491577 205.470520,468.096649 190.907181,465.703461 
	C179.116928,463.765991 167.946915,458.959595 156.794373,454.558624 
	C153.538391,453.273712 150.479294,451.735931 146.782883,453.402039 
	C144.201004,454.565796 142.468826,452.388153 140.695145,450.916931 
	C135.236313,446.388855 129.689545,442.701843 121.900734,443.072754 
	C116.559814,443.327087 112.570847,445.120026 109.378647,449.004425 
	C107.762962,450.970428 105.972382,452.320129 103.468987,452.079529 
	C90.246567,450.808838 77.333679,447.609680 63.887215,445.444702 
M193.825623,264.596375 
	C183.907471,245.698288 174.085632,226.731201 170.176056,205.472061 
	C169.342194,200.937759 168.044647,199.991760 163.723770,201.672318 
	C154.688797,205.186325 147.779724,213.343079 137.331528,213.687836 
	C125.773788,223.182312 113.614632,232.004410 105.142822,244.754349 
	C96.343109,257.997803 92.878372,273.486359 86.701462,287.826935 
	C84.775101,292.299255 84.994957,297.363708 90.781532,300.158020 
	C93.226738,301.338776 94.536247,303.875214 95.260094,306.542755 
	C97.351440,314.249939 94.879189,320.944244 90.596245,327.205444 
	C87.401169,331.876312 84.314346,336.503357 88.337845,342.281799 
	C88.875885,343.054504 89.033981,344.158234 89.166443,345.135986 
	C89.984917,351.177155 93.086212,356.439240 95.172752,362.016846 
	C96.502060,365.570251 98.732559,368.765930 98.620628,372.767212 
	C98.541626,375.591522 100.070732,377.005981 102.646103,377.642548 
	C106.316879,378.549774 109.800369,379.775696 113.828194,378.697845 
	C117.509666,377.712708 121.950348,378.500305 123.554108,382.072845 
	C126.245651,388.068604 130.884628,392.688599 133.742340,398.421082 
	C134.959503,400.862640 136.381241,402.542603 138.773102,403.554443 
	C145.388092,406.352814 150.779572,410.717743 154.919098,416.542877 
	C156.967285,419.425079 159.572098,421.230621 162.958084,422.027039 
	C168.296219,423.282593 173.646423,424.490082 178.966599,425.817780 
	C186.364395,427.663910 193.985962,425.695648 201.353302,427.098480 
	C207.937790,428.352234 214.393158,427.398682 220.682404,426.165863 
	C236.946167,422.977844 251.775665,416.087433 265.229462,406.503082 
	C274.025665,400.236847 283.551575,394.666260 290.592255,386.344910 
	C299.890656,375.355194 307.190308,362.971436 312.337585,349.501312 
	C314.678711,343.374756 317.616119,337.395325 319.038361,330.658447 
	C310.433838,329.836426 302.129852,329.391846 293.937592,328.187408 
	C277.147461,325.718994 260.178558,323.539398 244.691727,316.029327 
	C222.004639,305.027649 205.449875,287.710480 193.825623,264.596375 
M287.948608,218.572403 
	C275.828461,208.438553 262.566711,199.870499 247.320099,195.828659 
	C229.722977,191.163712 211.508545,190.325424 193.291306,191.448563 
	C187.402328,191.811646 185.318604,194.916611 187.317581,200.606689 
	C188.525299,204.044449 190.471588,207.219162 191.737061,210.641113 
	C193.429001,215.216232 196.467255,218.246307 201.066742,219.633835 
	C206.350266,221.227753 209.208572,225.143005 211.277344,229.870010 
	C213.725296,235.463409 214.143616,241.416107 211.969772,246.938873 
	C208.923203,254.678879 211.440659,260.830627 215.768478,266.940582 
	C218.679688,271.050568 222.075089,274.683594 225.926437,277.895081 
	C244.779434,293.616028 268.213531,298.596375 291.020844,304.147339 
	C299.105743,306.115051 308.003265,306.548462 316.421387,308.280792 
	C320.467804,309.113556 321.713379,308.027039 321.897614,303.952271 
	C322.655548,287.189941 319.087311,271.289062 313.500122,255.608109 
	C308.345642,241.141647 300.197235,228.922302 287.948608,218.572403 
M77.105865,259.605103 
	C75.981606,265.927948 74.377563,272.180664 74.050873,278.981842 
	C76.189255,277.573517 76.601959,275.536804 77.332756,273.782959 
	C79.508972,268.560211 81.362312,263.198883 83.644814,258.025360 
	C88.305466,247.461548 89.649422,235.619797 99.321976,227.034195 
	C106.189133,220.938721 111.839401,213.264328 119.150322,207.451599 
	C128.476654,200.036453 137.365692,192.077423 149.282242,188.451050 
	C155.222733,186.643265 160.297913,182.314148 166.455536,180.640793 
	C165.553024,178.192963 164.173447,178.091782 162.897919,178.629623 
	C156.531769,181.313812 149.678604,181.812180 143.017975,183.124435 
	C134.122574,184.876923 127.555847,190.504395 120.655289,195.746918 
	C99.245987,212.012070 82.938797,231.724152 77.105865,259.605103 
z"></path>
  <path fill="#000000" opacity="1.000000" stroke="none" d="
M433.774719,218.420853 
	C440.072113,209.377426 440.086212,199.206329 441.154297,189.245316 
	C441.459900,186.395340 442.322754,182.758408 446.345581,183.220139 
	C450.055237,183.645935 450.943756,186.894669 450.495880,190.055527 
	C448.650299,203.080750 447.961914,216.427002 440.477448,227.990677 
	C439.234131,229.911591 438.080048,231.866226 435.494263,231.077087 
	C432.519714,230.169296 432.984924,227.673782 433.289825,225.286804 
	C433.562103,223.155167 433.593964,220.992798 433.774719,218.420853 
z"></path>
  <path fill="#000000" opacity="1.000000" stroke="none" d="
M430.469482,238.494614 
	C431.096588,236.899643 431.471375,235.591263 432.156830,234.473328 
	C433.134644,232.878555 434.737366,232.366638 436.510040,232.888763 
	C438.354889,233.432129 438.375549,235.075211 438.307739,236.580231 
	C438.077209,241.699432 436.292084,246.458450 433.630127,250.643494 
	C430.427094,255.679184 426.545044,260.298737 422.772430,264.948730 
	C421.253204,266.821259 419.065826,269.417450 416.609711,267.393982 
	C414.366943,265.546326 415.963165,262.992737 417.505951,260.780243 
	C422.359100,253.820297 427.274414,246.873871 430.469482,238.494614 
z"></path>
  <path fill="#000000" opacity="1.000000" stroke="none" d="
M289.521667,435.115601 
	C286.914948,435.264252 284.365295,436.257507 283.505615,432.906769 
	C282.695831,429.750336 284.671265,428.443726 286.992981,427.227936 
	C289.156708,426.094849 291.300995,425.079041 293.024689,423.087646 
	C294.978668,420.830170 298.035248,420.882599 300.153137,422.688019 
	C302.391815,424.596405 299.970581,426.240540 299.081482,428.129272 
	C297.165894,432.198334 293.518372,433.461792 289.521667,435.115601 
z"></path>
  <path fill="#000000" opacity="1.000000" stroke="none" d="
M324.904663,383.487823 
	C324.666077,382.669067 324.360138,381.970703 324.574127,381.724762 
	C327.567871,378.284729 330.406860,374.656525 333.772888,371.615845 
	C335.522247,370.035583 337.690643,371.074219 338.185272,373.578033 
	C338.886749,377.128784 337.644836,380.441681 334.776520,382.302612 
	C332.002441,384.102356 328.902100,387.319336 324.904663,383.487823 
z"></path>
</svg>