<svg xmlns="http://www.w3.org/2000/svg" height="300" width="300" viewBox="0 0 61 61" role="img" aria-label="QR code containing user picks"><path fill="#FFFFFF" d="M0,0 h61v61H0z" shape-rendering="crispEdges"/><path fill="#000000" d="M0 0h7v1H0zM8 0h2v1H8zM11 0h1v1H11zM14 0h4v1H14zM19 0h3v1H19zM23 0h3v1H23zM27 0h2v1H27zM33 0h2v1H33zM36 0h1v1H36zM38 0h2v1H38zM41 0h2v1H41zM44 0h6v1H44zM51 0h2v1H51zM54,0 h7v1H54zM0 1h1v1H0zM6 1h1v1H6zM8 1h2v1H8zM13 1h3v1H13zM17 1h3v1H17zM21 1h3v1H21zM25 1h3v1H25zM29 1h1v1H29zM34 1h3v1H34zM38 1h1v1H38zM42 1h3v1H42zM46 1h4v1H46zM51 1h2v1H51zM54 1h1v1H54zM60,1 h1v1H60zM0 2h1v1H0zM2 2h3v1H2zM6 2h1v1H6zM9 2h2v1H9zM12 2h1v1H12zM14 2h3v1H14zM18 2h1v1H18zM22 2h1v1H22zM26 2h1v1H26zM29 2h2v1H29zM32 2h1v1H32zM35 2h1v1H35zM39 2h1v1H39zM43 2h1v1H43zM47 2h1v1H47zM49 2h4v1H49zM54 2h1v1H54zM56 2h3v1H56zM60,2 h1v1H60zM0 3h1v1H0zM2 3h3v1H2zM6 3h1v1H6zM10 3h1v1H10zM16 3h1v1H16zM20 3h1v1H20zM24 3h1v1H24zM27 3h2v1H27zM30 3h1v1H30zM33 3h1v1H33zM37 3h1v1H37zM41 3h1v1H41zM45 3h1v1H45zM50 3h1v1H50zM52 3h1v1H52zM54 3h1v1H54zM56 3h3v1H56zM60,3 h1v1H60zM0 4h1v1H0zM2 4h3v1H2zM6 4h1v1H6zM8 4h2v1H8zM12 4h2v1H12zM15 4h3v1H15zM19 4h3v1H19zM23 4h3v1H23zM27 4h8v1H27zM36 4h3v1H36zM40 4h3v1H40zM44 4h3v1H44zM48 4h1v1H48zM50 4h2v1H50zM54 4h1v1H54zM56 4h3v1H56zM60,4 h1v1H60zM0 5h1v1H0zM6 5h1v1H6zM8 5h3v1H8zM13 5h3v1H13zM17 5h3v1H17zM21 5h3v1H21zM25 5h2v1H25zM28 5h1v1H28zM32 5h1v1H32zM34 5h3v1H34zM38 5h3v1H38zM42 5h3v1H42zM46 5h3v1H46zM50 5h1v1H50zM54 5h1v1H54zM60,5 h1v1H60zM0 6h7v1H0zM8 6h1v1H8zM10 6h1v1H10zM12 6h1v1H12zM14 6h1v1H14zM16 6h1v1H16zM18 6h1v1H18zM20 6h1v1H20zM22 6h1v1H22zM24 6h1v1H24zM26 6h1v1H26zM28 6h1v1H28zM30 6h1v1H30zM32 6h1v1H32zM34 6h1v1H34zM36 6h1v1H36zM38 6h1v1H38zM40 6h1v1H40zM42 6h1v1H42zM44 6h1v1H44zM46 6h1v1H46zM48 6h1v1H48zM50 6h1v1H50zM52 6h1v1H52zM54,6 h7v1H54zM8 7h1v1H8zM10 7h1v1H10zM12 7h2v1H12zM15 7h3v1H15zM19 7h3v1H19zM23 7h3v1H23zM28 7h1v1H28zM32 7h1v1H32zM35 7h4v1H35zM40 7h1v1H40zM43 7h4v1H43zM48 7h5v1H48zM0 8h3v1H0zM5 8h2v1H5zM8 8h2v1H8zM12 8h4v1H12zM17 8h3v1H17zM21 8h3v1H21zM25 8h12v1H25zM38 8h4v1H38zM44 8h1v1H44zM46 8h4v1H46zM51 8h1v1H51zM53 8h4v1H53zM59,8 h2v1H59zM0 9h1v1H0zM3 9h2v1H3zM9 9h1v1H9zM14 9h1v1H14zM18 9h1v1H18zM22 9h1v1H22zM26 9h1v1H26zM29 9h2v1H29zM32 9h1v1H32zM35 9h2v1H35zM39 9h1v1H39zM43 9h1v1H43zM47 9h1v1H47zM49 9h1v1H49zM53 9h1v1H53zM55 9h1v1H55zM57 9h2v1H57zM60,9 h1v1H60zM1 10h1v1H1zM3 10h1v1H3zM6 10h5v1H6zM12 10h1v1H12zM16 10h1v1H16zM20 10h1v1H20zM24 10h4v1H24zM30 10h3v1H30zM35 10h1v1H35zM37 10h1v1H37zM43 10h3v1H43zM49 10h1v1H49zM52 10h1v1H52zM55 10h2v1H55zM58 10h1v1H58zM60,10 h1v1H60zM0 11h1v1H0zM2 11h1v1H2zM4 11h2v1H4zM7 11h3v1H7zM11 11h1v1H11zM13 11h1v1H13zM15 11h3v1H15zM19 11h3v1H19zM23 11h2v1H23zM31 11h1v1H31zM33 11h2v1H33zM36 11h3v1H36zM40 11h3v1H40zM44 11h3v1H44zM48 11h7v1H48zM56 11h1v1H56zM0 12h1v1H0zM6 12h1v1H6zM8 12h3v1H8zM13 12h3v1H13zM17 12h3v1H17zM21 12h3v1H21zM25 12h2v1H25zM28 12h2v1H28zM34 12h3v1H34zM38 12h3v1H38zM42 12h3v1H42zM46 12h3v1H46zM50 12h2v1H50zM54 12h4v1H54zM60,12 h1v1H60zM0 13h1v1H0zM2 13h2v1H2zM5 13h1v1H5zM11 13h2v1H11zM14 13h1v1H14zM18 13h1v1H18zM22 13h1v1H22zM25 13h6v1H25zM32 13h1v1H32zM35 13h1v1H35zM39 13h1v1H39zM43 13h1v1H43zM47 13h1v1H47zM55 13h1v1H55zM57 13h2v1H57zM60,13 h1v1H60zM1 14h3v1H1zM5 14h4v1H5zM10 14h3v1H10zM16 14h1v1H16zM20 14h1v1H20zM24 14h1v1H24zM27 14h1v1H27zM30 14h4v1H30zM37 14h1v1H37zM41 14h1v1H41zM45 14h1v1H45zM49 14h1v1H49zM52 14h2v1H52zM58,14 h3v1H58zM2 15h4v1H2zM7 15h2v1H7zM10 15h3v1H10zM14 15h4v1H14zM19 15h3v1H19zM23 15h3v1H23zM31 15h1v1H31zM33 15h2v1H33zM36 15h2v1H36zM39 15h4v1H39zM44 15h3v1H44zM48 15h7v1H48zM56 15h1v1H56zM59 15h1v1H59zM1 16h1v1H1zM3 16h4v1H3zM8 16h1v1H8zM15 16h5v1H15zM21 16h3v1H21zM25 16h2v1H25zM28 16h2v1H28zM34 16h3v1H34zM38 16h1v1H38zM40 16h1v1H40zM42 16h3v1H42zM48 16h1v1H48zM50 16h2v1H50zM54 16h4v1H54zM2 17h1v1H2zM4 17h1v1H4zM8 17h5v1H8zM15 17h2v1H15zM18 17h1v1H18zM22 17h1v1H22zM26 17h3v1H26zM32 17h1v1H32zM35 17h1v1H35zM37 17h1v1H37zM39 17h1v1H39zM43 17h1v1H43zM45 17h1v1H45zM48 17h1v1H48zM55 17h1v1H55zM57 17h2v1H57zM60,17 h1v1H60zM0 18h3v1H0zM4 18h5v1H4zM10 18h3v1H10zM15 18h1v1H15zM20 18h1v1H20zM24 18h1v1H24zM27 18h1v1H27zM30 18h4v1H30zM41 18h1v1H41zM48 18h2v1H48zM51 18h1v1H51zM53 18h1v1H53zM58,18 h3v1H58zM0 19h2v1H0zM3 19h1v1H3zM10 19h4v1H10zM15 19h3v1H15zM19 19h3v1H19zM23 19h3v1H23zM31 19h1v1H31zM33 19h2v1H33zM36 19h3v1H36zM40 19h3v1H40zM44 19h3v1H44zM48 19h7v1H48zM56 19h1v1H56zM59 19h1v1H59zM1 20h6v1H1zM8 20h1v1H8zM11 20h1v1H11zM13 20h1v1H13zM15 20h1v1H15zM17 20h3v1H17zM21 20h3v1H21zM25 20h2v1H25zM28 20h1v1H28zM34 20h3v1H34zM38 20h3v1H38zM42 20h3v1H42zM46 20h3v1H46zM50 20h2v1H50zM54 20h4v1H54zM7 21h4v1H7zM12 21h3v1H12zM18 21h1v1H18zM22 21h1v1H22zM26 21h7v1H26zM35 21h1v1H35zM39 21h1v1H39zM43 21h1v1H43zM47 21h1v1H47zM55 21h1v1H55zM60,21 h1v1H60zM0 22h3v1H0zM6 22h1v1H6zM8 22h1v1H8zM11 22h1v1H11zM16 22h1v1H16zM20 22h1v1H20zM24 22h1v1H24zM30 22h4v1H30zM37 22h1v1H37zM41 22h1v1H41zM45 22h1v1H45zM49 22h1v1H49zM52 22h2v1H52zM58,22 h3v1H58zM0 23h1v1H0zM7 23h1v1H7zM10 23h2v1H10zM15 23h3v1H15zM19 23h3v1H19zM23 23h3v1H23zM31 23h1v1H31zM35 23h4v1H35zM40 23h7v1H40zM48 23h1v1H48zM51 23h3v1H51zM55 23h3v1H55zM59 23h1v1H59zM0 24h1v1H0zM2 24h5v1H2zM10 24h1v1H10zM15 24h1v1H15zM17 24h3v1H17zM21 24h3v1H21zM25 24h2v1H25zM28 24h2v1H28zM31 24h2v1H31zM34 24h3v1H34zM38 24h3v1H38zM44 24h1v1H44zM46 24h3v1H46zM51 24h1v1H51zM54 24h1v1H54zM56 24h2v1H56zM0 25h1v1H0zM10 25h2v1H10zM13 25h1v1H13zM22 25h1v1H22zM26 25h1v1H26zM29 25h2v1H29zM32 25h1v1H32zM35 25h2v1H35zM39 25h1v1H39zM41 25h1v1H41zM43 25h1v1H43zM47 25h1v1H47zM49 25h1v1H49zM53 25h1v1H53zM55 25h4v1H55zM60,25 h1v1H60zM0 26h3v1H0zM6 26h3v1H6zM11 26h2v1H11zM16 26h1v1H16zM20 26h1v1H20zM24 26h4v1H24zM30 26h3v1H30zM35 26h3v1H35zM41 26h1v1H41zM45 26h1v1H45zM49 26h1v1H49zM52 26h2v1H52zM55 26h2v1H55zM58 26h1v1H58zM60,26 h1v1H60zM0 27h1v1H0zM5 27h1v1H5zM7 27h1v1H7zM9 27h1v1H9zM15 27h3v1H15zM19 27h3v1H19zM23 27h2v1H23zM31 27h1v1H31zM33 27h2v1H33zM36 27h3v1H36zM40 27h3v1H40zM44 27h3v1H44zM48 27h7v1H48zM56 27h1v1H56zM60,27 h1v1H60zM0 28h1v1H0zM4 28h5v1H4zM15 28h1v1H15zM17 28h3v1H17zM21 28h3v1H21zM25 28h2v1H25zM28 28h5v1H28zM34 28h3v1H34zM38 28h3v1H38zM42 28h3v1H42zM46 28h3v1H46zM50 28h8v1H50zM59 28h1v1H59zM0 29h1v1H0zM2 29h3v1H2zM8 29h2v1H8zM13 29h1v1H13zM18 29h1v1H18zM22 29h1v1H22zM25 29h2v1H25zM28 29h1v1H28zM32 29h1v1H32zM35 29h1v1H35zM39 29h1v1H39zM43 29h1v1H43zM47 29h1v1H47zM51 29h2v1H51zM56 29h3v1H56zM60,29 h1v1H60zM1 30h1v1H1zM3 30h2v1H3zM6 30h1v1H6zM8 30h2v1H8zM13 30h2v1H13zM16 30h1v1H16zM20 30h1v1H20zM24 30h1v1H24zM28 30h1v1H28zM30 30h1v1H30zM32 30h2v1H32zM37 30h1v1H37zM41 30h1v1H41zM45 30h1v1H45zM49 30h1v1H49zM51 30h2v1H51zM54 30h1v1H54zM56 30h1v1H56zM58,30 h3v1H58zM0 31h1v1H0zM2 31h1v1H2zM4 31h1v1H4zM8 31h3v1H8zM15 31h3v1H15zM19 31h3v1H19zM23 31h3v1H23zM27 31h2v1H27zM32 31h3v1H32zM36 31h1v1H36zM39 31h4v1H39zM44 31h1v1H44zM48 31h3v1H48zM52 31h1v1H52zM56 31h1v1H56zM59 31h1v1H59zM1 32h10v1H1zM13 32h2v1H13zM16 32h4v1H16zM21 32h3v1H21zM25 32h8v1H25zM34 32h3v1H34zM39 32h2v1H39zM42 32h4v1H42zM48 32h1v1H48zM50 32h1v1H50zM52 32h6v1H52zM0 33h1v1H0zM2 33h1v1H2zM7 33h2v1H7zM18 33h1v1H18zM22 33h1v1H22zM26 33h2v1H26zM30 33h3v1H30zM35 33h1v1H35zM37 33h1v1H37zM39 33h1v1H39zM43 33h1v1H43zM45 33h1v1H45zM48 33h1v1H48zM52 33h2v1H52zM57 33h2v1H57zM60,33 h1v1H60zM0 34h1v1H0zM2 34h8v1H2zM13 34h2v1H13zM16 34h1v1H16zM20 34h1v1H20zM24 34h1v1H24zM27 34h1v1H27zM31 34h1v1H31zM33 34h1v1H33zM39 34h3v1H39zM45 34h1v1H45zM49 34h1v1H49zM52 34h3v1H52zM56 34h1v1H56zM58,34 h3v1H58zM2 35h1v1H2zM4 35h1v1H4zM9 35h2v1H9zM13 35h1v1H13zM17 35h1v1H17zM19 35h3v1H19zM23 35h3v1H23zM28 35h2v1H28zM33 35h2v1H33zM36 35h3v1H36zM40 35h3v1H40zM44 35h3v1H44zM48 35h5v1H48zM54 35h3v1H54zM59 35h1v1H59zM0 36h3v1H0zM4 36h1v1H4zM6 36h2v1H6zM9 36h3v1H9zM14 36h2v1H14zM17 36h3v1H17zM21 36h3v1H21zM25 36h2v1H25zM28 36h3v1H28zM32 36h1v1H32zM34 36h3v1H34zM38 36h3v1H38zM42 36h3v1H42zM46 36h3v1H46zM50 36h2v1H50zM55 36h1v1H55zM57 36h1v1H57zM0 37h2v1H0zM4 37h2v1H4zM7 37h1v1H7zM12 37h2v1H12zM18 37h1v1H18zM22 37h1v1H22zM26 37h2v1H26zM30 37h3v1H30zM35 37h1v1H35zM39 37h1v1H39zM43 37h1v1H43zM47 37h1v1H47zM53 37h1v1H53zM57 37h2v1H57zM60,37 h1v1H60zM1 38h2v1H1zM5 38h3v1H5zM9 38h2v1H9zM12 38h1v1H12zM16 38h1v1H16zM20 38h1v1H20zM24 38h1v1H24zM27 38h1v1H27zM29 38h3v1H29zM33 38h1v1H33zM37 38h1v1H37zM41 38h1v1H41zM45 38h1v1H45zM49 38h1v1H49zM52 38h3v1H52zM56 38h2v1H56zM59,38 h2v1H59zM0 39h2v1H0zM5 39h1v1H5zM8 39h1v1H8zM10 39h1v1H10zM15 39h2v1H15zM18 39h4v1H18zM23 39h3v1H23zM28 39h1v1H28zM35 39h4v1H35zM40 39h2v1H40zM44 39h3v1H44zM48 39h4v1H48zM54 39h4v1H54zM59 39h1v1H59zM0 40h1v1H0zM2 40h1v1H2zM6 40h3v1H6zM12 40h1v1H12zM15 40h1v1H15zM19 40h1v1H19zM21 40h3v1H21zM25 40h2v1H25zM29 40h2v1H29zM32 40h1v1H32zM34 40h1v1H34zM36 40h1v1H36zM38 40h7v1H38zM46 40h3v1H46zM51 40h1v1H51zM55 40h1v1H55zM57 40h1v1H57zM1 41h1v1H1zM5 41h1v1H5zM8 41h2v1H8zM11 41h3v1H11zM22 41h1v1H22zM26 41h2v1H26zM29 41h4v1H29zM39 41h1v1H39zM41 41h1v1H41zM47 41h1v1H47zM49 41h1v1H49zM52 41h2v1H52zM57,41 h4v1H57zM1 42h2v1H1zM5 42h3v1H5zM11 42h1v1H11zM16 42h1v1H16zM20 42h1v1H20zM24 42h5v1H24zM36 42h2v1H36zM41 42h1v1H41zM44 42h2v1H44zM49 42h1v1H49zM52 42h3v1H52zM56 42h1v1H56zM58,42 h3v1H58zM0 43h2v1H0zM4 43h2v1H4zM9 43h2v1H9zM12 43h1v1H12zM15 43h3v1H15zM19 43h3v1H19zM23 43h3v1H23zM29 43h1v1H29zM33 43h2v1H33zM36 43h3v1H36zM40 43h3v1H40zM44 43h3v1H44zM48 43h4v1H48zM54 43h3v1H54zM59 43h1v1H59zM0 44h1v1H0zM2 44h1v1H2zM6 44h2v1H6zM11 44h2v1H11zM15 44h1v1H15zM17 44h3v1H17zM21 44h3v1H21zM25 44h6v1H25zM32 44h1v1H32zM34 44h3v1H34zM38 44h3v1H38zM42 44h3v1H42zM46 44h3v1H46zM50 44h2v1H50zM54 44h2v1H54zM57 44h1v1H57zM59,44 h2v1H59zM1 45h3v1H1zM5 45h1v1H5zM7 45h1v1H7zM9 45h5v1H9zM18 45h1v1H18zM22 45h1v1H22zM26 45h2v1H26zM30 45h1v1H30zM35 45h1v1H35zM39 45h1v1H39zM43 45h1v1H43zM47 45h1v1H47zM52 45h2v1H52zM55 45h1v1H55zM57 45h2v1H57zM60,45 h1v1H60zM1 46h3v1H1zM5 46h2v1H5zM8 46h1v1H8zM10 46h1v1H10zM12 46h1v1H12zM14 46h1v1H14zM16 46h1v1H16zM20 46h1v1H20zM24 46h1v1H24zM27 46h1v1H27zM31 46h1v1H31zM33 46h1v1H33zM37 46h1v1H37zM41 46h1v1H41zM45 46h1v1H45zM49 46h1v1H49zM52 46h1v1H52zM54 46h1v1H54zM56 46h1v1H56zM58,46 h3v1H58zM1 47h5v1H1zM8 47h1v1H8zM12 47h1v1H12zM14 47h4v1H14zM19 47h3v1H19zM23 47h3v1H23zM28 47h2v1H28zM33 47h2v1H33zM36 47h2v1H36zM40 47h3v1H40zM44 47h2v1H44zM48 47h4v1H48zM54 47h1v1H54zM59 47h1v1H59zM0 48h8v1H0zM9 48h11v1H9zM21 48h3v1H21zM25 48h2v1H25zM28 48h3v1H28zM32 48h1v1H32zM34 48h3v1H34zM38 48h1v1H38zM40 48h1v1H40zM42 48h3v1H42zM46 48h1v1H46zM48 48h1v1H48zM50 48h2v1H50zM55 48h1v1H55zM57 48h1v1H57zM0 49h4v1H0zM7 49h1v1H7zM11 49h3v1H11zM15 49h2v1H15zM18 49h1v1H18zM22 49h1v1H22zM26 49h2v1H26zM30 49h3v1H30zM35 49h1v1H35zM37 49h1v1H37zM43 49h1v1H43zM45 49h1v1H45zM47 49h2v1H47zM52 49h2v1H52zM57 49h2v1H57zM60,49 h1v1H60zM2 50h5v1H2zM8 50h1v1H8zM10 50h1v1H10zM12 50h2v1H12zM15 50h1v1H15zM20 50h1v1H20zM24 50h1v1H24zM27 50h1v1H27zM31 50h1v1H31zM33 50h1v1H33zM37 50h1v1H37zM40 50h2v1H40zM45 50h1v1H45zM49 50h1v1H49zM52 50h3v1H52zM56 50h1v1H56zM58,50 h3v1H58zM0 51h3v1H0zM4 51h1v1H4zM8 51h1v1H8zM12 51h1v1H12zM14 51h4v1H14zM19 51h3v1H19zM23 51h3v1H23zM28 51h2v1H28zM33 51h2v1H33zM36 51h3v1H36zM40 51h3v1H40zM44 51h3v1H44zM48 51h5v1H48zM54 51h3v1H54zM59 51h1v1H59zM0 52h4v1H0zM6 52h1v1H6zM9 52h3v1H9zM14 52h2v1H14zM17 52h3v1H17zM21 52h3v1H21zM25 52h2v1H25zM28 52h5v1H28zM34 52h3v1H34zM38 52h3v1H38zM42 52h3v1H42zM46 52h3v1H46zM50 52h8v1H50zM8 53h1v1H8zM11 53h1v1H11zM14 53h1v1H14zM18 53h1v1H18zM22 53h1v1H22zM26 53h1v1H26zM28 53h1v1H28zM32 53h1v1H32zM35 53h1v1H35zM39 53h1v1H39zM43 53h1v1H43zM47 53h1v1H47zM51 53h2v1H51zM56 53h1v1H56zM58 53h1v1H58zM60,53 h1v1H60zM0 54h7v1H0zM9 54h6v1H9zM16 54h3v1H16zM20 54h1v1H20zM24 54h1v1H24zM28 54h1v1H28zM30 54h1v1H30zM32 54h2v1H32zM37 54h1v1H37zM41 54h1v1H41zM45 54h1v1H45zM49 54h1v1H49zM51 54h2v1H51zM54 54h1v1H54zM56 54h2v1H56zM59,54 h2v1H59zM0 55h1v1H0zM6 55h1v1H6zM8 55h2v1H8zM12 55h1v1H12zM14 55h4v1H14zM19 55h3v1H19zM23 55h3v1H23zM28 55h1v1H28zM32 55h1v1H32zM35 55h4v1H35zM40 55h1v1H40zM44 55h3v1H44zM48 55h5v1H48zM56 55h2v1H56zM59 55h1v1H59zM0 56h1v1H0zM2 56h3v1H2zM6 56h1v1H6zM14 56h2v1H14zM17 56h3v1H17zM21 56h3v1H21zM25 56h10v1H25zM36 56h1v1H36zM38 56h3v1H38zM42 56h1v1H42zM44 56h1v1H44zM46 56h3v1H46zM50 56h1v1H50zM52 56h6v1H52zM0 57h1v1H0zM2 57h3v1H2zM6 57h1v1H6zM9 57h6v1H9zM17 57h1v1H17zM22 57h1v1H22zM26 57h2v1H26zM31 57h1v1H31zM39 57h1v1H39zM41 57h1v1H41zM43 57h1v1H43zM47 57h1v1H47zM52 57h3v1H52zM56 57h3v1H56zM0 58h1v1H0zM2 58h3v1H2zM6 58h1v1H6zM8 58h7v1H8zM16 58h1v1H16zM20 58h1v1H20zM24 58h1v1H24zM29 58h1v1H29zM37 58h1v1H37zM43 58h3v1H43zM49 58h1v1H49zM51 58h2v1H51zM54 58h3v1H54zM58,58 h3v1H58zM0 59h1v1H0zM6 59h1v1H6zM8 59h2v1H8zM14 59h4v1H14zM19 59h3v1H19zM23 59h3v1H23zM27 59h2v1H27zM32 59h3v1H32zM36 59h3v1H36zM40 59h3v1H40zM44 59h3v1H44zM48 59h4v1H48zM55 59h1v1H55zM0 60h7v1H0zM8 60h1v1H8zM10 60h1v1H10zM14 60h2v1H14zM17 60h3v1H17zM21 60h3v1H21zM25 60h4v1H25zM30 60h3v1H30zM34 60h3v1H34zM38 60h3v1H38zM42 60h3v1H42zM46 60h3v1H46zM50 60h1v1H50zM53 60h1v1H53zM57 60h1v1H57zM60,60 h1v1H60z" shape-rendering="crispEdges"/></svg>