<svg xmlns="http://www.w3.org/2000/svg" height="300" width="300" viewBox="0 0 61 61" role="img" aria-label="QR code containing user picks"><path fill="#FFFFFF" d="M0,0 h61v61H0z" shape-rendering="crispEdges"/><path fill="#000000" d="M0 0h7v1H0zM11 0h1v1H11zM13 0h2v1H13zM16 0h1v1H16zM20 0h1v1H20zM24 0h1v1H24zM28 0h2v1H28zM31 0h1v1H31zM34 0h5v1H34zM42 0h3v1H42zM46 0h1v1H46zM48 0h1v1H48zM51 0h2v1H51zM54,0 h7v1H54zM0 1h1v1H0zM6 1h1v1H6zM11 1h1v1H11zM13 1h1v1H13zM18 1h1v1H18zM21 1h1v1H21zM26 1h1v1H26zM31 1h1v1H31zM33 1h2v1H33zM36 1h4v1H36zM41 1h2v1H41zM44 1h3v1H44zM48 1h1v1H48zM51 1h2v1H51zM54 1h1v1H54zM60,1 h1v1H60zM0 2h1v1H0zM2 2h3v1H2zM6 2h1v1H6zM8 2h1v1H8zM10 2h2v1H10zM13 2h2v1H13zM16 2h4v1H16zM21 2h3v1H21zM25 2h3v1H25zM30 2h4v1H30zM37 2h1v1H37zM41 2h1v1H41zM45 2h1v1H45zM50 2h3v1H50zM54 2h1v1H54zM56 2h3v1H56zM60,2 h1v1H60zM0 3h1v1H0zM2 3h3v1H2zM6 3h1v1H6zM9 3h3v1H9zM13 3h1v1H13zM15 3h3v1H15zM20 3h2v1H20zM23 3h3v1H23zM28 3h4v1H28zM35 3h1v1H35zM39 3h1v1H39zM43 3h1v1H43zM47 3h1v1H47zM49 3h2v1H49zM52 3h1v1H52zM54 3h1v1H54zM56 3h3v1H56zM60,3 h1v1H60zM0 4h1v1H0zM2 4h3v1H2zM6 4h1v1H6zM13 4h1v1H13zM16 4h1v1H16zM20 4h2v1H20zM24 4h1v1H24zM28 4h5v1H28zM34 4h3v1H34zM38 4h3v1H38zM42 4h3v1H42zM46 4h6v1H46zM54 4h1v1H54zM56 4h3v1H56zM60,4 h1v1H60zM0 5h1v1H0zM6 5h1v1H6zM10 5h1v1H10zM12 5h1v1H12zM14 5h1v1H14zM18 5h2v1H18zM22 5h1v1H22zM26 5h3v1H26zM32 5h3v1H32zM36 5h3v1H36zM40 5h3v1H40zM44 5h3v1H44zM48 5h3v1H48zM54 5h1v1H54zM60,5 h1v1H60zM0 6h7v1H0zM8 6h1v1H8zM10 6h1v1H10zM12 6h1v1H12zM14 6h1v1H14zM16 6h1v1H16zM18 6h1v1H18zM20 6h1v1H20zM22 6h1v1H22zM24 6h1v1H24zM26 6h1v1H26zM28 6h1v1H28zM30 6h1v1H30zM32 6h1v1H32zM34 6h1v1H34zM36 6h1v1H36zM38 6h1v1H38zM40 6h1v1H40zM42 6h1v1H42zM44 6h1v1H44zM46 6h1v1H46zM48 6h1v1H48zM50 6h1v1H50zM52 6h1v1H52zM54,6 h7v1H54zM8 7h4v1H8zM16 7h1v1H16zM19 7h1v1H19zM24 7h1v1H24zM27 7h2v1H27zM32 7h2v1H32zM36 7h1v1H36zM38 7h4v1H38zM44 7h1v1H44zM46 7h3v1H46zM50 7h1v1H50zM52 7h1v1H52zM0 8h3v1H0zM4 8h5v1H4zM11 8h2v1H11zM14 8h1v1H14zM18 8h1v1H18zM22 8h1v1H22zM26 8h1v1H26zM28 8h5v1H28zM34 8h1v1H34zM36 8h3v1H36zM40 8h1v1H40zM43 8h4v1H43zM48 8h1v1H48zM53 8h2v1H53zM58 8h1v1H58zM2 9h1v1H2zM4 9h2v1H4zM7 9h1v1H7zM11 9h1v1H11zM13 9h3v1H13zM17 9h3v1H17zM21 9h3v1H21zM25 9h3v1H25zM30 9h4v1H30zM36 9h2v1H36zM41 9h1v1H41zM45 9h1v1H45zM51 9h1v1H51zM57 9h1v1H57zM59,9 h2v1H59zM2 10h2v1H2zM5 10h2v1H5zM8 10h6v1H8zM15 10h2v1H15zM18 10h4v1H18zM23 10h2v1H23zM26 10h1v1H26zM29 10h2v1H29zM32 10h2v1H32zM39 10h1v1H39zM41 10h1v1H41zM44 10h1v1H44zM47 10h1v1H47zM51 10h3v1H51zM56,10 h5v1H56zM0 11h3v1H0zM4 11h1v1H4zM8 11h2v1H8zM16 11h2v1H16zM20 11h1v1H20zM24 11h2v1H24zM27 11h1v1H27zM29 11h1v1H29zM34 11h3v1H34zM38 11h3v1H38zM42 11h3v1H42zM46 11h3v1H46zM50 11h1v1H50zM52 11h2v1H52zM55 11h3v1H55zM59 11h1v1H59zM0 12h3v1H0zM5 12h3v1H5zM9 12h3v1H9zM14 12h2v1H14zM18 12h1v1H18zM22 12h2v1H22zM26 12h3v1H26zM31 12h1v1H31zM33 12h2v1H33zM36 12h3v1H36zM40 12h3v1H40zM44 12h3v1H44zM48 12h3v1H48zM53 12h2v1H53zM56 12h2v1H56zM59,12 h2v1H59zM0 13h2v1H0zM3 13h1v1H3zM7 13h1v1H7zM12 13h4v1H12zM18 13h2v1H18zM21 13h3v1H21zM26 13h1v1H26zM28 13h1v1H28zM30 13h4v1H30zM37 13h1v1H37zM41 13h1v1H41zM45 13h1v1H45zM49 13h1v1H49zM51 13h1v1H51zM53 13h1v1H53zM58,13 h3v1H58zM2 14h2v1H2zM6 14h2v1H6zM9 14h2v1H9zM12 14h2v1H12zM15 14h3v1H15zM19 14h3v1H19zM23 14h3v1H23zM29 14h2v1H29zM32 14h1v1H32zM35 14h1v1H35zM39 14h1v1H39zM43 14h1v1H43zM47 14h1v1H47zM51 14h3v1H51zM55 14h1v1H55zM57 14h2v1H57zM60,14 h1v1H60zM1 15h1v1H1zM3 15h2v1H3zM9 15h2v1H9zM12 15h4v1H12zM20 15h1v1H20zM23 15h1v1H23zM27 15h1v1H27zM29 15h1v1H29zM34 15h3v1H34zM40 15h1v1H40zM42 15h3v1H42zM46 15h3v1H46zM50 15h1v1H50zM52 15h1v1H52zM54 15h4v1H54zM4 16h6v1H4zM11 16h1v1H11zM13 16h1v1H13zM16 16h1v1H16zM18 16h1v1H18zM22 16h1v1H22zM26 16h3v1H26zM31 16h1v1H31zM33 16h2v1H33zM36 16h7v1H36zM44 16h2v1H44zM47 16h4v1H47zM53 16h2v1H53zM56 16h1v1H56zM59 16h1v1H59zM1 17h3v1H1zM5 17h1v1H5zM7 17h1v1H7zM9 17h1v1H9zM11 17h3v1H11zM16 17h4v1H16zM21 17h3v1H21zM25 17h2v1H25zM28 17h2v1H28zM31 17h3v1H31zM41 17h1v1H41zM47 17h3v1H47zM51 17h1v1H51zM53 17h1v1H53zM58,17 h3v1H58zM2 18h2v1H2zM6 18h1v1H6zM8 18h5v1H8zM17 18h1v1H17zM19 18h2v1H19zM22 18h4v1H22zM29 18h2v1H29zM32 18h1v1H32zM35 18h1v1H35zM37 18h1v1H37zM39 18h1v1H39zM43 18h1v1H43zM45 18h1v1H45zM47 18h2v1H47zM55 18h1v1H55zM57 18h2v1H57zM60,18 h1v1H60zM5 19h1v1H5zM7 19h1v1H7zM9 19h6v1H9zM16 19h1v1H16zM20 19h1v1H20zM24 19h1v1H24zM27 19h1v1H27zM29 19h1v1H29zM34 19h3v1H34zM38 19h3v1H38zM42 19h3v1H42zM46 19h3v1H46zM50 19h1v1H50zM52 19h1v1H52zM54 19h1v1H54zM56 19h2v1H56zM1 20h2v1H1zM4 20h1v1H4zM6 20h4v1H6zM11 20h4v1H11zM18 20h2v1H18zM22 20h1v1H22zM26 20h4v1H26zM31 20h1v1H31zM33 20h2v1H33zM36 20h3v1H36zM40 20h3v1H40zM44 20h3v1H44zM48 20h3v1H48zM53 20h2v1H53zM56 20h1v1H56zM59 20h1v1H59zM0 21h2v1H0zM3 21h3v1H3zM8 21h1v1H8zM10 21h6v1H10zM17 21h3v1H17zM22 21h2v1H22zM25 21h2v1H25zM28 21h1v1H28zM30 21h1v1H30zM32 21h2v1H32zM37 21h1v1H37zM41 21h1v1H41zM45 21h1v1H45zM49 21h1v1H49zM51 21h1v1H51zM53 21h1v1H53zM57 21h1v1H57zM60,21 h1v1H60zM2 22h2v1H2zM5 22h5v1H5zM15 22h3v1H15zM19 22h3v1H19zM23 22h3v1H23zM27 22h1v1H27zM29 22h2v1H29zM32 22h1v1H32zM35 22h1v1H35zM39 22h1v1H39zM43 22h1v1H43zM47 22h1v1H47zM51 22h2v1H51zM56 22h3v1H56zM60,22 h1v1H60zM0 23h1v1H0zM3 23h1v1H3zM5 23h1v1H5zM9 23h2v1H9zM13 23h1v1H13zM16 23h1v1H16zM19 23h1v1H19zM24 23h1v1H24zM27 23h1v1H27zM29 23h1v1H29zM33 23h1v1H33zM36 23h1v1H36zM38 23h3v1H38zM42 23h1v1H42zM44 23h1v1H44zM46 23h4v1H46zM52 23h1v1H52zM56 23h1v1H56zM1 24h2v1H1zM4 24h1v1H4zM6 24h2v1H6zM9 24h3v1H9zM13 24h2v1H13zM18 24h1v1H18zM22 24h1v1H22zM26 24h3v1H26zM32 24h3v1H32zM36 24h3v1H36zM40 24h2v1H40zM43 24h4v1H43zM48 24h2v1H48zM53 24h4v1H53zM60,24 h1v1H60zM0 25h1v1H0zM2 25h2v1H2zM5 25h1v1H5zM7 25h1v1H7zM9 25h2v1H9zM14 25h2v1H14zM17 25h1v1H17zM19 25h1v1H19zM21 25h3v1H21zM25 25h3v1H25zM30 25h4v1H30zM36 25h2v1H36zM45 25h1v1H45zM51 25h1v1H51zM56 25h2v1H56zM59,25 h2v1H59zM0 26h1v1H0zM5 26h2v1H5zM8 26h3v1H8zM12 26h2v1H12zM15 26h2v1H15zM18 26h4v1H18zM23 26h2v1H23zM26 26h1v1H26zM29 26h2v1H29zM32 26h2v1H32zM36 26h1v1H36zM39 26h1v1H39zM43 26h1v1H43zM47 26h1v1H47zM51 26h2v1H51zM56 26h1v1H56zM58,26 h3v1H58zM0 27h2v1H0zM3 27h1v1H3zM7 27h3v1H7zM11 27h1v1H11zM13 27h1v1H13zM16 27h2v1H16zM20 27h1v1H20zM24 27h2v1H24zM27 27h1v1H27zM29 27h1v1H29zM34 27h3v1H34zM38 27h3v1H38zM42 27h3v1H42zM46 27h3v1H46zM50 27h1v1H50zM52 27h2v1H52zM55 27h3v1H55zM59,27 h2v1H59zM0 28h9v1H0zM11 28h1v1H11zM13 28h1v1H13zM15 28h1v1H15zM18 28h1v1H18zM22 28h2v1H22zM26 28h9v1H26zM36 28h3v1H36zM40 28h3v1H40zM44 28h3v1H44zM48 28h3v1H48zM52 28h6v1H52zM0 29h3v1H0zM4 29h1v1H4zM8 29h4v1H8zM15 29h1v1H15zM18 29h2v1H18zM21 29h3v1H21zM26 29h3v1H26zM32 29h2v1H32zM37 29h1v1H37zM41 29h1v1H41zM45 29h1v1H45zM49 29h1v1H49zM52 29h1v1H52zM56 29h1v1H56zM58,29 h3v1H58zM2 30h3v1H2zM6 30h1v1H6zM8 30h1v1H8zM11 30h1v1H11zM14 30h4v1H14zM19 30h3v1H19zM23 30h3v1H23zM27 30h2v1H27zM30 30h1v1H30zM32 30h1v1H32zM35 30h1v1H35zM39 30h1v1H39zM43 30h1v1H43zM47 30h1v1H47zM52 30h1v1H52zM54 30h1v1H54zM56 30h3v1H56zM60,30 h1v1H60zM0 31h2v1H0zM3 31h2v1H3zM8 31h1v1H8zM11 31h1v1H11zM13 31h1v1H13zM15 31h1v1H15zM20 31h1v1H20zM23 31h1v1H23zM28 31h1v1H28zM32 31h1v1H32zM34 31h4v1H34zM40 31h1v1H40zM42 31h4v1H42zM47 31h2v1H47zM50 31h3v1H50zM56 31h2v1H56zM2 32h1v1H2zM4 32h5v1H4zM10 32h1v1H10zM14 32h3v1H14zM18 32h1v1H18zM22 32h1v1H22zM26 32h1v1H26zM28 32h7v1H28zM36 32h2v1H36zM40 32h3v1H40zM44 32h1v1H44zM47 32h10v1H47zM59 32h1v1H59zM0 33h4v1H0zM5 33h1v1H5zM8 33h1v1H8zM11 33h1v1H11zM13 33h1v1H13zM15 33h1v1H15zM17 33h3v1H17zM21 33h3v1H21zM25 33h2v1H25zM29 33h2v1H29zM32 33h2v1H32zM41 33h1v1H41zM47 33h3v1H47zM51 33h2v1H51zM55 33h1v1H55zM58,33 h3v1H58zM0 34h1v1H0zM2 34h1v1H2zM4 34h1v1H4zM6 34h2v1H6zM12 34h1v1H12zM15 34h3v1H15zM19 34h2v1H19zM22 34h4v1H22zM29 34h1v1H29zM35 34h1v1H35zM37 34h1v1H37zM40 34h1v1H40zM43 34h1v1H43zM47 34h1v1H47zM51 34h2v1H51zM54 34h5v1H54zM60,34 h1v1H60zM2 35h4v1H2zM7 35h2v1H7zM10 35h2v1H10zM13 35h1v1H13zM15 35h1v1H15zM20 35h1v1H20zM24 35h1v1H24zM27 35h2v1H27zM31 35h1v1H31zM34 35h3v1H34zM38 35h3v1H38zM42 35h3v1H42zM46 35h3v1H46zM50 35h1v1H50zM52 35h1v1H52zM54 35h1v1H54zM56 35h2v1H56zM0 36h9v1H0zM10 36h3v1H10zM14 36h1v1H14zM18 36h2v1H18zM22 36h1v1H22zM26 36h3v1H26zM30 36h5v1H30zM36 36h3v1H36zM40 36h3v1H40zM44 36h3v1H44zM48 36h3v1H48zM53 36h1v1H53zM59 36h1v1H59zM3 37h1v1H3zM7 37h3v1H7zM11 37h1v1H11zM13 37h1v1H13zM15 37h1v1H15zM17 37h3v1H17zM22 37h2v1H22zM25 37h2v1H25zM29 37h2v1H29zM32 37h2v1H32zM37 37h1v1H37zM41 37h1v1H41zM45 37h1v1H45zM49 37h1v1H49zM51 37h1v1H51zM55 37h1v1H55zM58 37h1v1H58zM60,37 h1v1H60zM0 38h1v1H0zM2 38h6v1H2zM10 38h2v1H10zM14 38h4v1H14zM20 38h2v1H20zM23 38h3v1H23zM30 38h1v1H30zM35 38h1v1H35zM39 38h1v1H39zM43 38h1v1H43zM47 38h1v1H47zM51 38h2v1H51zM54 38h3v1H54zM60,38 h1v1H60zM0 39h1v1H0zM3 39h1v1H3zM5 39h1v1H5zM7 39h1v1H7zM9 39h3v1H9zM14 39h1v1H14zM16 39h4v1H16zM24 39h1v1H24zM27 39h3v1H27zM31 39h1v1H31zM33 39h1v1H33zM36 39h1v1H36zM38 39h3v1H38zM43 39h2v1H43zM46 39h3v1H46zM50 39h1v1H50zM53 39h2v1H53zM56 39h1v1H56zM59 39h1v1H59zM1 40h1v1H1zM6 40h1v1H6zM8 40h2v1H8zM11 40h3v1H11zM17 40h1v1H17zM22 40h1v1H22zM26 40h2v1H26zM30 40h9v1H30zM40 40h1v1H40zM42 40h1v1H42zM44 40h3v1H44zM48 40h2v1H48zM53 40h1v1H53zM55 40h1v1H55zM60,40 h1v1H60zM0 41h6v1H0zM7 41h2v1H7zM12 41h4v1H12zM17 41h1v1H17zM19 41h1v1H19zM21 41h3v1H21zM25 41h2v1H25zM30 41h1v1H30zM32 41h2v1H32zM35 41h1v1H35zM37 41h1v1H37zM43 41h1v1H43zM45 41h1v1H45zM51 41h2v1H51zM55 41h1v1H55zM57 41h1v1H57zM60,41 h1v1H60zM2 42h1v1H2zM4 42h3v1H4zM13 42h1v1H13zM15 42h2v1H15zM18 42h4v1H18zM23 42h2v1H23zM26 42h1v1H26zM28 42h2v1H28zM31 42h1v1H31zM33 42h1v1H33zM35 42h2v1H35zM39 42h1v1H39zM43 42h2v1H43zM47 42h1v1H47zM51 42h2v1H51zM54 42h3v1H54zM58 42h1v1H58zM60,42 h1v1H60zM0 43h1v1H0zM2 43h1v1H2zM5 43h1v1H5zM7 43h1v1H7zM9 43h1v1H9zM11 43h3v1H11zM16 43h2v1H16zM20 43h1v1H20zM24 43h1v1H24zM27 43h1v1H27zM31 43h1v1H31zM34 43h3v1H34zM38 43h3v1H38zM42 43h3v1H42zM46 43h3v1H46zM50 43h1v1H50zM53 43h3v1H53zM57 43h1v1H57zM0 44h4v1H0zM5 44h2v1H5zM10 44h1v1H10zM12 44h2v1H12zM15 44h1v1H15zM18 44h1v1H18zM22 44h2v1H22zM26 44h1v1H26zM28 44h1v1H28zM30 44h5v1H30zM36 44h3v1H36zM40 44h3v1H40zM44 44h3v1H44zM48 44h3v1H48zM53 44h2v1H53zM57 44h1v1H57zM60,44 h1v1H60zM2 45h1v1H2zM10 45h1v1H10zM12 45h1v1H12zM15 45h1v1H15zM18 45h2v1H18zM21 45h3v1H21zM26 45h1v1H26zM29 45h3v1H29zM33 45h1v1H33zM37 45h1v1H37zM41 45h1v1H41zM45 45h1v1H45zM49 45h1v1H49zM51 45h2v1H51zM58,45 h3v1H58zM2 46h1v1H2zM6 46h12v1H6zM19 46h3v1H19zM24 46h2v1H24zM29 46h1v1H29zM35 46h1v1H35zM39 46h1v1H39zM43 46h1v1H43zM47 46h1v1H47zM51 46h8v1H51zM60,46 h1v1H60zM2 47h3v1H2zM7 47h2v1H7zM11 47h5v1H11zM20 47h1v1H20zM23 47h1v1H23zM27 47h2v1H27zM31 47h1v1H31zM34 47h3v1H34zM39 47h2v1H39zM42 47h3v1H42zM47 47h2v1H47zM50 47h1v1H50zM53 47h3v1H53zM57 47h1v1H57zM0 48h1v1H0zM2 48h1v1H2zM4 48h1v1H4zM6 48h2v1H6zM9 48h1v1H9zM11 48h2v1H11zM14 48h1v1H14zM16 48h1v1H16zM18 48h1v1H18zM22 48h1v1H22zM26 48h3v1H26zM30 48h5v1H30zM36 48h7v1H36zM44 48h7v1H44zM54 48h1v1H54zM59 48h1v1H59zM0 49h1v1H0zM2 49h1v1H2zM5 49h1v1H5zM7 49h1v1H7zM10 49h2v1H10zM16 49h4v1H16zM21 49h3v1H21zM25 49h2v1H25zM29 49h2v1H29zM32 49h2v1H32zM39 49h1v1H39zM41 49h1v1H41zM48 49h2v1H48zM51 49h3v1H51zM55 49h1v1H55zM58,49 h3v1H58zM2 50h5v1H2zM8 50h3v1H8zM17 50h1v1H17zM19 50h2v1H19zM22 50h4v1H22zM29 50h1v1H29zM35 50h1v1H35zM39 50h2v1H39zM43 50h1v1H43zM47 50h1v1H47zM51 50h2v1H51zM54 50h5v1H54zM60,50 h1v1H60zM0 51h3v1H0zM4 51h1v1H4zM8 51h2v1H8zM11 51h1v1H11zM13 51h1v1H13zM16 51h1v1H16zM20 51h2v1H20zM24 51h1v1H24zM27 51h2v1H27zM31 51h1v1H31zM34 51h3v1H34zM38 51h3v1H38zM42 51h3v1H42zM46 51h3v1H46zM50 51h1v1H50zM52 51h3v1H52zM56 51h2v1H56zM0 52h4v1H0zM6 52h2v1H6zM10 52h1v1H10zM12 52h1v1H12zM18 52h2v1H18zM22 52h1v1H22zM26 52h9v1H26zM36 52h3v1H36zM40 52h3v1H40zM44 52h3v1H44zM48 52h3v1H48zM52 52h5v1H52zM59 52h1v1H59zM8 53h2v1H8zM11 53h2v1H11zM14 53h2v1H14zM17 53h3v1H17zM22 53h2v1H22zM25 53h4v1H25zM32 53h2v1H32zM37 53h1v1H37zM41 53h1v1H41zM45 53h1v1H45zM49 53h1v1H49zM52 53h1v1H52zM56 53h3v1H56zM60,53 h1v1H60zM0 54h7v1H0zM8 54h1v1H8zM10 54h2v1H10zM14 54h3v1H14zM18 54h1v1H18zM20 54h2v1H20zM23 54h3v1H23zM27 54h2v1H27zM30 54h1v1H30zM32 54h1v1H32zM35 54h1v1H35zM39 54h1v1H39zM43 54h1v1H43zM47 54h1v1H47zM52 54h1v1H52zM54 54h1v1H54zM56 54h1v1H56zM60,54 h1v1H60zM0 55h1v1H0zM6 55h1v1H6zM8 55h1v1H8zM12 55h3v1H12zM16 55h1v1H16zM19 55h1v1H19zM24 55h1v1H24zM27 55h2v1H27zM32 55h2v1H32zM36 55h1v1H36zM38 55h4v1H38zM43 55h2v1H43zM46 55h3v1H46zM50 55h1v1H50zM52 55h1v1H52zM56 55h1v1H56zM0 56h1v1H0zM2 56h3v1H2zM6 56h1v1H6zM8 56h2v1H8zM11 56h1v1H11zM13 56h1v1H13zM18 56h1v1H18zM22 56h1v1H22zM26 56h1v1H26zM28 56h5v1H28zM34 56h5v1H34zM40 56h7v1H40zM48 56h9v1H48zM60,56 h1v1H60zM0 57h1v1H0zM2 57h3v1H2zM6 57h1v1H6zM10 57h1v1H10zM12 57h4v1H12zM19 57h1v1H19zM21 57h3v1H21zM25 57h2v1H25zM29 57h1v1H29zM33 57h1v1H33zM35 57h1v1H35zM37 57h1v1H37zM45 57h1v1H45zM49 57h1v1H49zM51 57h2v1H51zM54 57h4v1H54zM59 57h1v1H59zM0 58h1v1H0zM2 58h3v1H2zM6 58h1v1H6zM8 58h2v1H8zM12 58h1v1H12zM14 58h3v1H14zM18 58h4v1H18zM23 58h2v1H23zM26 58h2v1H26zM31 58h1v1H31zM33 58h1v1H33zM35 58h1v1H35zM39 58h1v1H39zM41 58h1v1H41zM44 58h1v1H44zM47 58h1v1H47zM52 58h3v1H52zM56 58h3v1H56zM60,58 h1v1H60zM0 59h1v1H0zM6 59h1v1H6zM8 59h1v1H8zM10 59h2v1H10zM13 59h2v1H13zM16 59h1v1H16zM20 59h1v1H20zM24 59h2v1H24zM28 59h2v1H28zM31 59h2v1H31zM34 59h3v1H34zM38 59h3v1H38zM42 59h3v1H42zM46 59h3v1H46zM50 59h1v1H50zM53 59h1v1H53zM57 59h1v1H57zM59 59h1v1H59zM0 60h7v1H0zM8 60h2v1H8zM11 60h1v1H11zM13 60h3v1H13zM18 60h1v1H18zM22 60h2v1H22zM26 60h1v1H26zM28 60h3v1H28zM32 60h3v1H32zM36 60h3v1H36zM40 60h3v1H40zM44 60h3v1H44zM48 60h4v1H48zM55 60h1v1H55zM57 60h1v1H57zM59,60 h2v1H59z" shape-rendering="crispEdges"/></svg>