<svg xmlns="http://www.w3.org/2000/svg" height="300" width="300" viewBox="0 0 61 61" role="img" aria-label="QR code containing user picks"><path fill="#FFFFFF" d="M0,0 h61v61H0z" shape-rendering="crispEdges"/><path fill="#000000" d="M0 0h7v1H0zM9 0h5v1H9zM15 0h1v1H15zM21 0h2v1H21zM24 0h4v1H24zM30 0h4v1H30zM35 0h3v1H35zM39 0h2v1H39zM42 0h2v1H42zM45 0h1v1H45zM48 0h1v1H48zM51 0h2v1H51zM54,0 h7v1H54zM0 1h1v1H0zM6 1h1v1H6zM8 1h1v1H8zM11 1h1v1H11zM17 1h1v1H17zM19 1h1v1H19zM21 1h1v1H21zM23 1h4v1H23zM30 1h1v1H30zM33 1h3v1H33zM38 1h2v1H38zM43 1h5v1H43zM49 1h1v1H49zM51 1h2v1H51zM54 1h1v1H54zM60,1 h1v1H60zM0 2h1v1H0zM2 2h3v1H2zM6 2h1v1H6zM9 2h1v1H9zM12 2h2v1H12zM15 2h1v1H15zM17 2h4v1H17zM23 2h1v1H23zM25 2h1v1H25zM27 2h1v1H27zM30 2h2v1H30zM34 2h2v1H34zM39 2h3v1H39zM43 2h3v1H43zM50 2h3v1H50zM54 2h1v1H54zM56 2h3v1H56zM60,2 h1v1H60zM0 3h1v1H0zM2 3h3v1H2zM6 3h1v1H6zM8 3h3v1H8zM12 3h1v1H12zM15 3h2v1H15zM18 3h4v1H18zM28 3h2v1H28zM36 3h2v1H36zM39 3h1v1H39zM41 3h2v1H41zM48 3h1v1H48zM50 3h1v1H50zM52 3h1v1H52zM54 3h1v1H54zM56 3h3v1H56zM60,3 h1v1H60zM0 4h1v1H0zM2 4h3v1H2zM6 4h1v1H6zM9 4h2v1H9zM13 4h3v1H13zM22 4h1v1H22zM24 4h1v1H24zM26 4h8v1H26zM36 4h1v1H36zM42 4h1v1H42zM45 4h1v1H45zM47 4h5v1H47zM54 4h1v1H54zM56 4h3v1H56zM60,4 h1v1H60zM0 5h1v1H0zM6 5h1v1H6zM8 5h1v1H8zM10 5h2v1H10zM13 5h2v1H13zM17 5h1v1H17zM21 5h1v1H21zM23 5h6v1H23zM32 5h3v1H32zM36 5h3v1H36zM40 5h1v1H40zM46 5h2v1H46zM50 5h1v1H50zM54 5h1v1H54zM60,5 h1v1H60zM0 6h7v1H0zM8 6h1v1H8zM10 6h1v1H10zM12 6h1v1H12zM14 6h1v1H14zM16 6h1v1H16zM18 6h1v1H18zM20 6h1v1H20zM22 6h1v1H22zM24 6h1v1H24zM26 6h1v1H26zM28 6h1v1H28zM30 6h1v1H30zM32 6h1v1H32zM34 6h1v1H34zM36 6h1v1H36zM38 6h1v1H38zM40 6h1v1H40zM42 6h1v1H42zM44 6h1v1H44zM46 6h1v1H46zM48 6h1v1H48zM50 6h1v1H50zM52 6h1v1H52zM54,6 h7v1H54zM9 7h2v1H9zM12 7h2v1H12zM16 7h3v1H16zM21 7h1v1H21zM23 7h1v1H23zM25 7h1v1H25zM27 7h2v1H27zM32 7h2v1H32zM35 7h1v1H35zM37 7h4v1H37zM42 7h3v1H42zM46 7h1v1H46zM49 7h2v1H49zM52 7h1v1H52zM0 8h5v1H0zM6 8h7v1H6zM15 8h2v1H15zM18 8h1v1H18zM20 8h2v1H20zM23 8h1v1H23zM27 8h7v1H27zM36 8h2v1H36zM39 8h1v1H39zM43 8h1v1H43zM48 8h1v1H48zM50 8h4v1H50zM55 8h1v1H55zM57 8h1v1H57zM59 8h1v1H59zM0 9h1v1H0zM2 9h1v1H2zM4 9h1v1H4zM12 9h1v1H12zM14 9h2v1H14zM22 9h1v1H22zM24 9h1v1H24zM26 9h2v1H26zM29 9h1v1H29zM32 9h2v1H32zM35 9h1v1H35zM42 9h2v1H42zM45 9h1v1H45zM47 9h3v1H47zM51 9h1v1H51zM53 9h3v1H53zM57 9h1v1H57zM2 10h5v1H2zM11 10h4v1H11zM18 10h2v1H18zM22 10h3v1H22zM27 10h4v1H27zM34 10h1v1H34zM38 10h1v1H38zM40 10h2v1H40zM45 10h3v1H45zM50 10h1v1H50zM53 10h1v1H53zM59,10 h2v1H59zM4 11h2v1H4zM9 11h1v1H9zM11 11h3v1H11zM16 11h1v1H16zM18 11h3v1H18zM24 11h1v1H24zM27 11h1v1H27zM30 11h2v1H30zM33 11h1v1H33zM37 11h2v1H37zM40 11h1v1H40zM42 11h1v1H42zM44 11h1v1H44zM46 11h2v1H46zM52 11h1v1H52zM54 11h1v1H54zM56 11h2v1H56zM60,11 h1v1H60zM0 12h2v1H0zM3 12h6v1H3zM11 12h1v1H11zM16 12h1v1H16zM18 12h1v1H18zM20 12h2v1H20zM23 12h1v1H23zM31 12h2v1H31zM36 12h2v1H36zM39 12h1v1H39zM42 12h1v1H42zM48 12h2v1H48zM52 12h3v1H52zM58,12 h3v1H58zM3 13h1v1H3zM5 13h1v1H5zM8 13h1v1H8zM11 13h1v1H11zM14 13h2v1H14zM17 13h1v1H17zM21 13h2v1H21zM24 13h3v1H24zM28 13h2v1H28zM32 13h2v1H32zM35 13h2v1H35zM39 13h1v1H39zM42 13h2v1H42zM45 13h1v1H45zM47 13h2v1H47zM51 13h1v1H51zM54 13h2v1H54zM58 13h1v1H58zM4 14h1v1H4zM6 14h2v1H6zM12 14h3v1H12zM17 14h1v1H17zM19 14h1v1H19zM22 14h3v1H22zM27 14h4v1H27zM34 14h2v1H34zM38 14h2v1H38zM41 14h1v1H41zM43 14h4v1H43zM48 14h4v1H48zM53 14h1v1H53zM55 14h2v1H55zM60,14 h1v1H60zM0 15h1v1H0zM3 15h3v1H3zM7 15h1v1H7zM10 15h2v1H10zM14 15h2v1H14zM17 15h4v1H17zM24 15h1v1H24zM27 15h1v1H27zM30 15h2v1H30zM34 15h1v1H34zM37 15h1v1H37zM40 15h2v1H40zM44 15h1v1H44zM46 15h1v1H46zM49 15h3v1H49zM53 15h1v1H53zM56 15h2v1H56zM59,15 h2v1H59zM2 16h2v1H2zM5 16h3v1H5zM9 16h1v1H9zM11 16h1v1H11zM13 16h3v1H13zM18 16h1v1H18zM20 16h2v1H20zM31 16h2v1H31zM36 16h2v1H36zM41 16h2v1H41zM46 16h4v1H46zM51 16h4v1H51zM57 16h3v1H57zM0 17h1v1H0zM2 17h2v1H2zM10 17h1v1H10zM12 17h1v1H12zM16 17h1v1H16zM21 17h2v1H21zM24 17h3v1H24zM28 17h1v1H28zM30 17h4v1H30zM35 17h3v1H35zM42 17h2v1H42zM51 17h1v1H51zM54 17h2v1H54zM58 17h1v1H58zM4 18h1v1H4zM6 18h1v1H6zM11 18h2v1H11zM14 18h4v1H14zM19 18h1v1H19zM21 18h1v1H21zM23 18h4v1H23zM28 18h3v1H28zM33 18h3v1H33zM37 18h2v1H37zM40 18h1v1H40zM43 18h2v1H43zM46 18h3v1H46zM50 18h3v1H50zM55 18h2v1H55zM60,18 h1v1H60zM0 19h2v1H0zM5 19h1v1H5zM9 19h2v1H9zM12 19h1v1H12zM14 19h1v1H14zM16 19h3v1H16zM23 19h1v1H23zM25 19h1v1H25zM27 19h1v1H27zM30 19h1v1H30zM34 19h2v1H34zM39 19h3v1H39zM43 19h3v1H43zM49 19h2v1H49zM52 19h2v1H52zM55 19h3v1H55zM59,19 h2v1H59zM1 20h1v1H1zM3 20h5v1H3zM10 20h4v1H10zM15 20h2v1H15zM18 20h4v1H18zM29 20h1v1H29zM36 20h1v1H36zM39 20h1v1H39zM41 20h2v1H41zM48 20h2v1H48zM51 20h4v1H51zM57 20h3v1H57zM3 21h1v1H3zM7 21h2v1H7zM10 21h1v1H10zM14 21h2v1H14zM22 21h1v1H22zM24 21h1v1H24zM26 21h2v1H26zM30 21h4v1H30zM35 21h2v1H35zM42 21h1v1H42zM45 21h1v1H45zM47 21h2v1H47zM51 21h1v1H51zM54 21h2v1H54zM57 21h1v1H57zM59 21h1v1H59zM1 22h1v1H1zM5 22h3v1H5zM10 22h1v1H10zM14 22h1v1H14zM17 22h1v1H17zM19 22h1v1H19zM21 22h1v1H21zM23 22h4v1H23zM28 22h1v1H28zM30 22h1v1H30zM33 22h2v1H33zM36 22h3v1H36zM40 22h1v1H40zM46 22h2v1H46zM50 22h1v1H50zM60,22 h1v1H60zM1 23h1v1H1zM3 23h1v1H3zM7 23h1v1H7zM9 23h4v1H9zM16 23h3v1H16zM23 23h1v1H23zM25 23h1v1H25zM27 23h1v1H27zM30 23h2v1H30zM33 23h1v1H33zM35 23h1v1H35zM37 23h5v1H37zM43 23h2v1H43zM46 23h1v1H46zM52 23h5v1H52zM59,23 h2v1H59zM0 24h1v1H0zM6 24h3v1H6zM11 24h1v1H11zM15 24h2v1H15zM18 24h1v1H18zM20 24h2v1H20zM23 24h1v1H23zM29 24h1v1H29zM36 24h2v1H36zM39 24h1v1H39zM41 24h1v1H41zM43 24h1v1H43zM48 24h8v1H48zM57 24h2v1H57zM60,24 h1v1H60zM0 25h4v1H0zM9 25h4v1H9zM14 25h2v1H14zM18 25h1v1H18zM22 25h1v1H22zM24 25h1v1H24zM26 25h2v1H26zM29 25h1v1H29zM32 25h2v1H32zM35 25h1v1H35zM41 25h3v1H41zM45 25h1v1H45zM47 25h3v1H47zM51 25h1v1H51zM53 25h5v1H53zM0 26h1v1H0zM2 26h5v1H2zM12 26h3v1H12zM18 26h2v1H18zM22 26h3v1H22zM27 26h4v1H27zM34 26h1v1H34zM36 26h1v1H36zM38 26h1v1H38zM40 26h1v1H40zM43 26h5v1H43zM50 26h1v1H50zM57 26h1v1H57zM59,26 h2v1H59zM3 27h1v1H3zM5 27h1v1H5zM8 27h2v1H8zM12 27h1v1H12zM16 27h1v1H16zM18 27h3v1H18zM24 27h1v1H24zM27 27h1v1H27zM30 27h2v1H30zM33 27h1v1H33zM37 27h2v1H37zM40 27h1v1H40zM42 27h1v1H42zM44 27h1v1H44zM46 27h2v1H46zM52 27h1v1H52zM54 27h1v1H54zM56 27h2v1H56zM0 28h2v1H0zM4 28h8v1H4zM13 28h2v1H13zM16 28h1v1H16zM18 28h1v1H18zM20 28h2v1H20zM23 28h1v1H23zM28 28h5v1H28zM36 28h2v1H36zM39 28h1v1H39zM42 28h1v1H42zM48 28h2v1H48zM52 28h5v1H52zM58 28h1v1H58zM2 29h1v1H2zM4 29h1v1H4zM8 29h3v1H8zM12 29h2v1H12zM15 29h1v1H15zM17 29h1v1H17zM21 29h2v1H21zM24 29h5v1H24zM32 29h2v1H32zM35 29h2v1H35zM39 29h1v1H39zM42 29h2v1H42zM45 29h1v1H45zM47 29h2v1H47zM52 29h1v1H52zM56 29h1v1H56zM58 29h1v1H58zM4 30h1v1H4zM6 30h1v1H6zM8 30h2v1H8zM11 30h1v1H11zM17 30h1v1H17zM19 30h1v1H19zM22 30h3v1H22zM28 30h1v1H28zM30 30h1v1H30zM32 30h1v1H32zM34 30h2v1H34zM38 30h2v1H38zM41 30h1v1H41zM43 30h4v1H43zM48 30h1v1H48zM50 30h3v1H50zM54 30h1v1H54zM56 30h1v1H56zM60,30 h1v1H60zM3 31h2v1H3zM8 31h1v1H8zM12 31h1v1H12zM15 31h1v1H15zM17 31h4v1H17zM24 31h1v1H24zM28 31h1v1H28zM32 31h1v1H32zM34 31h1v1H34zM40 31h2v1H40zM44 31h2v1H44zM49 31h4v1H49zM56 31h2v1H56zM59,31 h2v1H59zM3 32h7v1H3zM11 32h2v1H11zM18 32h4v1H18zM27 32h6v1H27zM36 32h4v1H36zM41 32h2v1H41zM45 32h5v1H45zM52 32h8v1H52zM2 33h2v1H2zM7 33h2v1H7zM11 33h1v1H11zM15 33h1v1H15zM21 33h2v1H21zM24 33h3v1H24zM31 33h3v1H31zM35 33h3v1H35zM42 33h2v1H42zM51 33h1v1H51zM53 33h2v1H53zM58 33h1v1H58zM0 34h1v1H0zM3 34h1v1H3zM6 34h1v1H6zM9 34h2v1H9zM12 34h1v1H12zM14 34h1v1H14zM17 34h1v1H17zM19 34h1v1H19zM21 34h1v1H21zM23 34h7v1H23zM32 34h4v1H32zM37 34h3v1H37zM43 34h5v1H43zM50 34h2v1H50zM54 34h2v1H54zM60,34 h1v1H60zM0 35h5v1H0zM7 35h1v1H7zM10 35h1v1H10zM12 35h1v1H12zM15 35h1v1H15zM17 35h2v1H17zM23 35h1v1H23zM25 35h1v1H25zM27 35h4v1H27zM34 35h2v1H34zM39 35h3v1H39zM43 35h3v1H43zM49 35h2v1H49zM52 35h2v1H52zM55 35h3v1H55zM59,35 h2v1H59zM0 36h2v1H0zM5 36h3v1H5zM9 36h1v1H9zM11 36h2v1H11zM15 36h2v1H15zM18 36h4v1H18zM28 36h1v1H28zM30 36h2v1H30zM36 36h1v1H36zM39 36h1v1H39zM41 36h2v1H41zM45 36h1v1H45zM48 36h2v1H48zM51 36h3v1H51zM56 36h4v1H56zM0 37h2v1H0zM3 37h1v1H3zM5 37h1v1H5zM8 37h2v1H8zM12 37h1v1H12zM15 37h1v1H15zM22 37h1v1H22zM24 37h1v1H24zM26 37h1v1H26zM31 37h3v1H31zM35 37h2v1H35zM42 37h2v1H42zM45 37h1v1H45zM47 37h2v1H47zM51 37h1v1H51zM53 37h2v1H53zM58 37h2v1H58zM0 38h2v1H0zM5 38h5v1H5zM11 38h1v1H11zM17 38h1v1H17zM21 38h1v1H21zM23 38h6v1H23zM30 38h5v1H30zM36 38h3v1H36zM40 38h1v1H40zM46 38h2v1H46zM50 38h1v1H50zM54 38h2v1H54zM57 38h2v1H57zM60,38 h1v1H60zM3 39h1v1H3zM9 39h2v1H9zM12 39h1v1H12zM16 39h1v1H16zM23 39h1v1H23zM25 39h1v1H25zM27 39h1v1H27zM30 39h1v1H30zM33 39h1v1H33zM35 39h1v1H35zM37 39h6v1H37zM44 39h1v1H44zM46 39h1v1H46zM49 39h2v1H49zM55 39h2v1H55zM60,39 h1v1H60zM0 40h3v1H0zM4 40h3v1H4zM10 40h8v1H10zM20 40h2v1H20zM23 40h1v1H23zM27 40h2v1H27zM30 40h2v1H30zM35 40h3v1H35zM39 40h1v1H39zM42 40h1v1H42zM48 40h6v1H48zM55 40h4v1H55zM60,40 h1v1H60zM2 41h4v1H2zM8 41h1v1H8zM11 41h1v1H11zM13 41h3v1H13zM18 41h1v1H18zM22 41h1v1H22zM24 41h1v1H24zM26 41h1v1H26zM29 41h1v1H29zM33 41h1v1H33zM36 41h1v1H36zM41 41h2v1H41zM45 41h1v1H45zM47 41h3v1H47zM51 41h4v1H51zM57 41h1v1H57zM59 41h1v1H59zM3 42h1v1H3zM5 42h2v1H5zM8 42h3v1H8zM13 42h2v1H13zM18 42h2v1H18zM22 42h1v1H22zM24 42h1v1H24zM27 42h1v1H27zM30 42h3v1H30zM34 42h3v1H34zM38 42h1v1H38zM40 42h1v1H40zM43 42h1v1H43zM45 42h3v1H45zM50 42h1v1H50zM54 42h2v1H54zM57 42h1v1H57zM60,42 h1v1H60zM1 43h4v1H1zM9 43h1v1H9zM16 43h1v1H16zM18 43h3v1H18zM24 43h2v1H24zM27 43h1v1H27zM29 43h2v1H29zM33 43h1v1H33zM37 43h2v1H37zM40 43h1v1H40zM42 43h1v1H42zM44 43h1v1H44zM46 43h2v1H46zM49 43h2v1H49zM57 43h1v1H57zM59,43 h2v1H59zM0 44h2v1H0zM4 44h3v1H4zM8 44h2v1H8zM12 44h3v1H12zM16 44h1v1H16zM18 44h1v1H18zM20 44h2v1H20zM23 44h1v1H23zM27 44h1v1H27zM30 44h2v1H30zM36 44h2v1H36zM39 44h1v1H39zM41 44h2v1H41zM48 44h2v1H48zM51 44h4v1H51zM56 44h1v1H56zM58 44h1v1H58zM60,44 h1v1H60zM0 45h3v1H0zM5 45h1v1H5zM7 45h1v1H7zM10 45h2v1H10zM13 45h1v1H13zM15 45h1v1H15zM17 45h1v1H17zM21 45h2v1H21zM24 45h3v1H24zM29 45h1v1H29zM33 45h1v1H33zM35 45h2v1H35zM42 45h2v1H42zM45 45h1v1H45zM48 45h1v1H48zM51 45h5v1H51zM58 45h1v1H58zM3 46h2v1H3zM6 46h2v1H6zM10 46h4v1H10zM17 46h1v1H17zM19 46h1v1H19zM22 46h1v1H22zM24 46h1v1H24zM27 46h3v1H27zM32 46h1v1H32zM34 46h2v1H34zM38 46h2v1H38zM41 46h1v1H41zM43 46h4v1H43zM48 46h3v1H48zM52 46h4v1H52zM60,46 h1v1H60zM0 47h6v1H0zM8 47h2v1H8zM14 47h2v1H14zM17 47h4v1H17zM24 47h2v1H24zM27 47h4v1H27zM34 47h1v1H34zM37 47h1v1H37zM39 47h3v1H39zM44 47h1v1H44zM49 47h2v1H49zM57 47h1v1H57zM59,47 h2v1H59zM0 48h1v1H0zM3 48h1v1H3zM6 48h1v1H6zM9 48h2v1H9zM12 48h1v1H12zM15 48h1v1H15zM18 48h4v1H18zM30 48h2v1H30zM36 48h2v1H36zM41 48h2v1H41zM47 48h3v1H47zM51 48h2v1H51zM54 48h1v1H54zM56 48h4v1H56zM1 49h2v1H1zM7 49h1v1H7zM13 49h1v1H13zM16 49h1v1H16zM21 49h2v1H21zM24 49h3v1H24zM31 49h3v1H31zM35 49h3v1H35zM39 49h1v1H39zM42 49h2v1H42zM47 49h1v1H47zM51 49h1v1H51zM54 49h1v1H54zM58 49h1v1H58zM2 50h6v1H2zM14 50h4v1H14zM19 50h1v1H19zM21 50h1v1H21zM23 50h7v1H23zM32 50h4v1H32zM38 50h1v1H38zM43 50h5v1H43zM50 50h2v1H50zM54 50h2v1H54zM60,50 h1v1H60zM0 51h3v1H0zM4 51h1v1H4zM7 51h3v1H7zM11 51h2v1H11zM16 51h3v1H16zM21 51h1v1H21zM23 51h1v1H23zM25 51h1v1H25zM27 51h4v1H27zM34 51h2v1H34zM39 51h3v1H39zM43 51h3v1H43zM49 51h2v1H49zM52 51h2v1H52zM55 51h3v1H55zM59,51 h2v1H59zM0 52h4v1H0zM6 52h4v1H6zM12 52h1v1H12zM14 52h3v1H14zM18 52h4v1H18zM28 52h5v1H28zM36 52h1v1H36zM39 52h1v1H39zM41 52h2v1H41zM45 52h1v1H45zM48 52h2v1H48zM51 52h9v1H51zM8 53h2v1H8zM13 53h3v1H13zM22 53h1v1H22zM24 53h1v1H24zM26 53h1v1H26zM28 53h1v1H28zM32 53h2v1H32zM36 53h1v1H36zM42 53h2v1H42zM45 53h1v1H45zM47 53h2v1H47zM52 53h1v1H52zM56 53h4v1H56zM0 54h7v1H0zM8 54h2v1H8zM11 54h1v1H11zM13 54h1v1H13zM18 54h1v1H18zM21 54h1v1H21zM23 54h4v1H23zM28 54h1v1H28zM30 54h1v1H30zM32 54h3v1H32zM36 54h3v1H36zM40 54h1v1H40zM46 54h2v1H46zM50 54h3v1H50zM54 54h1v1H54zM56 54h3v1H56zM60,54 h1v1H60zM0 55h1v1H0zM6 55h1v1H6zM11 55h1v1H11zM14 55h1v1H14zM16 55h3v1H16zM21 55h1v1H21zM23 55h1v1H23zM25 55h1v1H25zM27 55h2v1H27zM32 55h2v1H32zM35 55h1v1H35zM37 55h4v1H37zM42 55h1v1H42zM44 55h1v1H44zM46 55h1v1H46zM49 55h2v1H49zM52 55h1v1H52zM56 55h1v1H56zM59,55 h2v1H59zM0 56h1v1H0zM2 56h3v1H2zM6 56h1v1H6zM8 56h1v1H8zM10 56h2v1H10zM13 56h4v1H13zM18 56h1v1H18zM20 56h2v1H20zM23 56h1v1H23zM27 56h7v1H27zM35 56h3v1H35zM39 56h1v1H39zM41 56h3v1H41zM48 56h2v1H48zM52 56h7v1H52zM60,56 h1v1H60zM0 57h1v1H0zM2 57h3v1H2zM6 57h1v1H6zM8 57h1v1H8zM10 57h2v1H10zM13 57h3v1H13zM17 57h2v1H17zM22 57h1v1H22zM24 57h1v1H24zM26 57h2v1H26zM30 57h2v1H30zM33 57h1v1H33zM36 57h1v1H36zM41 57h3v1H41zM45 57h1v1H45zM47 57h2v1H47zM51 57h3v1H51zM56 57h2v1H56zM60,57 h1v1H60zM0 58h1v1H0zM2 58h3v1H2zM6 58h1v1H6zM8 58h1v1H8zM10 58h1v1H10zM12 58h1v1H12zM18 58h2v1H18zM22 58h1v1H22zM24 58h1v1H24zM27 58h1v1H27zM31 58h2v1H31zM34 58h2v1H34zM38 58h1v1H38zM40 58h2v1H40zM45 58h3v1H45zM50 58h2v1H50zM53 58h2v1H53zM60,58 h1v1H60zM0 59h1v1H0zM6 59h1v1H6zM8 59h1v1H8zM10 59h1v1H10zM12 59h1v1H12zM14 59h1v1H14zM16 59h5v1H16zM24 59h1v1H24zM28 59h1v1H28zM30 59h4v1H30zM37 59h2v1H37zM40 59h1v1H40zM42 59h1v1H42zM44 59h1v1H44zM46 59h2v1H46zM54 59h2v1H54zM57 59h1v1H57zM60,59 h1v1H60zM0 60h7v1H0zM8 60h1v1H8zM10 60h2v1H10zM13 60h1v1H13zM16 60h1v1H16zM18 60h1v1H18zM20 60h2v1H20zM23 60h1v1H23zM27 60h1v1H27zM29 60h2v1H29zM33 60h1v1H33zM36 60h2v1H36zM39 60h1v1H39zM41 60h2v1H41zM48 60h2v1H48zM52 60h1v1H52zM55 60h2v1H55zM58,60 h3v1H58z" shape-rendering="crispEdges"/></svg>