<svg xmlns="http://www.w3.org/2000/svg" height="300" width="300" viewBox="0 0 61 61" role="img" aria-label="QR code containing user picks"><path fill="#FFFFFF" d="M0,0 h61v61H0z" shape-rendering="crispEdges"/><path fill="#000000" d="M0 0h7v1H0zM9 0h2v1H9zM13 0h1v1H13zM15 0h1v1H15zM17 0h1v1H17zM22 0h1v1H22zM24 0h4v1H24zM30 0h4v1H30zM36 0h2v1H36zM39 0h2v1H39zM42 0h2v1H42zM45 0h1v1H45zM48 0h1v1H48zM51 0h2v1H51zM54,0 h7v1H54zM0 1h1v1H0zM6 1h1v1H6zM8 1h5v1H8zM18 1h1v1H18zM21 1h1v1H21zM23 1h2v1H23zM30 1h1v1H30zM34 1h1v1H34zM36 1h1v1H36zM38 1h2v1H38zM41 1h1v1H41zM45 1h3v1H45zM49 1h1v1H49zM51 1h2v1H51zM54 1h1v1H54zM60,1 h1v1H60zM0 2h1v1H0zM2 2h3v1H2zM6 2h1v1H6zM9 2h1v1H9zM12 2h2v1H12zM15 2h1v1H15zM17 2h2v1H17zM24 2h2v1H24zM27 2h1v1H27zM30 2h2v1H30zM33 2h1v1H33zM35 2h1v1H35zM40 2h1v1H40zM42 2h4v1H42zM47 2h1v1H47zM50 2h3v1H50zM54 2h1v1H54zM56 2h3v1H56zM60,2 h1v1H60zM0 3h1v1H0zM2 3h3v1H2zM6 3h1v1H6zM8 3h3v1H8zM12 3h1v1H12zM16 3h1v1H16zM18 3h4v1H18zM23 3h1v1H23zM28 3h2v1H28zM36 3h2v1H36zM39 3h1v1H39zM42 3h1v1H42zM48 3h1v1H48zM50 3h1v1H50zM52 3h1v1H52zM54 3h1v1H54zM56 3h3v1H56zM60,3 h1v1H60zM0 4h1v1H0zM2 4h3v1H2zM6 4h1v1H6zM9 4h1v1H9zM13 4h3v1H13zM17 4h1v1H17zM22 4h1v1H22zM24 4h10v1H24zM36 4h1v1H36zM42 4h1v1H42zM45 4h1v1H45zM47 4h5v1H47zM54 4h1v1H54zM56 4h3v1H56zM60,4 h1v1H60zM0 5h1v1H0zM6 5h1v1H6zM8 5h2v1H8zM11 5h1v1H11zM18 5h1v1H18zM21 5h1v1H21zM24 5h1v1H24zM27 5h2v1H27zM32 5h1v1H32zM34 5h1v1H34zM36 5h4v1H36zM41 5h1v1H41zM46 5h1v1H46zM48 5h3v1H48zM54 5h1v1H54zM60,5 h1v1H60zM0 6h7v1H0zM8 6h1v1H8zM10 6h1v1H10zM12 6h1v1H12zM14 6h1v1H14zM16 6h1v1H16zM18 6h1v1H18zM20 6h1v1H20zM22 6h1v1H22zM24 6h1v1H24zM26 6h1v1H26zM28 6h1v1H28zM30 6h1v1H30zM32 6h1v1H32zM34 6h1v1H34zM36 6h1v1H36zM38 6h1v1H38zM40 6h1v1H40zM42 6h1v1H42zM44 6h1v1H44zM46 6h1v1H46zM48 6h1v1H48zM50 6h1v1H50zM52 6h1v1H52zM54,6 h7v1H54zM9 7h1v1H9zM12 7h1v1H12zM15 7h1v1H15zM17 7h2v1H17zM21 7h1v1H21zM24 7h2v1H24zM27 7h2v1H27zM32 7h2v1H32zM35 7h1v1H35zM40 7h1v1H40zM42 7h4v1H42zM47 7h1v1H47zM49 7h3v1H49zM0 8h5v1H0zM6 8h7v1H6zM16 8h1v1H16zM18 8h4v1H18zM23 8h1v1H23zM27 8h7v1H27zM36 8h2v1H36zM39 8h1v1H39zM43 8h1v1H43zM48 8h1v1H48zM50 8h1v1H50zM52 8h2v1H52zM55 8h1v1H55zM57 8h1v1H57zM59 8h1v1H59zM0 9h1v1H0zM4 9h1v1H4zM9 9h1v1H9zM11 9h5v1H11zM17 9h1v1H17zM22 9h1v1H22zM24 9h4v1H24zM30 9h4v1H30zM35 9h1v1H35zM39 9h1v1H39zM42 9h2v1H42zM45 9h1v1H45zM47 9h3v1H47zM51 9h1v1H51zM53 9h3v1H53zM57 9h1v1H57zM1 10h1v1H1zM3 10h1v1H3zM5 10h3v1H5zM12 10h1v1H12zM18 10h1v1H18zM21 10h1v1H21zM23 10h2v1H23zM28 10h3v1H28zM34 10h1v1H34zM37 10h3v1H37zM41 10h1v1H41zM46 10h1v1H46zM48 10h1v1H48zM50 10h2v1H50zM53 10h1v1H53zM59,10 h2v1H59zM0 11h1v1H0zM3 11h2v1H3zM9 11h1v1H9zM15 11h1v1H15zM18 11h1v1H18zM21 11h1v1H21zM24 11h1v1H24zM27 11h1v1H27zM30 11h2v1H30zM33 11h1v1H33zM35 11h1v1H35zM40 11h1v1H40zM42 11h4v1H42zM47 11h1v1H47zM51 11h1v1H51zM54 11h4v1H54zM60,11 h1v1H60zM0 12h2v1H0zM3 12h1v1H3zM5 12h2v1H5zM11 12h1v1H11zM16 12h1v1H16zM18 12h4v1H18zM23 12h1v1H23zM27 12h1v1H27zM29 12h1v1H29zM31 12h2v1H31zM36 12h1v1H36zM39 12h1v1H39zM42 12h1v1H42zM45 12h1v1H45zM48 12h2v1H48zM52 12h3v1H52zM58,12 h3v1H58zM3 13h2v1H3zM11 13h1v1H11zM13 13h3v1H13zM17 13h1v1H17zM22 13h1v1H22zM24 13h4v1H24zM30 13h4v1H30zM36 13h1v1H36zM39 13h1v1H39zM42 13h2v1H42zM45 13h1v1H45zM47 13h2v1H47zM51 13h1v1H51zM54 13h1v1H54zM57 13h1v1H57zM59 13h1v1H59zM4 14h1v1H4zM6 14h6v1H6zM13 14h2v1H13zM18 14h2v1H18zM21 14h1v1H21zM23 14h2v1H23zM28 14h1v1H28zM30 14h1v1H30zM34 14h1v1H34zM36 14h4v1H36zM41 14h1v1H41zM46 14h1v1H46zM48 14h4v1H48zM53 14h1v1H53zM60,14 h1v1H60zM0 15h1v1H0zM3 15h3v1H3zM7 15h1v1H7zM9 15h1v1H9zM11 15h1v1H11zM14 15h2v1H14zM17 15h2v1H17zM24 15h1v1H24zM27 15h1v1H27zM30 15h1v1H30zM33 15h1v1H33zM35 15h1v1H35zM37 15h1v1H37zM40 15h1v1H40zM42 15h3v1H42zM46 15h1v1H46zM51 15h1v1H51zM54 15h4v1H54zM60,15 h1v1H60zM0 16h1v1H0zM2 16h1v1H2zM5 16h3v1H5zM9 16h1v1H9zM12 16h4v1H12zM18 16h4v1H18zM23 16h1v1H23zM29 16h1v1H29zM36 16h2v1H36zM42 16h1v1H42zM46 16h4v1H46zM51 16h2v1H51zM54 16h1v1H54zM58 16h1v1H58zM60,16 h1v1H60zM0 17h3v1H0zM11 17h2v1H11zM16 17h2v1H16zM22 17h1v1H22zM24 17h4v1H24zM30 17h4v1H30zM35 17h3v1H35zM42 17h1v1H42zM51 17h1v1H51zM54 17h1v1H54zM57 17h1v1H57zM59 17h1v1H59zM2 18h3v1H2zM6 18h1v1H6zM11 18h1v1H11zM14 18h3v1H14zM18 18h2v1H18zM21 18h1v1H21zM24 18h1v1H24zM28 18h3v1H28zM34 18h1v1H34zM36 18h3v1H36zM40 18h2v1H40zM46 18h8v1H46zM57 18h1v1H57zM60,18 h1v1H60zM0 19h3v1H0zM9 19h2v1H9zM12 19h1v1H12zM14 19h1v1H14zM16 19h3v1H16zM24 19h2v1H24zM27 19h1v1H27zM30 19h1v1H30zM33 19h1v1H33zM35 19h1v1H35zM40 19h1v1H40zM42 19h4v1H42zM47 19h1v1H47zM52 19h1v1H52zM54 19h4v1H54zM59,19 h2v1H59zM1 20h2v1H1zM4 20h1v1H4zM6 20h2v1H6zM9 20h5v1H9zM16 20h1v1H16zM18 20h4v1H18zM23 20h1v1H23zM29 20h1v1H29zM33 20h1v1H33zM36 20h1v1H36zM39 20h1v1H39zM41 20h2v1H41zM48 20h2v1H48zM52 20h3v1H52zM58 20h1v1H58zM60,20 h1v1H60zM2 21h4v1H2zM10 21h1v1H10zM14 21h2v1H14zM17 21h1v1H17zM22 21h1v1H22zM24 21h4v1H24zM30 21h4v1H30zM35 21h2v1H35zM39 21h1v1H39zM42 21h1v1H42zM45 21h1v1H45zM47 21h2v1H47zM51 21h1v1H51zM54 21h2v1H54zM57 21h1v1H57zM59 21h1v1H59zM1 22h2v1H1zM6 22h2v1H6zM10 22h1v1H10zM13 22h2v1H13zM18 22h2v1H18zM21 22h1v1H21zM24 22h1v1H24zM28 22h1v1H28zM30 22h1v1H30zM34 22h1v1H34zM36 22h4v1H36zM41 22h1v1H41zM46 22h1v1H46zM48 22h4v1H48zM53 22h1v1H53zM60,22 h1v1H60zM2 23h4v1H2zM8 23h1v1H8zM11 23h3v1H11zM15 23h1v1H15zM18 23h1v1H18zM24 23h2v1H24zM27 23h1v1H27zM30 23h2v1H30zM33 23h1v1H33zM35 23h1v1H35zM40 23h2v1H40zM43 23h3v1H43zM47 23h1v1H47zM51 23h1v1H51zM53 23h4v1H53zM59,23 h2v1H59zM0 24h2v1H0zM4 24h1v1H4zM6 24h1v1H6zM8 24h1v1H8zM11 24h2v1H11zM16 24h1v1H16zM18 24h4v1H18zM23 24h1v1H23zM29 24h1v1H29zM36 24h1v1H36zM39 24h1v1H39zM41 24h1v1H41zM43 24h1v1H43zM45 24h1v1H45zM48 24h3v1H48zM52 24h4v1H52zM57 24h2v1H57zM60,24 h1v1H60zM0 25h1v1H0zM2 25h1v1H2zM8 25h2v1H8zM11 25h1v1H11zM14 25h2v1H14zM18 25h1v1H18zM22 25h1v1H22zM24 25h4v1H24zM30 25h1v1H30zM32 25h2v1H32zM35 25h1v1H35zM41 25h3v1H41zM45 25h1v1H45zM48 25h2v1H48zM51 25h1v1H51zM53 25h5v1H53zM0 26h4v1H0zM6 26h1v1H6zM12 26h3v1H12zM18 26h2v1H18zM21 26h1v1H21zM23 26h2v1H23zM28 26h1v1H28zM30 26h1v1H30zM34 26h1v1H34zM36 26h4v1H36zM43 26h2v1H43zM46 26h1v1H46zM48 26h1v1H48zM50 26h2v1H50zM57 26h1v1H57zM59,26 h2v1H59zM1 27h1v1H1zM4 27h1v1H4zM7 27h1v1H7zM9 27h1v1H9zM11 27h3v1H11zM15 27h1v1H15zM18 27h1v1H18zM21 27h1v1H21zM24 27h1v1H24zM27 27h1v1H27zM30 27h1v1H30zM33 27h1v1H33zM35 27h1v1H35zM40 27h1v1H40zM42 27h4v1H42zM47 27h1v1H47zM51 27h1v1H51zM54 27h4v1H54zM1 28h1v1H1zM4 28h9v1H4zM14 28h1v1H14zM16 28h1v1H16zM18 28h4v1H18zM23 28h1v1H23zM28 28h5v1H28zM36 28h1v1H36zM39 28h1v1H39zM42 28h1v1H42zM48 28h2v1H48zM52 28h5v1H52zM58 28h1v1H58zM0 29h1v1H0zM2 29h1v1H2zM4 29h1v1H4zM8 29h3v1H8zM15 29h1v1H15zM17 29h1v1H17zM22 29h1v1H22zM24 29h5v1H24zM32 29h2v1H32zM35 29h2v1H35zM39 29h1v1H39zM42 29h1v1H42zM45 29h1v1H45zM47 29h2v1H47zM52 29h1v1H52zM56 29h2v1H56zM59 29h1v1H59zM0 30h1v1H0zM4 30h1v1H4zM6 30h1v1H6zM8 30h1v1H8zM10 30h1v1H10zM12 30h1v1H12zM18 30h2v1H18zM21 30h1v1H21zM23 30h2v1H23zM27 30h2v1H27zM30 30h1v1H30zM32 30h1v1H32zM34 30h1v1H34zM36 30h4v1H36zM41 30h1v1H41zM46 30h1v1H46zM48 30h1v1H48zM50 30h3v1H50zM54 30h1v1H54zM56 30h2v1H56zM60,30 h1v1H60zM0 31h2v1H0zM3 31h2v1H3zM8 31h4v1H8zM14 31h2v1H14zM17 31h2v1H17zM24 31h1v1H24zM27 31h2v1H27zM32 31h2v1H32zM35 31h1v1H35zM40 31h1v1H40zM42 31h4v1H42zM51 31h2v1H51zM56 31h2v1H56zM59,31 h2v1H59zM1 32h9v1H1zM11 32h1v1H11zM13 32h1v1H13zM18 32h4v1H18zM23 32h1v1H23zM28 32h5v1H28zM36 32h4v1H36zM41 32h2v1H41zM45 32h4v1H45zM52 32h5v1H52zM58 32h1v1H58zM60,32 h1v1H60zM1 33h1v1H1zM3 33h1v1H3zM10 33h6v1H10zM17 33h1v1H17zM22 33h1v1H22zM24 33h3v1H24zM29 33h1v1H29zM33 33h1v1H33zM35 33h3v1H35zM42 33h1v1H42zM51 33h1v1H51zM53 33h2v1H53zM57 33h1v1H57zM59 33h1v1H59zM0 34h1v1H0zM4 34h1v1H4zM6 34h3v1H6zM14 34h1v1H14zM18 34h2v1H18zM21 34h1v1H21zM23 34h2v1H23zM27 34h2v1H27zM30 34h3v1H30zM34 34h1v1H34zM36 34h4v1H36zM41 34h1v1H41zM45 34h3v1H45zM49 34h3v1H49zM54 34h1v1H54zM57 34h1v1H57zM60,34 h1v1H60zM0 35h3v1H0zM5 35h1v1H5zM9 35h2v1H9zM15 35h1v1H15zM17 35h2v1H17zM24 35h1v1H24zM27 35h1v1H27zM30 35h1v1H30zM33 35h1v1H33zM35 35h1v1H35zM40 35h1v1H40zM42 35h4v1H42zM47 35h1v1H47zM52 35h2v1H52zM57 35h1v1H57zM59,35 h2v1H59zM0 36h2v1H0zM3 36h1v1H3zM5 36h3v1H5zM10 36h3v1H10zM16 36h1v1H16zM18 36h4v1H18zM23 36h1v1H23zM27 36h2v1H27zM30 36h2v1H30zM33 36h1v1H33zM36 36h1v1H36zM39 36h1v1H39zM42 36h1v1H42zM45 36h1v1H45zM48 36h2v1H48zM51 36h2v1H51zM54 36h3v1H54zM58 36h1v1H58zM60,36 h1v1H60zM0 37h3v1H0zM5 37h1v1H5zM8 37h2v1H8zM12 37h1v1H12zM15 37h1v1H15zM17 37h1v1H17zM22 37h1v1H22zM24 37h3v1H24zM29 37h1v1H29zM33 37h1v1H33zM35 37h2v1H35zM39 37h1v1H39zM42 37h2v1H42zM45 37h1v1H45zM48 37h1v1H48zM51 37h1v1H51zM53 37h2v1H53zM58 37h2v1H58zM0 38h1v1H0zM2 38h2v1H2zM5 38h4v1H5zM11 38h1v1H11zM13 38h2v1H13zM17 38h1v1H17zM21 38h1v1H21zM23 38h2v1H23zM27 38h2v1H27zM30 38h3v1H30zM34 38h1v1H34zM36 38h4v1H36zM41 38h1v1H41zM46 38h1v1H46zM48 38h3v1H48zM52 38h1v1H52zM54 38h1v1H54zM57 38h2v1H57zM60,38 h1v1H60zM0 39h2v1H0zM12 39h1v1H12zM14 39h2v1H14zM24 39h2v1H24zM27 39h1v1H27zM30 39h1v1H30zM33 39h1v1H33zM35 39h1v1H35zM40 39h3v1H40zM44 39h2v1H44zM47 39h1v1H47zM49 39h2v1H49zM53 39h1v1H53zM60,39 h1v1H60zM2 40h5v1H2zM10 40h3v1H10zM16 40h2v1H16zM19 40h3v1H19zM23 40h1v1H23zM27 40h2v1H27zM30 40h2v1H30zM35 40h2v1H35zM39 40h1v1H39zM42 40h1v1H42zM48 40h4v1H48zM54 40h5v1H54zM60,40 h1v1H60zM0 41h1v1H0zM2 41h1v1H2zM11 41h1v1H11zM13 41h3v1H13zM18 41h1v1H18zM22 41h1v1H22zM24 41h3v1H24zM29 41h1v1H29zM33 41h1v1H33zM36 41h1v1H36zM39 41h1v1H39zM41 41h2v1H41zM45 41h1v1H45zM47 41h3v1H47zM51 41h1v1H51zM53 41h2v1H53zM57 41h1v1H57zM59 41h1v1H59zM2 42h1v1H2zM6 42h8v1H6zM15 42h1v1H15zM18 42h2v1H18zM21 42h1v1H21zM24 42h1v1H24zM27 42h1v1H27zM30 42h3v1H30zM34 42h6v1H34zM43 42h1v1H43zM46 42h1v1H46zM48 42h1v1H48zM50 42h3v1H50zM54 42h2v1H54zM57 42h1v1H57zM60,42 h1v1H60zM0 43h1v1H0zM8 43h2v1H8zM11 43h2v1H11zM15 43h1v1H15zM18 43h1v1H18zM21 43h1v1H21zM24 43h2v1H24zM27 43h1v1H27zM29 43h2v1H29zM33 43h1v1H33zM35 43h1v1H35zM40 43h1v1H40zM42 43h4v1H42zM47 43h1v1H47zM49 43h2v1H49zM53 43h1v1H53zM57 43h1v1H57zM59,43 h2v1H59zM0 44h2v1H0zM4 44h1v1H4zM6 44h2v1H6zM9 44h1v1H9zM14 44h1v1H14zM16 44h1v1H16zM18 44h4v1H18zM23 44h1v1H23zM27 44h2v1H27zM30 44h2v1H30zM36 44h1v1H36zM39 44h1v1H39zM41 44h2v1H41zM48 44h2v1H48zM51 44h4v1H51zM56 44h1v1H56zM58 44h1v1H58zM60,44 h1v1H60zM0 45h3v1H0zM4 45h1v1H4zM10 45h3v1H10zM14 45h2v1H14zM17 45h1v1H17zM22 45h1v1H22zM24 45h3v1H24zM29 45h1v1H29zM33 45h1v1H33zM36 45h1v1H36zM42 45h1v1H42zM45 45h1v1H45zM48 45h1v1H48zM51 45h1v1H51zM53 45h3v1H53zM57 45h1v1H57zM59 45h1v1H59zM3 46h2v1H3zM6 46h1v1H6zM12 46h2v1H12zM18 46h1v1H18zM21 46h1v1H21zM24 46h1v1H24zM27 46h1v1H27zM30 46h3v1H30zM34 46h1v1H34zM36 46h4v1H36zM41 46h1v1H41zM46 46h1v1H46zM48 46h8v1H48zM60,46 h1v1H60zM2 47h4v1H2zM7 47h2v1H7zM11 47h1v1H11zM15 47h1v1H15zM17 47h2v1H17zM24 47h2v1H24zM27 47h1v1H27zM29 47h2v1H29zM33 47h1v1H33zM35 47h1v1H35zM37 47h1v1H37zM39 47h2v1H39zM42 47h3v1H42zM57 47h1v1H57zM60,47 h1v1H60zM0 48h2v1H0zM3 48h5v1H3zM9 48h4v1H9zM14 48h2v1H14zM18 48h4v1H18zM23 48h1v1H23zM27 48h2v1H27zM30 48h1v1H30zM33 48h1v1H33zM36 48h2v1H36zM42 48h1v1H42zM47 48h2v1H47zM51 48h2v1H51zM54 48h3v1H54zM58 48h1v1H58zM60,48 h1v1H60zM1 49h1v1H1zM7 49h1v1H7zM13 49h2v1H13zM16 49h2v1H16zM22 49h1v1H22zM24 49h3v1H24zM29 49h1v1H29zM33 49h1v1H33zM35 49h3v1H35zM39 49h1v1H39zM42 49h2v1H42zM47 49h1v1H47zM51 49h1v1H51zM54 49h1v1H54zM57 49h1v1H57zM59 49h1v1H59zM2 50h7v1H2zM12 50h1v1H12zM14 50h3v1H14zM18 50h2v1H18zM21 50h1v1H21zM24 50h1v1H24zM27 50h1v1H27zM30 50h3v1H30zM34 50h1v1H34zM36 50h1v1H36zM38 50h1v1H38zM41 50h1v1H41zM45 50h3v1H45zM49 50h3v1H49zM54 50h1v1H54zM60,50 h1v1H60zM0 51h3v1H0zM4 51h1v1H4zM8 51h1v1H8zM11 51h2v1H11zM16 51h3v1H16zM21 51h1v1H21zM24 51h2v1H24zM27 51h1v1H27zM30 51h1v1H30zM33 51h1v1H33zM35 51h1v1H35zM40 51h1v1H40zM42 51h4v1H42zM47 51h1v1H47zM52 51h2v1H52zM57 51h1v1H57zM59,51 h2v1H59zM0 52h4v1H0zM6 52h3v1H6zM10 52h1v1H10zM12 52h1v1H12zM14 52h1v1H14zM16 52h1v1H16zM18 52h4v1H18zM23 52h1v1H23zM27 52h6v1H27zM36 52h1v1H36zM39 52h1v1H39zM41 52h2v1H41zM45 52h1v1H45zM48 52h2v1H48zM51 52h6v1H51zM58 52h1v1H58zM60,52 h1v1H60zM8 53h1v1H8zM10 53h1v1H10zM13 53h3v1H13zM17 53h1v1H17zM22 53h1v1H22zM24 53h3v1H24zM28 53h1v1H28zM32 53h2v1H32zM36 53h1v1H36zM42 53h2v1H42zM45 53h1v1H45zM47 53h2v1H47zM52 53h1v1H52zM56 53h4v1H56zM0 54h7v1H0zM8 54h4v1H8zM13 54h1v1H13zM15 54h1v1H15zM18 54h1v1H18zM21 54h1v1H21zM23 54h2v1H23zM28 54h1v1H28zM30 54h1v1H30zM32 54h1v1H32zM34 54h1v1H34zM36 54h4v1H36zM41 54h1v1H41zM46 54h1v1H46zM48 54h5v1H48zM54 54h1v1H54zM56 54h3v1H56zM60,54 h1v1H60zM0 55h1v1H0zM6 55h1v1H6zM10 55h2v1H10zM13 55h1v1H13zM15 55h1v1H15zM17 55h2v1H17zM21 55h1v1H21zM24 55h2v1H24zM27 55h2v1H27zM32 55h2v1H32zM35 55h1v1H35zM40 55h1v1H40zM42 55h1v1H42zM44 55h2v1H44zM47 55h1v1H47zM49 55h2v1H49zM52 55h1v1H52zM56 55h1v1H56zM59,55 h2v1H59zM0 56h1v1H0zM2 56h3v1H2zM6 56h1v1H6zM8 56h1v1H8zM12 56h2v1H12zM16 56h1v1H16zM18 56h4v1H18zM23 56h1v1H23zM27 56h7v1H27zM35 56h3v1H35zM39 56h1v1H39zM41 56h3v1H41zM45 56h1v1H45zM48 56h2v1H48zM52 56h7v1H52zM60,56 h1v1H60zM0 57h1v1H0zM2 57h3v1H2zM6 57h1v1H6zM8 57h2v1H8zM13 57h3v1H13zM17 57h2v1H17zM22 57h1v1H22zM24 57h4v1H24zM30 57h2v1H30zM33 57h1v1H33zM36 57h1v1H36zM39 57h1v1H39zM41 57h3v1H41zM45 57h1v1H45zM47 57h2v1H47zM52 57h1v1H52zM54 57h4v1H54zM60,57 h1v1H60zM0 58h1v1H0zM2 58h3v1H2zM6 58h1v1H6zM8 58h1v1H8zM10 58h4v1H10zM15 58h1v1H15zM18 58h2v1H18zM21 58h1v1H21zM24 58h1v1H24zM27 58h1v1H27zM29 58h1v1H29zM34 58h2v1H34zM37 58h3v1H37zM41 58h1v1H41zM46 58h1v1H46zM48 58h1v1H48zM50 58h2v1H50zM54 58h1v1H54zM60,58 h1v1H60zM0 59h1v1H0zM6 59h1v1H6zM8 59h1v1H8zM10 59h1v1H10zM12 59h1v1H12zM15 59h1v1H15zM17 59h2v1H17zM21 59h1v1H21zM24 59h1v1H24zM28 59h1v1H28zM30 59h4v1H30zM35 59h1v1H35zM40 59h1v1H40zM42 59h4v1H42zM47 59h1v1H47zM51 59h1v1H51zM54 59h1v1H54zM57 59h1v1H57zM60,59 h1v1H60zM0 60h7v1H0zM8 60h1v1H8zM10 60h2v1H10zM13 60h2v1H13zM16 60h1v1H16zM18 60h4v1H18zM23 60h1v1H23zM27 60h1v1H27zM29 60h2v1H29zM33 60h1v1H33zM36 60h2v1H36zM39 60h1v1H39zM41 60h2v1H41zM45 60h1v1H45zM48 60h2v1H48zM51 60h1v1H51zM53 60h1v1H53zM58,60 h3v1H58z" shape-rendering="crispEdges"/></svg>