<svg xmlns="http://www.w3.org/2000/svg" height="300" width="300" viewBox="0 0 65 65" role="img" aria-label="QR code containing user picks"><path fill="#FFFFFF" d="M0,0 h65v65H0z" shape-rendering="crispEdges"/><path fill="#000000" d="M0 0h7v1H0zM9 0h2v1H9zM13 0h1v1H13zM16 0h2v1H16zM22 0h1v1H22zM24 0h4v1H24zM30 0h1v1H30zM33 0h1v1H33zM35 0h2v1H35zM39 0h1v1H39zM42 0h1v1H42zM45 0h1v1H45zM47 0h2v1H47zM51 0h1v1H51zM53 0h1v1H53zM55 0h1v1H55zM58,0 h7v1H58zM0 1h1v1H0zM6 1h1v1H6zM8 1h4v1H8zM15 1h3v1H15zM22 1h5v1H22zM29 1h1v1H29zM34 1h1v1H34zM36 1h4v1H36zM41 1h1v1H41zM46 1h1v1H46zM48 1h4v1H48zM53 1h1v1H53zM56 1h1v1H56zM58 1h1v1H58zM64,1 h1v1H64zM0 2h1v1H0zM2 2h3v1H2zM6 2h1v1H6zM10 2h3v1H10zM15 2h2v1H15zM21 2h2v1H21zM24 2h1v1H24zM26 2h2v1H26zM30 2h1v1H30zM34 2h2v1H34zM37 2h2v1H37zM40 2h1v1H40zM42 2h3v1H42zM47 2h1v1H47zM52 2h1v1H52zM54 2h1v1H54zM56 2h1v1H56zM58 2h1v1H58zM60 2h3v1H60zM64,2 h1v1H64zM0 3h1v1H0zM2 3h3v1H2zM6 3h1v1H6zM8 3h2v1H8zM11 3h4v1H11zM17 3h1v1H17zM19 3h2v1H19zM22 3h2v1H22zM25 3h2v1H25zM28 3h6v1H28zM36 3h1v1H36zM39 3h1v1H39zM42 3h1v1H42zM45 3h1v1H45zM48 3h1v1H48zM50 3h2v1H50zM53 3h3v1H53zM58 3h1v1H58zM60 3h3v1H60zM64,3 h1v1H64zM0 4h1v1H0zM2 4h3v1H2zM6 4h1v1H6zM16 4h1v1H16zM18 4h1v1H18zM21 4h1v1H21zM24 4h1v1H24zM27 4h1v1H27zM30 4h5v1H30zM36 4h2v1H36zM41 4h3v1H41zM48 4h2v1H48zM51 4h1v1H51zM53 4h1v1H53zM56 4h1v1H56zM58 4h1v1H58zM60 4h3v1H60zM64,4 h1v1H64zM0 5h1v1H0zM6 5h1v1H6zM8 5h1v1H8zM10 5h1v1H10zM13 5h2v1H13zM16 5h1v1H16zM18 5h2v1H18zM21 5h1v1H21zM24 5h1v1H24zM30 5h1v1H30zM34 5h1v1H34zM36 5h1v1H36zM39 5h1v1H39zM41 5h1v1H41zM45 5h2v1H45zM48 5h1v1H48zM50 5h2v1H50zM54 5h1v1H54zM58 5h1v1H58zM64,5 h1v1H64zM0 6h7v1H0zM8 6h1v1H8zM10 6h1v1H10zM12 6h1v1H12zM14 6h1v1H14zM16 6h1v1H16zM18 6h1v1H18zM20 6h1v1H20zM22 6h1v1H22zM24 6h1v1H24zM26 6h1v1H26zM28 6h1v1H28zM30 6h1v1H30zM32 6h1v1H32zM34 6h1v1H34zM36 6h1v1H36zM38 6h1v1H38zM40 6h1v1H40zM42 6h1v1H42zM44 6h1v1H44zM46 6h1v1H46zM48 6h1v1H48zM50 6h1v1H50zM52 6h1v1H52zM54 6h1v1H54zM56 6h1v1H56zM58,6 h7v1H58zM10 7h1v1H10zM12 7h1v1H12zM14 7h2v1H14zM18 7h1v1H18zM24 7h2v1H24zM27 7h1v1H27zM29 7h2v1H29zM34 7h2v1H34zM40 7h1v1H40zM42 7h4v1H42zM47 7h1v1H47zM52 7h1v1H52zM54 7h1v1H54zM0 8h5v1H0zM6 8h4v1H6zM11 8h2v1H11zM14 8h1v1H14zM18 8h4v1H18zM23 8h1v1H23zM28 8h7v1H28zM36 8h1v1H36zM39 8h1v1H39zM42 8h1v1H42zM48 8h2v1H48zM51 8h1v1H51zM53 8h5v1H53zM59 8h1v1H59zM61 8h1v1H61zM63 8h1v1H63zM1 9h1v1H1zM4 9h2v1H4zM9 9h1v1H9zM13 9h1v1H13zM17 9h1v1H17zM22 9h1v1H22zM24 9h4v1H24zM30 9h1v1H30zM32 9h2v1H32zM36 9h1v1H36zM39 9h1v1H39zM42 9h2v1H42zM45 9h1v1H45zM47 9h2v1H47zM54 9h1v1H54zM57 9h1v1H57zM59 9h2v1H59zM64,9 h1v1H64zM0 10h1v1H0zM2 10h1v1H2zM5 10h3v1H5zM10 10h1v1H10zM15 10h1v1H15zM18 10h1v1H18zM21 10h1v1H21zM23 10h2v1H23zM27 10h1v1H27zM29 10h6v1H29zM36 10h4v1H36zM41 10h1v1H41zM46 10h1v1H46zM48 10h4v1H48zM53 10h1v1H53zM55 10h1v1H55zM58 10h1v1H58zM60 10h2v1H60zM63 10h1v1H63zM3 11h1v1H3zM7 11h2v1H7zM11 11h1v1H11zM14 11h1v1H14zM17 11h2v1H17zM21 11h1v1H21zM24 11h1v1H24zM27 11h1v1H27zM30 11h4v1H30zM39 11h2v1H39zM42 11h4v1H42zM52 11h1v1H52zM54 11h1v1H54zM59 11h1v1H59zM63 11h1v1H63zM0 12h1v1H0zM2 12h2v1H2zM5 12h2v1H5zM9 12h2v1H9zM13 12h2v1H13zM18 12h2v1H18zM21 12h1v1H21zM23 12h2v1H23zM29 12h1v1H29zM35 12h3v1H35zM41 12h3v1H41zM47 12h3v1H47zM54 12h3v1H54zM60 12h4v1H60zM1 13h3v1H1zM7 13h2v1H7zM12 13h1v1H12zM14 13h1v1H14zM17 13h1v1H17zM22 13h1v1H22zM24 13h4v1H24zM30 13h2v1H30zM33 13h1v1H33zM35 13h2v1H35zM42 13h1v1H42zM45 13h1v1H45zM47 13h1v1H47zM52 13h1v1H52zM54 13h1v1H54zM59 13h2v1H59zM63,13 h2v1H63zM0 14h2v1H0zM3 14h2v1H3zM6 14h1v1H6zM8 14h1v1H8zM10 14h2v1H10zM13 14h2v1H13zM16 14h1v1H16zM18 14h2v1H18zM21 14h1v1H21zM23 14h2v1H23zM29 14h2v1H29zM34 14h1v1H34zM37 14h3v1H37zM41 14h1v1H41zM43 14h1v1H43zM46 14h2v1H46zM49 14h2v1H49zM52 14h2v1H52zM57 14h2v1H57zM60 14h2v1H60zM0 15h3v1H0zM7 15h1v1H7zM11 15h2v1H11zM18 15h1v1H18zM24 15h2v1H24zM27 15h1v1H27zM30 15h4v1H30zM35 15h1v1H35zM40 15h1v1H40zM42 15h4v1H42zM47 15h1v1H47zM52 15h1v1H52zM54 15h1v1H54zM57 15h1v1H57zM59 15h1v1H59zM63 15h1v1H63zM0 16h1v1H0zM2 16h1v1H2zM4 16h4v1H4zM10 16h1v1H10zM13 16h4v1H13zM18 16h4v1H18zM23 16h1v1H23zM28 16h3v1H28zM36 16h2v1H36zM39 16h1v1H39zM41 16h2v1H41zM48 16h2v1H48zM51 16h1v1H51zM53 16h5v1H53zM60 16h3v1H60zM3 17h1v1H3zM10 17h1v1H10zM17 17h1v1H17zM22 17h1v1H22zM24 17h4v1H24zM30 17h2v1H30zM33 17h1v1H33zM35 17h2v1H35zM39 17h1v1H39zM42 17h1v1H42zM45 17h1v1H45zM48 17h1v1H48zM51 17h1v1H51zM54 17h1v1H54zM57 17h1v1H57zM59 17h2v1H59zM64,17 h1v1H64zM1 18h1v1H1zM4 18h3v1H4zM9 18h1v1H9zM12 18h1v1H12zM14 18h1v1H14zM16 18h1v1H16zM18 18h1v1H18zM21 18h1v1H21zM23 18h2v1H23zM29 18h2v1H29zM34 18h1v1H34zM36 18h4v1H36zM41 18h1v1H41zM46 18h1v1H46zM48 18h4v1H48zM53 18h1v1H53zM55 18h1v1H55zM58 18h1v1H58zM60 18h2v1H60zM63 18h1v1H63zM1 19h2v1H1zM4 19h2v1H4zM8 19h1v1H8zM10 19h1v1H10zM13 19h1v1H13zM15 19h4v1H15zM24 19h2v1H24zM27 19h1v1H27zM30 19h4v1H30zM35 19h1v1H35zM40 19h1v1H40zM42 19h4v1H42zM47 19h1v1H47zM49 19h1v1H49zM52 19h2v1H52zM57 19h1v1H57zM59 19h1v1H59zM61 19h1v1H61zM3 20h10v1H3zM18 20h4v1H18zM23 20h1v1H23zM28 20h2v1H28zM36 20h1v1H36zM39 20h1v1H39zM48 20h2v1H48zM51 20h1v1H51zM53 20h1v1H53zM56 20h1v1H56zM59 20h2v1H59zM62 20h2v1H62zM2 21h4v1H2zM8 21h4v1H8zM13 21h3v1H13zM17 21h2v1H17zM24 21h2v1H24zM27 21h1v1H27zM30 21h4v1H30zM36 21h2v1H36zM41 21h2v1H41zM48 21h2v1H48zM53 21h3v1H53zM57 21h1v1H57zM59 21h2v1H59zM64,21 h1v1H64zM1 22h2v1H1zM6 22h3v1H6zM13 22h2v1H13zM18 22h2v1H18zM21 22h1v1H21zM23 22h2v1H23zM27 22h1v1H27zM29 22h2v1H29zM32 22h2v1H32zM36 22h1v1H36zM38 22h2v1H38zM46 22h1v1H46zM48 22h1v1H48zM50 22h2v1H50zM56 22h1v1H56zM58 22h1v1H58zM60 22h1v1H60zM63 22h1v1H63zM0 23h1v1H0zM7 23h1v1H7zM9 23h1v1H9zM11 23h2v1H11zM15 23h1v1H15zM17 23h2v1H17zM21 23h1v1H21zM24 23h1v1H24zM27 23h1v1H27zM30 23h2v1H30zM34 23h2v1H34zM40 23h1v1H40zM42 23h4v1H42zM47 23h1v1H47zM52 23h1v1H52zM54 23h4v1H54zM59 23h1v1H59zM1 24h2v1H1zM6 24h4v1H6zM16 24h1v1H16zM18 24h4v1H18zM23 24h1v1H23zM28 24h2v1H28zM33 24h2v1H33zM36 24h1v1H36zM39 24h1v1H39zM42 24h1v1H42zM45 24h1v1H45zM48 24h2v1H48zM51 24h1v1H51zM54 24h4v1H54zM60 24h4v1H60zM0 25h1v1H0zM2 25h4v1H2zM7 25h1v1H7zM10 25h3v1H10zM15 25h1v1H15zM17 25h1v1H17zM22 25h1v1H22zM24 25h4v1H24zM30 25h2v1H30zM35 25h2v1H35zM42 25h1v1H42zM45 25h1v1H45zM48 25h1v1H48zM54 25h1v1H54zM57 25h1v1H57zM60 25h1v1H60zM64,25 h1v1H64zM5 26h2v1H5zM9 26h1v1H9zM11 26h5v1H11zM18 26h2v1H18zM21 26h1v1H21zM24 26h1v1H24zM30 26h1v1H30zM33 26h2v1H33zM36 26h4v1H36zM41 26h1v1H41zM46 26h1v1H46zM48 26h4v1H48zM53 26h1v1H53zM55 26h1v1H55zM58 26h1v1H58zM60 26h1v1H60zM63 26h1v1H63zM0 27h1v1H0zM2 27h2v1H2zM9 27h1v1H9zM11 27h1v1H11zM14 27h2v1H14zM18 27h1v1H18zM24 27h1v1H24zM27 27h1v1H27zM30 27h4v1H30zM39 27h2v1H39zM42 27h4v1H42zM47 27h1v1H47zM51 27h2v1H51zM54 27h1v1H54zM59 27h1v1H59zM0 28h1v1H0zM2 28h6v1H2zM9 28h1v1H9zM12 28h2v1H12zM15 28h1v1H15zM18 28h1v1H18zM21 28h1v1H21zM24 28h1v1H24zM27 28h1v1H27zM29 28h1v1H29zM35 28h3v1H35zM42 28h2v1H42zM45 28h1v1H45zM48 28h1v1H48zM51 28h1v1H51zM53 28h4v1H53zM60 28h4v1H60zM1 29h1v1H1zM3 29h1v1H3zM5 29h1v1H5zM7 29h2v1H7zM13 29h1v1H13zM16 29h2v1H16zM19 29h2v1H19zM22 29h2v1H22zM25 29h2v1H25zM28 29h2v1H28zM31 29h1v1H31zM33 29h1v1H33zM35 29h2v1H35zM39 29h1v1H39zM42 29h1v1H42zM45 29h1v1H45zM51 29h1v1H51zM54 29h1v1H54zM60 29h1v1H60zM63,29 h2v1H63zM0 30h9v1H0zM10 30h2v1H10zM13 30h1v1H13zM15 30h2v1H15zM18 30h1v1H18zM20 30h2v1H20zM27 30h8v1H27zM36 30h4v1H36zM41 30h1v1H41zM44 30h1v1H44zM46 30h1v1H46zM48 30h3v1H48zM52 30h2v1H52zM56 30h6v1H56zM2 31h1v1H2zM4 31h1v1H4zM8 31h1v1H8zM10 31h1v1H10zM14 31h1v1H14zM16 31h6v1H16zM23 31h1v1H23zM28 31h1v1H28zM30 31h1v1H30zM34 31h2v1H34zM40 31h1v1H40zM42 31h4v1H42zM47 31h1v1H47zM52 31h1v1H52zM54 31h1v1H54zM56 31h1v1H56zM60 31h1v1H60zM64,31 h1v1H64zM0 32h1v1H0zM3 32h2v1H3zM6 32h1v1H6zM8 32h1v1H8zM10 32h1v1H10zM12 32h3v1H12zM16 32h1v1H16zM18 32h4v1H18zM23 32h1v1H23zM28 32h3v1H28zM32 32h1v1H32zM34 32h1v1H34zM36 32h1v1H36zM39 32h1v1H39zM41 32h2v1H41zM45 32h1v1H45zM48 32h2v1H48zM51 32h1v1H51zM54 32h1v1H54zM56 32h1v1H56zM58 32h1v1H58zM60,32 h5v1H60zM0 33h1v1H0zM4 33h1v1H4zM8 33h4v1H8zM14 33h2v1H14zM17 33h1v1H17zM22 33h1v1H22zM24 33h4v1H24zM29 33h2v1H29zM34 33h3v1H34zM39 33h1v1H39zM42 33h1v1H42zM45 33h1v1H45zM47 33h2v1H47zM54 33h1v1H54zM56 33h1v1H56zM60 33h3v1H60zM64,33 h1v1H64zM0 34h1v1H0zM3 34h9v1H3zM13 34h1v1H13zM17 34h1v1H17zM22 34h1v1H22zM24 34h3v1H24zM30 34h5v1H30zM36 34h4v1H36zM41 34h1v1H41zM46 34h1v1H46zM48 34h4v1H48zM53 34h1v1H53zM55 34h6v1H55zM62 34h2v1H62zM0 35h2v1H0zM3 35h3v1H3zM9 35h1v1H9zM13 35h1v1H13zM15 35h1v1H15zM21 35h2v1H21zM24 35h1v1H24zM26 35h2v1H26zM30 35h1v1H30zM34 35h2v1H34zM38 35h1v1H38zM40 35h1v1H40zM43 35h2v1H43zM47 35h1v1H47zM52 35h2v1H52zM55 35h1v1H55zM57 35h2v1H57zM60 35h2v1H60zM1 36h1v1H1zM4 36h1v1H4zM6 36h3v1H6zM10 36h3v1H10zM14 36h1v1H14zM16 36h2v1H16zM19 36h2v1H19zM22 36h2v1H22zM25 36h2v1H25zM28 36h1v1H28zM30 36h4v1H30zM36 36h1v1H36zM39 36h1v1H39zM41 36h2v1H41zM45 36h1v1H45zM48 36h2v1H48zM51 36h1v1H51zM53 36h2v1H53zM56 36h2v1H56zM59 36h1v1H59zM62 36h2v1H62zM0 37h2v1H0zM3 37h1v1H3zM8 37h1v1H8zM11 37h1v1H11zM15 37h1v1H15zM18 37h1v1H18zM21 37h1v1H21zM24 37h1v1H24zM27 37h1v1H27zM33 37h1v1H33zM36 37h2v1H36zM41 37h3v1H41zM47 37h3v1H47zM54 37h1v1H54zM57 37h1v1H57zM60 37h1v1H60zM64,37 h1v1H64zM0 38h3v1H0zM4 38h4v1H4zM9 38h1v1H9zM12 38h1v1H12zM14 38h1v1H14zM18 38h1v1H18zM21 38h1v1H21zM23 38h2v1H23zM29 38h3v1H29zM33 38h1v1H33zM36 38h1v1H36zM38 38h2v1H38zM45 38h2v1H45zM48 38h1v1H48zM50 38h2v1H50zM57 38h1v1H57zM60 38h1v1H60zM63 38h1v1H63zM0 39h5v1H0zM7 39h3v1H7zM12 39h4v1H12zM17 39h2v1H17zM24 39h1v1H24zM27 39h1v1H27zM34 39h2v1H34zM40 39h1v1H40zM42 39h4v1H42zM47 39h1v1H47zM52 39h1v1H52zM54 39h2v1H54zM58 39h1v1H58zM60 39h1v1H60zM0 40h1v1H0zM3 40h1v1H3zM5 40h5v1H5zM11 40h1v1H11zM13 40h1v1H13zM16 40h1v1H16zM18 40h4v1H18zM23 40h1v1H23zM28 40h1v1H28zM30 40h3v1H30zM34 40h1v1H34zM36 40h2v1H36zM39 40h1v1H39zM41 40h2v1H41zM45 40h1v1H45zM48 40h1v1H48zM51 40h1v1H51zM53 40h2v1H53zM57 40h1v1H57zM59 40h1v1H59zM61 40h3v1H61zM1 41h1v1H1zM3 41h1v1H3zM5 41h1v1H5zM7 41h3v1H7zM11 41h1v1H11zM13 41h1v1H13zM15 41h1v1H15zM17 41h1v1H17zM22 41h1v1H22zM24 41h4v1H24zM33 41h2v1H33zM36 41h1v1H36zM39 41h1v1H39zM42 41h2v1H42zM45 41h1v1H45zM47 41h2v1H47zM54 41h3v1H54zM59 41h2v1H59zM64,41 h1v1H64zM1 42h4v1H1zM6 42h4v1H6zM12 42h1v1H12zM15 42h1v1H15zM18 42h1v1H18zM21 42h1v1H21zM23 42h2v1H23zM27 42h1v1H27zM29 42h3v1H29zM34 42h1v1H34zM36 42h4v1H36zM41 42h1v1H41zM46 42h1v1H46zM48 42h4v1H48zM53 42h1v1H53zM55 42h3v1H55zM59 42h1v1H59zM61 42h1v1H61zM63 42h1v1H63zM0 43h1v1H0zM2 43h3v1H2zM7 43h1v1H7zM11 43h3v1H11zM15 43h1v1H15zM18 43h1v1H18zM24 43h2v1H24zM27 43h1v1H27zM31 43h3v1H31zM40 43h1v1H40zM42 43h1v1H42zM44 43h2v1H44zM47 43h1v1H47zM51 43h2v1H51zM54 43h2v1H54zM58 43h1v1H58zM60 43h1v1H60zM63 43h1v1H63zM0 44h1v1H0zM2 44h2v1H2zM6 44h1v1H6zM9 44h2v1H9zM12 44h2v1H12zM18 44h2v1H18zM21 44h1v1H21zM23 44h2v1H23zM30 44h1v1H30zM33 44h1v1H33zM35 44h3v1H35zM41 44h3v1H41zM47 44h3v1H47zM53 44h2v1H53zM57 44h1v1H57zM59 44h1v1H59zM61 44h3v1H61zM1 45h3v1H1zM8 45h4v1H8zM14 45h2v1H14zM17 45h1v1H17zM22 45h1v1H22zM24 45h4v1H24zM30 45h3v1H30zM34 45h3v1H34zM42 45h2v1H42zM45 45h1v1H45zM47 45h2v1H47zM51 45h2v1H51zM54 45h1v1H54zM57 45h1v1H57zM60 45h1v1H60zM63 45h1v1H63zM0 46h1v1H0zM2 46h1v1H2zM4 46h1v1H4zM6 46h3v1H6zM10 46h1v1H10zM12 46h2v1H12zM18 46h2v1H18zM21 46h1v1H21zM23 46h2v1H23zM29 46h2v1H29zM32 46h1v1H32zM35 46h1v1H35zM37 46h5v1H37zM43 46h1v1H43zM46 46h1v1H46zM48 46h3v1H48zM53 46h1v1H53zM56 46h2v1H56zM59 46h3v1H59zM0 47h1v1H0zM2 47h1v1H2zM7 47h1v1H7zM13 47h1v1H13zM15 47h1v1H15zM17 47h2v1H17zM24 47h2v1H24zM27 47h1v1H27zM31 47h5v1H31zM40 47h1v1H40zM42 47h4v1H42zM47 47h1v1H47zM52 47h1v1H52zM54 47h2v1H54zM58 47h1v1H58zM60 47h1v1H60zM0 48h3v1H0zM4 48h1v1H4zM6 48h1v1H6zM8 48h1v1H8zM11 48h4v1H11zM16 48h1v1H16zM18 48h4v1H18zM23 48h1v1H23zM28 48h1v1H28zM30 48h4v1H30zM36 48h2v1H36zM39 48h1v1H39zM42 48h1v1H42zM45 48h1v1H45zM48 48h2v1H48zM51 48h1v1H51zM53 48h2v1H53zM58 48h2v1H58zM61 48h3v1H61zM2 49h2v1H2zM8 49h2v1H8zM11 49h2v1H11zM15 49h1v1H15zM17 49h1v1H17zM22 49h1v1H22zM24 49h4v1H24zM35 49h2v1H35zM42 49h2v1H42zM45 49h1v1H45zM47 49h2v1H47zM51 49h1v1H51zM54 49h1v1H54zM60 49h1v1H60zM62 49h1v1H62zM64,49 h1v1H64zM1 50h1v1H1zM3 50h1v1H3zM6 50h1v1H6zM9 50h6v1H9zM18 50h2v1H18zM21 50h1v1H21zM23 50h2v1H23zM27 50h1v1H27zM30 50h2v1H30zM33 50h1v1H33zM36 50h4v1H36zM41 50h1v1H41zM46 50h1v1H46zM48 50h4v1H48zM53 50h1v1H53zM56 50h1v1H56zM59 50h2v1H59zM62 50h2v1H62zM1 51h1v1H1zM4 51h2v1H4zM9 51h1v1H9zM11 51h3v1H11zM15 51h1v1H15zM17 51h2v1H17zM24 51h2v1H24zM27 51h1v1H27zM34 51h2v1H34zM37 51h2v1H37zM40 51h2v1H40zM43 51h3v1H43zM47 51h1v1H47zM49 51h1v1H49zM52 51h2v1H52zM55 51h1v1H55zM57 51h2v1H57zM60 51h2v1H60zM63 51h1v1H63zM1 52h1v1H1zM4 52h1v1H4zM6 52h3v1H6zM10 52h2v1H10zM13 52h2v1H13zM16 52h1v1H16zM18 52h4v1H18zM23 52h1v1H23zM28 52h1v1H28zM30 52h4v1H30zM36 52h4v1H36zM48 52h1v1H48zM51 52h1v1H51zM53 52h1v1H53zM56 52h2v1H56zM59 52h1v1H59zM62 52h2v1H62zM4 53h2v1H4zM8 53h3v1H8zM12 53h1v1H12zM15 53h1v1H15zM17 53h2v1H17zM24 53h2v1H24zM27 53h1v1H27zM30 53h1v1H30zM33 53h1v1H33zM36 53h2v1H36zM41 53h2v1H41zM45 53h1v1H45zM47 53h2v1H47zM53 53h2v1H53zM60 53h1v1H60zM64,53 h1v1H64zM2 54h2v1H2zM5 54h4v1H5zM10 54h1v1H10zM12 54h2v1H12zM18 54h1v1H18zM21 54h1v1H21zM24 54h1v1H24zM29 54h2v1H29zM33 54h1v1H33zM36 54h4v1H36zM46 54h1v1H46zM48 54h1v1H48zM50 54h2v1H50zM57 54h1v1H57zM60 54h2v1H60zM63 54h1v1H63zM0 55h1v1H0zM3 55h1v1H3zM7 55h1v1H7zM13 55h1v1H13zM15 55h1v1H15zM17 55h2v1H17zM24 55h2v1H24zM27 55h1v1H27zM34 55h2v1H34zM40 55h1v1H40zM42 55h4v1H42zM47 55h1v1H47zM52 55h1v1H52zM54 55h3v1H54zM58 55h1v1H58zM60 55h1v1H60zM1 56h2v1H1zM4 56h1v1H4zM6 56h1v1H6zM9 56h1v1H9zM11 56h2v1H11zM16 56h1v1H16zM18 56h4v1H18zM23 56h1v1H23zM28 56h1v1H28zM30 56h5v1H30zM36 56h2v1H36zM39 56h1v1H39zM41 56h2v1H41zM48 56h2v1H48zM51 56h1v1H51zM53 56h2v1H53zM56 56h8v1H56zM8 57h1v1H8zM10 57h1v1H10zM13 57h3v1H13zM17 57h1v1H17zM22 57h1v1H22zM24 57h4v1H24zM30 57h1v1H30zM34 57h3v1H34zM42 57h1v1H42zM45 57h1v1H45zM47 57h2v1H47zM51 57h1v1H51zM54 57h3v1H54zM60 57h1v1H60zM64,57 h1v1H64zM0 58h7v1H0zM8 58h1v1H8zM11 58h3v1H11zM18 58h2v1H18zM21 58h1v1H21zM24 58h1v1H24zM29 58h2v1H29zM32 58h1v1H32zM34 58h1v1H34zM36 58h4v1H36zM41 58h1v1H41zM46 58h1v1H46zM48 58h4v1H48zM53 58h1v1H53zM56 58h1v1H56zM58 58h1v1H58zM60 58h2v1H60zM63 58h1v1H63zM0 59h1v1H0zM6 59h1v1H6zM10 59h1v1H10zM12 59h1v1H12zM14 59h2v1H14zM17 59h2v1H17zM21 59h1v1H21zM24 59h2v1H24zM27 59h1v1H27zM30 59h1v1H30zM34 59h1v1H34zM39 59h2v1H39zM42 59h1v1H42zM44 59h2v1H44zM47 59h1v1H47zM51 59h2v1H51zM54 59h1v1H54zM56 59h1v1H56zM60 59h1v1H60zM63 59h1v1H63zM0 60h1v1H0zM2 60h3v1H2zM6 60h1v1H6zM8 60h1v1H8zM10 60h1v1H10zM12 60h1v1H12zM15 60h1v1H15zM18 60h1v1H18zM21 60h1v1H21zM24 60h1v1H24zM27 60h1v1H27zM30 60h8v1H30zM42 60h2v1H42zM45 60h1v1H45zM47 60h2v1H47zM53 60h11v1H53zM0 61h1v1H0zM2 61h3v1H2zM6 61h1v1H6zM8 61h1v1H8zM11 61h4v1H11zM16 61h2v1H16zM19 61h2v1H19zM22 61h2v1H22zM25 61h2v1H25zM28 61h2v1H28zM32 61h2v1H32zM36 61h1v1H36zM40 61h1v1H40zM42 61h2v1H42zM45 61h1v1H45zM47 61h2v1H47zM51 61h2v1H51zM54 61h4v1H54zM63 61h1v1H63zM0 62h1v1H0zM2 62h3v1H2zM6 62h1v1H6zM8 62h1v1H8zM10 62h1v1H10zM12 62h1v1H12zM15 62h2v1H15zM18 62h1v1H18zM20 62h2v1H20zM27 62h2v1H27zM30 62h2v1H30zM35 62h5v1H35zM41 62h1v1H41zM43 62h2v1H43zM46 62h2v1H46zM49 62h2v1H49zM52 62h2v1H52zM57 62h1v1H57zM59 62h3v1H59zM63 62h1v1H63zM0 63h1v1H0zM6 63h1v1H6zM8 63h2v1H8zM11 63h3v1H11zM16 63h1v1H16zM18 63h4v1H18zM23 63h1v1H23zM25 63h1v1H25zM28 63h6v1H28zM35 63h1v1H35zM40 63h1v1H40zM42 63h4v1H42zM47 63h1v1H47zM52 63h1v1H52zM54 63h2v1H54zM57 63h1v1H57zM59 63h2v1H59zM63 63h1v1H63zM0 64h7v1H0zM8 64h5v1H8zM14 64h1v1H14zM16 64h1v1H16zM18 64h4v1H18zM23 64h1v1H23zM28 64h1v1H28zM30 64h3v1H30zM36 64h1v1H36zM39 64h1v1H39zM41 64h2v1H41zM48 64h2v1H48zM51 64h1v1H51zM54 64h1v1H54zM58 64h1v1H58zM60 64h3v1H60z" shape-rendering="crispEdges"/></svg>