<svg xmlns="http://www.w3.org/2000/svg" height="300" width="300" viewBox="0 0 33 33" role="img" aria-label="QR code containing user picks" style="cursor: pointer;"><path fill="#FFFFFF" d="M0,0 h33v33H0z" shape-rendering="crispEdges"/><path fill="#000000" d="M0 0h7v1H0zM9 0h1v1H9zM11 0h2v1H11zM16 0h1v1H16zM19 0h2v1H19zM23 0h1v1H23zM26,0 h7v1H26zM0 1h1v1H0zM6 1h1v1H6zM9 1h2v1H9zM15 1h2v1H15zM18 1h1v1H18zM20 1h1v1H20zM24 1h1v1H24zM26 1h1v1H26zM32,1 h1v1H32zM0 2h1v1H0zM2 2h3v1H2zM6 2h1v1H6zM8 2h1v1H8zM10 2h1v1H10zM12 2h1v1H12zM14 2h1v1H14zM16 2h1v1H16zM19 2h5v1H19zM26 2h1v1H26zM28 2h3v1H28zM32,2 h1v1H32zM0 3h1v1H0zM2 3h3v1H2zM6 3h1v1H6zM8 3h1v1H8zM12 3h1v1H12zM16 3h5v1H16zM23 3h1v1H23zM26 3h1v1H26zM28 3h3v1H28zM32,3 h1v1H32zM0 4h1v1H0zM2 4h3v1H2zM6 4h1v1H6zM8 4h1v1H8zM12 4h1v1H12zM19 4h1v1H19zM21 4h4v1H21zM26 4h1v1H26zM28 4h3v1H28zM32,4 h1v1H32zM0 5h1v1H0zM6 5h1v1H6zM8 5h5v1H8zM14 5h5v1H14zM20 5h1v1H20zM26 5h1v1H26zM32,5 h1v1H32zM0 6h7v1H0zM8 6h1v1H8zM10 6h1v1H10zM12 6h1v1H12zM14 6h1v1H14zM16 6h1v1H16zM18 6h1v1H18zM20 6h1v1H20zM22 6h1v1H22zM24 6h1v1H24zM26,6 h7v1H26zM8 7h1v1H8zM10 7h1v1H10zM15 7h1v1H15zM18 7h1v1H18zM21 7h4v1H21zM0 8h1v1H0zM2 8h5v1H2zM10 8h1v1H10zM12 8h6v1H12zM22 8h1v1H22zM24 8h1v1H24zM26 8h5v1H26zM0 9h1v1H0zM10 9h1v1H10zM12 9h2v1H12zM18 9h2v1H18zM21 9h1v1H21zM23 9h4v1H23zM30,9 h3v1H30zM1 10h2v1H1zM6 10h1v1H6zM9 10h1v1H9zM11 10h1v1H11zM13 10h3v1H13zM18 10h1v1H18zM21 10h1v1H21zM24 10h2v1H24zM29 10h2v1H29zM3 11h2v1H3zM9 11h1v1H9zM13 11h1v1H13zM20 11h4v1H20zM25 11h1v1H25zM27 11h1v1H27zM29 11h3v1H29zM3 12h2v1H3zM6 12h2v1H6zM9 12h1v1H9zM12 12h1v1H12zM14 12h7v1H14zM23 12h1v1H23zM25 12h1v1H25zM27 12h2v1H27zM5 13h1v1H5zM9 13h2v1H9zM19 13h1v1H19zM22 13h2v1H22zM25 13h2v1H25zM29 13h1v1H29zM32,13 h1v1H32zM2 14h1v1H2zM6 14h2v1H6zM9 14h3v1H9zM14 14h3v1H14zM20 14h1v1H20zM22 14h1v1H22zM24 14h2v1H24zM27 14h5v1H27zM0 15h1v1H0zM2 15h4v1H2zM8 15h1v1H8zM11 15h1v1H11zM13 15h3v1H13zM21 15h2v1H21zM25 15h1v1H25zM27 15h1v1H27zM29 15h2v1H29zM0 16h1v1H0zM6 16h2v1H6zM12 16h1v1H12zM14 16h4v1H14zM22 16h1v1H22zM24 16h2v1H24zM28 16h2v1H28zM31 16h1v1H31zM1 17h1v1H1zM3 17h1v1H3zM8 17h1v1H8zM10 17h1v1H10zM12 17h1v1H12zM16 17h1v1H16zM18 17h4v1H18zM23 17h1v1H23zM26 17h1v1H26zM29 17h1v1H29zM32,17 h1v1H32zM1 18h2v1H1zM5 18h3v1H5zM12 18h2v1H12zM15 18h2v1H15zM18 18h1v1H18zM21 18h1v1H21zM28 18h1v1H28zM31 18h1v1H31zM1 19h1v1H1zM3 19h1v1H3zM9 19h1v1H9zM11 19h1v1H11zM13 19h1v1H13zM15 19h1v1H15zM19 19h4v1H19zM24 19h4v1H24zM29 19h2v1H29zM0 20h1v1H0zM4 20h5v1H4zM11 20h2v1H11zM14 20h5v1H14zM20 20h1v1H20zM23 20h1v1H23zM25 20h1v1H25zM28 20h1v1H28zM31 20h1v1H31zM0 21h1v1H0zM3 21h1v1H3zM5 21h1v1H5zM9 21h2v1H9zM19 21h1v1H19zM22 21h2v1H22zM25 21h2v1H25zM29 21h2v1H29zM32,21 h1v1H32zM0 22h1v1H0zM2 22h1v1H2zM4 22h7v1H4zM12 22h2v1H12zM15 22h2v1H15zM18 22h1v1H18zM20 22h3v1H20zM24 22h2v1H24zM29 22h1v1H29zM31 22h1v1H31zM0 23h1v1H0zM2 23h1v1H2zM5 23h1v1H5zM9 23h3v1H9zM15 23h1v1H15zM21 23h2v1H21zM25 23h1v1H25zM28 23h1v1H28zM30 23h2v1H30zM0 24h1v1H0zM3 24h2v1H3zM6 24h1v1H6zM9 24h1v1H9zM12 24h1v1H12zM15 24h3v1H15zM23 24h7v1H23zM31,24 h2v1H31zM8 25h1v1H8zM10 25h2v1H10zM16 25h1v1H16zM18 25h4v1H18zM24 25h1v1H24zM28 25h1v1H28zM31,25 h2v1H31zM0 26h7v1H0zM10 26h2v1H10zM13 26h1v1H13zM15 26h2v1H15zM18 26h1v1H18zM21 26h1v1H21zM23 26h2v1H23zM26 26h1v1H26zM28 26h1v1H28zM31 26h1v1H31zM0 27h1v1H0zM6 27h1v1H6zM8 27h5v1H8zM15 27h2v1H15zM19 27h6v1H19zM28 27h4v1H28zM0 28h1v1H0zM2 28h3v1H2zM6 28h1v1H6zM8 28h3v1H8zM13 28h2v1H13zM16 28h5v1H16zM24 28h5v1H24zM0 29h1v1H0zM2 29h3v1H2zM6 29h1v1H6zM8 29h3v1H8zM12 29h1v1H12zM19 29h1v1H19zM22 29h4v1H22zM27 29h2v1H27zM30,29 h3v1H30zM0 30h1v1H0zM2 30h3v1H2zM6 30h1v1H6zM8 30h3v1H8zM12 30h5v1H12zM20 30h1v1H20zM22 30h2v1H22zM26 30h1v1H26zM29 30h2v1H29zM0 31h1v1H0zM6 31h1v1H6zM14 31h2v1H14zM18 31h1v1H18zM21 31h2v1H21zM25 31h1v1H25zM30 31h1v1H30zM0 32h7v1H0zM8 32h1v1H8zM12 32h1v1H12zM14 32h2v1H14zM17 32h2v1H17zM22 32h4v1H22zM27 32h1v1H27zM31 32h1v1H31z" shape-rendering="crispEdges"/></svg>