<svg xmlns="http://www.w3.org/2000/svg" height="300" width="300" viewBox="0 0 65 65" role="img" aria-label="QR code containing user picks"><path fill="#FFFFFF" d="M0,0 h65v65H0z" shape-rendering="crispEdges"/><path fill="#000000" d="M0 0h7v1H0zM11 0h1v1H11zM16 0h2v1H16zM22 0h1v1H22zM24 0h4v1H24zM30 0h1v1H30zM33 0h1v1H33zM35 0h2v1H35zM42 0h2v1H42zM45 0h1v1H45zM48 0h1v1H48zM53 0h1v1H53zM55 0h1v1H55zM58,0 h7v1H58zM0 1h1v1H0zM6 1h1v1H6zM8 1h2v1H8zM12 1h1v1H12zM14 1h2v1H14zM18 1h2v1H18zM21 1h1v1H21zM23 1h2v1H23zM29 1h1v1H29zM36 1h4v1H36zM41 1h1v1H41zM46 1h1v1H46zM48 1h4v1H48zM53 1h1v1H53zM56 1h1v1H56zM58 1h1v1H58zM64,1 h1v1H64zM0 2h1v1H0zM2 2h3v1H2zM6 2h1v1H6zM10 2h1v1H10zM13 2h2v1H13zM17 2h2v1H17zM24 2h2v1H24zM27 2h1v1H27zM30 2h2v1H30zM33 2h3v1H33zM37 2h2v1H37zM40 2h1v1H40zM42 2h3v1H42zM47 2h1v1H47zM52 2h1v1H52zM54 2h1v1H54zM56 2h1v1H56zM58 2h1v1H58zM60 2h3v1H60zM64,2 h1v1H64zM0 3h1v1H0zM2 3h3v1H2zM6 3h1v1H6zM8 3h1v1H8zM10 3h1v1H10zM18 3h4v1H18zM23 3h1v1H23zM28 3h1v1H28zM30 3h1v1H30zM34 3h1v1H34zM36 3h2v1H36zM39 3h1v1H39zM41 3h2v1H41zM45 3h1v1H45zM48 3h1v1H48zM50 3h2v1H50zM53 3h3v1H53zM58 3h1v1H58zM60 3h3v1H60zM64,3 h1v1H64zM0 4h1v1H0zM2 4h3v1H2zM6 4h1v1H6zM13 4h1v1H13zM15 4h1v1H15zM17 4h2v1H17zM24 4h2v1H24zM27 4h1v1H27zM30 4h8v1H30zM39 4h1v1H39zM41 4h3v1H41zM48 4h2v1H48zM53 4h1v1H53zM56 4h1v1H56zM58 4h1v1H58zM60 4h3v1H60zM64,4 h1v1H64zM0 5h1v1H0zM6 5h1v1H6zM8 5h1v1H8zM10 5h1v1H10zM13 5h2v1H13zM18 5h1v1H18zM21 5h1v1H21zM23 5h2v1H23zM27 5h1v1H27zM30 5h1v1H30zM34 5h1v1H34zM36 5h1v1H36zM38 5h2v1H38zM41 5h1v1H41zM45 5h2v1H45zM48 5h1v1H48zM50 5h2v1H50zM54 5h1v1H54zM58 5h1v1H58zM64,5 h1v1H64zM0 6h7v1H0zM8 6h1v1H8zM10 6h1v1H10zM12 6h1v1H12zM14 6h1v1H14zM16 6h1v1H16zM18 6h1v1H18zM20 6h1v1H20zM22 6h1v1H22zM24 6h1v1H24zM26 6h1v1H26zM28 6h1v1H28zM30 6h1v1H30zM32 6h1v1H32zM34 6h1v1H34zM36 6h1v1H36zM38 6h1v1H38zM40 6h1v1H40zM42 6h1v1H42zM44 6h1v1H44zM46 6h1v1H46zM48 6h1v1H48zM50 6h1v1H50zM52 6h1v1H52zM54 6h1v1H54zM56 6h1v1H56zM58,6 h7v1H58zM9 7h2v1H9zM14 7h3v1H14zM18 7h1v1H18zM21 7h1v1H21zM24 7h1v1H24zM27 7h1v1H27zM29 7h2v1H29zM34 7h2v1H34zM40 7h1v1H40zM42 7h4v1H42zM47 7h1v1H47zM52 7h1v1H52zM54 7h1v1H54zM0 8h5v1H0zM6 8h6v1H6zM15 8h1v1H15zM18 8h4v1H18zM23 8h1v1H23zM28 8h7v1H28zM36 8h1v1H36zM39 8h1v1H39zM41 8h2v1H41zM48 8h2v1H48zM51 8h1v1H51zM54 8h4v1H54zM59 8h1v1H59zM61 8h1v1H61zM63 8h1v1H63zM1 9h5v1H1zM7 9h2v1H7zM10 9h1v1H10zM12 9h4v1H12zM17 9h1v1H17zM22 9h1v1H22zM24 9h4v1H24zM30 9h2v1H30zM33 9h1v1H33zM36 9h1v1H36zM42 9h2v1H42zM45 9h1v1H45zM48 9h1v1H48zM54 9h1v1H54zM57 9h1v1H57zM59 9h2v1H59zM64,9 h1v1H64zM0 10h1v1H0zM6 10h1v1H6zM8 10h1v1H8zM18 10h2v1H18zM21 10h1v1H21zM23 10h2v1H23zM27 10h1v1H27zM29 10h2v1H29zM34 10h1v1H34zM36 10h4v1H36zM41 10h1v1H41zM46 10h1v1H46zM48 10h4v1H48zM53 10h1v1H53zM55 10h1v1H55zM58 10h1v1H58zM60 10h2v1H60zM63 10h1v1H63zM2 11h2v1H2zM13 11h1v1H13zM18 11h1v1H18zM24 11h2v1H24zM27 11h1v1H27zM30 11h4v1H30zM35 11h1v1H35zM39 11h2v1H39zM42 11h4v1H42zM52 11h1v1H52zM54 11h1v1H54zM59 11h1v1H59zM63 11h1v1H63zM0 12h1v1H0zM3 12h2v1H3zM6 12h1v1H6zM9 12h2v1H9zM12 12h2v1H12zM15 12h1v1H15zM18 12h1v1H18zM21 12h1v1H21zM24 12h1v1H24zM27 12h1v1H27zM29 12h1v1H29zM36 12h1v1H36zM41 12h3v1H41zM47 12h3v1H47zM53 12h4v1H53zM60 12h4v1H60zM0 13h1v1H0zM4 13h2v1H4zM8 13h2v1H8zM11 13h2v1H11zM14 13h2v1H14zM17 13h1v1H17zM19 13h2v1H19zM22 13h2v1H22zM25 13h2v1H25zM28 13h2v1H28zM33 13h1v1H33zM35 13h2v1H35zM40 13h1v1H40zM42 13h4v1H42zM47 13h1v1H47zM52 13h1v1H52zM54 13h1v1H54zM60 13h1v1H60zM63,13 h2v1H63zM0 14h1v1H0zM6 14h3v1H6zM10 14h1v1H10zM13 14h3v1H13zM18 14h1v1H18zM20 14h2v1H20zM27 14h2v1H27zM34 14h2v1H34zM37 14h2v1H37zM41 14h1v1H41zM46 14h2v1H46zM49 14h2v1H49zM52 14h2v1H52zM55 14h1v1H55zM57 14h2v1H57zM60 14h2v1H60zM1 15h5v1H1zM7 15h1v1H7zM10 15h1v1H10zM12 15h2v1H12zM15 15h1v1H15zM17 15h4v1H17zM23 15h1v1H23zM28 15h2v1H28zM31 15h3v1H31zM36 15h1v1H36zM40 15h1v1H40zM42 15h4v1H42zM47 15h1v1H47zM52 15h1v1H52zM54 15h1v1H54zM57 15h1v1H57zM59 15h1v1H59zM63 15h1v1H63zM0 16h1v1H0zM2 16h1v1H2zM6 16h1v1H6zM8 16h4v1H8zM13 16h1v1H13zM18 16h4v1H18zM23 16h1v1H23zM28 16h1v1H28zM30 16h1v1H30zM35 16h1v1H35zM37 16h1v1H37zM39 16h1v1H39zM42 16h1v1H42zM48 16h2v1H48zM51 16h1v1H51zM53 16h4v1H53zM60 16h3v1H60zM0 17h2v1H0zM4 17h1v1H4zM7 17h1v1H7zM10 17h1v1H10zM12 17h1v1H12zM17 17h1v1H17zM22 17h1v1H22zM24 17h4v1H24zM30 17h1v1H30zM33 17h1v1H33zM39 17h1v1H39zM42 17h2v1H42zM45 17h1v1H45zM47 17h2v1H47zM54 17h1v1H54zM57 17h1v1H57zM59 17h2v1H59zM64,17 h1v1H64zM2 18h2v1H2zM6 18h2v1H6zM9 18h1v1H9zM11 18h2v1H11zM14 18h2v1H14zM17 18h1v1H17zM22 18h1v1H22zM24 18h3v1H24zM29 18h2v1H29zM34 18h2v1H34zM37 18h3v1H37zM41 18h1v1H41zM46 18h1v1H46zM48 18h4v1H48zM53 18h1v1H53zM55 18h1v1H55zM58 18h1v1H58zM60 18h2v1H60zM63 18h1v1H63zM1 19h2v1H1zM5 19h1v1H5zM8 19h2v1H8zM12 19h1v1H12zM15 19h1v1H15zM21 19h2v1H21zM24 19h1v1H24zM26 19h2v1H26zM30 19h3v1H30zM34 19h2v1H34zM40 19h6v1H40zM47 19h1v1H47zM49 19h1v1H49zM52 19h2v1H52zM57 19h1v1H57zM59 19h1v1H59zM61 19h1v1H61zM1 20h1v1H1zM5 20h4v1H5zM10 20h6v1H10zM17 20h1v1H17zM19 20h2v1H19zM22 20h2v1H22zM25 20h2v1H25zM28 20h2v1H28zM33 20h2v1H33zM36 20h2v1H36zM39 20h1v1H39zM41 20h2v1H41zM48 20h2v1H48zM51 20h1v1H51zM53 20h1v1H53zM56 20h2v1H56zM59 20h2v1H59zM62 20h2v1H62zM1 21h1v1H1zM3 21h1v1H3zM5 21h1v1H5zM9 21h3v1H9zM16 21h1v1H16zM18 21h1v1H18zM21 21h1v1H21zM24 21h1v1H24zM27 21h1v1H27zM30 21h2v1H30zM34 21h4v1H34zM41 21h2v1H41zM48 21h2v1H48zM51 21h1v1H51zM53 21h3v1H53zM57 21h1v1H57zM59 21h2v1H59zM64,21 h1v1H64zM0 22h1v1H0zM2 22h1v1H2zM4 22h1v1H4zM6 22h3v1H6zM11 22h3v1H11zM15 22h2v1H15zM18 22h2v1H18zM21 22h1v1H21zM23 22h2v1H23zM30 22h1v1H30zM33 22h1v1H33zM36 22h1v1H36zM38 22h2v1H38zM46 22h1v1H46zM48 22h1v1H48zM50 22h2v1H50zM56 22h1v1H56zM58 22h1v1H58zM60 22h1v1H60zM63 22h1v1H63zM2 23h1v1H2zM7 23h1v1H7zM9 23h1v1H9zM12 23h1v1H12zM14 23h1v1H14zM16 23h3v1H16zM24 23h1v1H24zM27 23h1v1H27zM30 23h1v1H30zM33 23h1v1H33zM35 23h1v1H35zM40 23h1v1H40zM42 23h4v1H42zM47 23h1v1H47zM52 23h1v1H52zM54 23h4v1H54zM59 23h1v1H59zM0 24h1v1H0zM3 24h1v1H3zM6 24h1v1H6zM12 24h2v1H12zM16 24h1v1H16zM18 24h4v1H18zM23 24h1v1H23zM28 24h2v1H28zM31 24h3v1H31zM36 24h1v1H36zM39 24h1v1H39zM42 24h1v1H42zM45 24h1v1H45zM48 24h1v1H48zM51 24h1v1H51zM53 24h4v1H53zM60 24h4v1H60zM1 25h1v1H1zM4 25h2v1H4zM8 25h1v1H8zM15 25h1v1H15zM17 25h1v1H17zM22 25h1v1H22zM24 25h4v1H24zM30 25h1v1H30zM32 25h2v1H32zM36 25h1v1H36zM42 25h1v1H42zM45 25h1v1H45zM47 25h2v1H47zM51 25h1v1H51zM54 25h1v1H54zM57 25h1v1H57zM60 25h1v1H60zM64,25 h1v1H64zM0 26h1v1H0zM3 26h1v1H3zM5 26h2v1H5zM10 26h4v1H10zM18 26h2v1H18zM21 26h1v1H21zM23 26h2v1H23zM29 26h4v1H29zM34 26h1v1H34zM36 26h4v1H36zM41 26h1v1H41zM46 26h1v1H46zM48 26h4v1H48zM53 26h1v1H53zM55 26h1v1H55zM58 26h1v1H58zM60 26h2v1H60zM63 26h1v1H63zM0 27h2v1H0zM3 27h3v1H3zM7 27h1v1H7zM9 27h1v1H9zM12 27h4v1H12zM18 27h1v1H18zM24 27h2v1H24zM27 27h1v1H27zM30 27h4v1H30zM39 27h2v1H39zM42 27h1v1H42zM44 27h2v1H44zM47 27h1v1H47zM51 27h2v1H51zM54 27h1v1H54zM59 27h1v1H59zM63 27h1v1H63zM1 28h1v1H1zM3 28h1v1H3zM5 28h3v1H5zM13 28h1v1H13zM18 28h2v1H18zM21 28h1v1H21zM23 28h2v1H23zM29 28h1v1H29zM33 28h1v1H33zM35 28h3v1H35zM41 28h3v1H41zM48 28h2v1H48zM51 28h1v1H51zM53 28h4v1H53zM60 28h4v1H60zM1 29h3v1H1zM5 29h1v1H5zM11 29h3v1H11zM15 29h1v1H15zM17 29h1v1H17zM22 29h1v1H22zM24 29h4v1H24zM30 29h1v1H30zM33 29h1v1H33zM35 29h1v1H35zM39 29h1v1H39zM42 29h2v1H42zM45 29h1v1H45zM51 29h1v1H51zM54 29h1v1H54zM60 29h1v1H60zM63,29 h2v1H63zM0 30h1v1H0zM4 30h5v1H4zM11 30h1v1H11zM13 30h1v1H13zM18 30h2v1H18zM21 30h1v1H21zM23 30h2v1H23zM30 30h6v1H30zM37 30h3v1H37zM41 30h1v1H41zM46 30h1v1H46zM48 30h3v1H48zM52 30h2v1H52zM55 30h6v1H55zM1 31h2v1H1zM4 31h1v1H4zM8 31h1v1H8zM10 31h2v1H10zM13 31h3v1H13zM17 31h2v1H17zM21 31h1v1H21zM24 31h2v1H24zM27 31h1v1H27zM29 31h2v1H29zM34 31h3v1H34zM40 31h1v1H40zM42 31h4v1H42zM47 31h1v1H47zM52 31h1v1H52zM54 31h1v1H54zM56 31h1v1H56zM60 31h1v1H60zM63,31 h2v1H63zM0 32h1v1H0zM3 32h2v1H3zM6 32h1v1H6zM8 32h2v1H8zM11 32h2v1H11zM16 32h1v1H16zM18 32h4v1H18zM23 32h1v1H23zM28 32h1v1H28zM30 32h1v1H30zM32 32h1v1H32zM34 32h1v1H34zM36 32h2v1H36zM39 32h1v1H39zM42 32h1v1H42zM45 32h1v1H45zM48 32h1v1H48zM51 32h1v1H51zM54 32h1v1H54zM56 32h1v1H56zM58 32h1v1H58zM60 32h3v1H60zM4 33h1v1H4zM8 33h2v1H8zM12 33h4v1H12zM17 33h1v1H17zM22 33h1v1H22zM24 33h4v1H24zM30 33h1v1H30zM34 33h3v1H34zM42 33h1v1H42zM45 33h1v1H45zM48 33h1v1H48zM51 33h1v1H51zM54 33h1v1H54zM56 33h1v1H56zM60 33h3v1H60zM64,33 h1v1H64zM2 34h9v1H2zM13 34h2v1H13zM18 34h2v1H18zM21 34h1v1H21zM23 34h2v1H23zM30 34h5v1H30zM36 34h4v1H36zM41 34h1v1H41zM46 34h1v1H46zM48 34h4v1H48zM53 34h1v1H53zM55 34h6v1H55zM62 34h2v1H62zM2 35h1v1H2zM4 35h2v1H4zM7 35h2v1H7zM10 35h1v1H10zM12 35h4v1H12zM17 35h2v1H17zM24 35h2v1H24zM27 35h1v1H27zM34 35h2v1H34zM38 35h1v1H38zM40 35h5v1H40zM47 35h1v1H47zM52 35h2v1H52zM55 35h1v1H55zM57 35h2v1H57zM60 35h2v1H60zM63 35h1v1H63zM0 36h2v1H0zM4 36h4v1H4zM9 36h1v1H9zM14 36h1v1H14zM16 36h1v1H16zM18 36h4v1H18zM23 36h1v1H23zM28 36h1v1H28zM30 36h4v1H30zM36 36h2v1H36zM39 36h1v1H39zM41 36h2v1H41zM45 36h1v1H45zM48 36h2v1H48zM51 36h1v1H51zM53 36h2v1H53zM56 36h2v1H56zM59 36h1v1H59zM62 36h2v1H62zM1 37h1v1H1zM8 37h2v1H8zM13 37h1v1H13zM15 37h1v1H15zM17 37h2v1H17zM24 37h2v1H24zM27 37h1v1H27zM30 37h1v1H30zM35 37h3v1H35zM41 37h2v1H41zM47 37h3v1H47zM51 37h1v1H51zM54 37h1v1H54zM60 37h1v1H60zM64,37 h1v1H64zM0 38h1v1H0zM6 38h6v1H6zM14 38h1v1H14zM18 38h1v1H18zM21 38h1v1H21zM23 38h2v1H23zM29 38h3v1H29zM33 38h1v1H33zM36 38h1v1H36zM38 38h2v1H38zM45 38h2v1H45zM48 38h1v1H48zM50 38h2v1H50zM57 38h1v1H57zM59 38h2v1H59zM63 38h1v1H63zM1 39h3v1H1zM5 39h1v1H5zM12 39h1v1H12zM15 39h1v1H15zM18 39h1v1H18zM21 39h1v1H21zM24 39h2v1H24zM27 39h1v1H27zM34 39h2v1H34zM40 39h1v1H40zM42 39h4v1H42zM47 39h1v1H47zM52 39h1v1H52zM54 39h2v1H54zM58 39h1v1H58zM60 39h1v1H60zM0 40h2v1H0zM3 40h2v1H3zM6 40h1v1H6zM9 40h2v1H9zM12 40h2v1H12zM16 40h1v1H16zM18 40h4v1H18zM23 40h1v1H23zM28 40h1v1H28zM30 40h4v1H30zM36 40h1v1H36zM39 40h1v1H39zM41 40h2v1H41zM45 40h1v1H45zM48 40h2v1H48zM51 40h1v1H51zM54 40h1v1H54zM57 40h1v1H57zM59 40h1v1H59zM61 40h3v1H61zM1 41h1v1H1zM3 41h1v1H3zM5 41h1v1H5zM7 41h2v1H7zM15 41h1v1H15zM17 41h1v1H17zM22 41h1v1H22zM24 41h4v1H24zM35 41h2v1H35zM42 41h2v1H42zM45 41h1v1H45zM48 41h1v1H48zM51 41h1v1H51zM54 41h4v1H54zM59 41h2v1H59zM64,41 h1v1H64zM0 42h2v1H0zM3 42h1v1H3zM6 42h2v1H6zM12 42h1v1H12zM18 42h2v1H18zM21 42h1v1H21zM23 42h2v1H23zM29 42h2v1H29zM33 42h1v1H33zM36 42h4v1H36zM41 42h1v1H41zM46 42h1v1H46zM48 42h4v1H48zM53 42h1v1H53zM55 42h3v1H55zM59 42h1v1H59zM61 42h1v1H61zM63 42h1v1H63zM0 43h2v1H0zM3 43h3v1H3zM9 43h5v1H9zM15 43h1v1H15zM18 43h1v1H18zM24 43h1v1H24zM27 43h1v1H27zM39 43h1v1H39zM42 43h1v1H42zM44 43h2v1H44zM47 43h1v1H47zM51 43h2v1H51zM54 43h2v1H54zM58 43h1v1H58zM60 43h1v1H60zM0 44h3v1H0zM6 44h1v1H6zM9 44h1v1H9zM11 44h5v1H11zM18 44h1v1H18zM21 44h1v1H21zM24 44h1v1H24zM27 44h1v1H27zM30 44h2v1H30zM33 44h1v1H33zM35 44h3v1H35zM41 44h3v1H41zM45 44h1v1H45zM47 44h2v1H47zM53 44h2v1H53zM56 44h2v1H56zM59 44h1v1H59zM61 44h3v1H61zM0 45h3v1H0zM7 45h1v1H7zM9 45h1v1H9zM11 45h1v1H11zM13 45h2v1H13zM16 45h2v1H16zM19 45h2v1H19zM22 45h2v1H22zM25 45h2v1H25zM28 45h1v1H28zM35 45h1v1H35zM39 45h2v1H39zM42 45h1v1H42zM44 45h2v1H44zM47 45h2v1H47zM51 45h2v1H51zM54 45h1v1H54zM57 45h1v1H57zM60 45h1v1H60zM63 45h1v1H63zM1 46h4v1H1zM6 46h1v1H6zM11 46h1v1H11zM14 46h3v1H14zM18 46h1v1H18zM20 46h2v1H20zM27 46h5v1H27zM33 46h1v1H33zM36 46h3v1H36zM40 46h2v1H40zM44 46h1v1H44zM46 46h1v1H46zM48 46h3v1H48zM53 46h1v1H53zM56 46h2v1H56zM59 46h2v1H59zM1 47h1v1H1zM5 47h1v1H5zM7 47h1v1H7zM9 47h5v1H9zM16 47h6v1H16zM23 47h1v1H23zM28 47h2v1H28zM34 47h1v1H34zM36 47h1v1H36zM40 47h1v1H40zM42 47h4v1H42zM47 47h1v1H47zM52 47h1v1H52zM54 47h2v1H54zM58 47h1v1H58zM60 47h1v1H60zM0 48h1v1H0zM4 48h1v1H4zM6 48h1v1H6zM9 48h1v1H9zM11 48h1v1H11zM13 48h1v1H13zM16 48h1v1H16zM18 48h4v1H18zM23 48h1v1H23zM28 48h2v1H28zM31 48h3v1H31zM35 48h1v1H35zM37 48h1v1H37zM39 48h1v1H39zM42 48h1v1H42zM45 48h1v1H45zM48 48h2v1H48zM51 48h1v1H51zM53 48h2v1H53zM56 48h1v1H56zM58 48h2v1H58zM61 48h3v1H61zM0 49h2v1H0zM5 49h1v1H5zM7 49h1v1H7zM10 49h2v1H10zM15 49h1v1H15zM17 49h1v1H17zM22 49h1v1H22zM24 49h4v1H24zM29 49h2v1H29zM39 49h1v1H39zM42 49h2v1H42zM45 49h1v1H45zM47 49h2v1H47zM54 49h1v1H54zM60 49h1v1H60zM62 49h1v1H62zM64,49 h1v1H64zM0 50h3v1H0zM4 50h6v1H4zM13 50h1v1H13zM17 50h1v1H17zM19 50h1v1H19zM22 50h6v1H22zM31 50h1v1H31zM33 50h1v1H33zM35 50h1v1H35zM37 50h3v1H37zM41 50h1v1H41zM46 50h1v1H46zM48 50h4v1H48zM53 50h1v1H53zM56 50h1v1H56zM60 50h1v1H60zM62 50h2v1H62zM1 51h2v1H1zM4 51h2v1H4zM7 51h3v1H7zM13 51h3v1H13zM21 51h2v1H21zM24 51h1v1H24zM26 51h2v1H26zM30 51h1v1H30zM34 51h2v1H34zM37 51h2v1H37zM40 51h2v1H40zM43 51h3v1H43zM47 51h1v1H47zM49 51h1v1H49zM52 51h2v1H52zM55 51h1v1H55zM57 51h2v1H57zM60 51h2v1H60zM3 52h1v1H3zM5 52h2v1H5zM8 52h3v1H8zM12 52h2v1H12zM16 52h2v1H16zM19 52h2v1H19zM22 52h2v1H22zM25 52h2v1H25zM28 52h1v1H28zM30 52h4v1H30zM36 52h1v1H36zM39 52h1v1H39zM41 52h2v1H41zM48 52h1v1H48zM51 52h1v1H51zM53 52h1v1H53zM56 52h2v1H56zM59 52h1v1H59zM62 52h2v1H62zM2 53h1v1H2zM4 53h1v1H4zM8 53h1v1H8zM11 53h5v1H11zM18 53h1v1H18zM21 53h1v1H21zM24 53h1v1H24zM27 53h1v1H27zM30 53h1v1H30zM36 53h1v1H36zM41 53h2v1H41zM45 53h1v1H45zM48 53h1v1H48zM51 53h1v1H51zM53 53h2v1H53zM57 53h1v1H57zM60 53h1v1H60zM64,53 h1v1H64zM2 54h2v1H2zM5 54h2v1H5zM11 54h1v1H11zM13 54h1v1H13zM18 54h1v1H18zM21 54h1v1H21zM23 54h2v1H23zM29 54h2v1H29zM33 54h1v1H33zM36 54h1v1H36zM38 54h2v1H38zM46 54h1v1H46zM48 54h1v1H48zM50 54h2v1H50zM57 54h1v1H57zM59 54h2v1H59zM63 54h1v1H63zM0 55h1v1H0zM3 55h1v1H3zM11 55h2v1H11zM15 55h1v1H15zM17 55h2v1H17zM21 55h1v1H21zM24 55h2v1H24zM27 55h1v1H27zM34 55h2v1H34zM40 55h1v1H40zM42 55h4v1H42zM47 55h1v1H47zM52 55h1v1H52zM54 55h3v1H54zM58 55h1v1H58zM60 55h1v1H60zM1 56h2v1H1zM4 56h1v1H4zM6 56h3v1H6zM11 56h2v1H11zM16 56h1v1H16zM18 56h4v1H18zM23 56h1v1H23zM28 56h1v1H28zM30 56h5v1H30zM36 56h1v1H36zM39 56h1v1H39zM41 56h2v1H41zM45 56h1v1H45zM48 56h2v1H48zM51 56h1v1H51zM53 56h2v1H53zM56 56h8v1H56zM8 57h1v1H8zM10 57h1v1H10zM12 57h2v1H12zM15 57h1v1H15zM17 57h1v1H17zM22 57h1v1H22zM24 57h4v1H24zM30 57h1v1H30zM34 57h3v1H34zM39 57h1v1H39zM42 57h1v1H42zM45 57h1v1H45zM48 57h1v1H48zM54 57h3v1H54zM60 57h1v1H60zM64,57 h1v1H64zM0 58h7v1H0zM8 58h3v1H8zM12 58h4v1H12zM18 58h2v1H18zM21 58h1v1H21zM24 58h1v1H24zM30 58h1v1H30zM32 58h1v1H32zM34 58h1v1H34zM36 58h4v1H36zM41 58h1v1H41zM46 58h1v1H46zM48 58h4v1H48zM53 58h1v1H53zM56 58h1v1H56zM58 58h1v1H58zM60 58h2v1H60zM63 58h1v1H63zM0 59h1v1H0zM6 59h1v1H6zM9 59h2v1H9zM14 59h2v1H14zM17 59h2v1H17zM24 59h1v1H24zM27 59h1v1H27zM30 59h1v1H30zM34 59h1v1H34zM39 59h2v1H39zM42 59h1v1H42zM44 59h2v1H44zM47 59h1v1H47zM51 59h2v1H51zM54 59h1v1H54zM56 59h1v1H56zM60 59h1v1H60zM63 59h1v1H63zM0 60h1v1H0zM2 60h3v1H2zM6 60h1v1H6zM8 60h4v1H8zM13 60h2v1H13zM18 60h2v1H18zM21 60h1v1H21zM23 60h2v1H23zM30 60h8v1H30zM41 60h3v1H41zM47 60h3v1H47zM54 60h10v1H54zM0 61h1v1H0zM2 61h3v1H2zM6 61h1v1H6zM8 61h1v1H8zM15 61h1v1H15zM17 61h1v1H17zM22 61h1v1H22zM24 61h4v1H24zM29 61h1v1H29zM31 61h2v1H31zM34 61h1v1H34zM42 61h2v1H42zM45 61h1v1H45zM47 61h2v1H47zM51 61h2v1H51zM54 61h4v1H54zM63 61h1v1H63zM0 62h1v1H0zM2 62h3v1H2zM6 62h1v1H6zM8 62h2v1H8zM11 62h1v1H11zM13 62h2v1H13zM18 62h2v1H18zM21 62h1v1H21zM23 62h2v1H23zM30 62h1v1H30zM33 62h3v1H33zM37 62h5v1H37zM43 62h2v1H43zM46 62h2v1H46zM49 62h2v1H49zM52 62h2v1H52zM59 62h3v1H59zM63 62h1v1H63zM0 63h1v1H0zM6 63h1v1H6zM8 63h1v1H8zM11 63h2v1H11zM14 63h2v1H14zM17 63h2v1H17zM24 63h2v1H24zM27 63h1v1H27zM30 63h2v1H30zM34 63h1v1H34zM36 63h1v1H36zM40 63h1v1H40zM42 63h4v1H42zM47 63h1v1H47zM52 63h1v1H52zM54 63h1v1H54zM57 63h1v1H57zM59 63h2v1H59zM63 63h1v1H63zM0 64h7v1H0zM8 64h1v1H8zM10 64h2v1H10zM13 64h1v1H13zM16 64h1v1H16zM18 64h4v1H18zM23 64h1v1H23zM28 64h1v1H28zM30 64h1v1H30zM33 64h1v1H33zM36 64h2v1H36zM39 64h1v1H39zM42 64h1v1H42zM45 64h1v1H45zM48 64h2v1H48zM51 64h1v1H51zM53 64h2v1H53zM58 64h1v1H58zM60 64h3v1H60z" shape-rendering="crispEdges"/></svg>