<svg xmlns="http://www.w3.org/2000/svg" height="300" width="300" viewBox="0 0 65 65" role="img" aria-label="QR code containing user picks" style="cursor: pointer;"><path fill="#FFFFFF" d="M0,0 h65v65H0z" shape-rendering="crispEdges"/><path fill="#000000" d="M0 0h7v1H0zM9 0h1v1H9zM13 0h5v1H13zM20 0h2v1H20zM24 0h2v1H24zM28 0h1v1H28zM30 0h1v1H30zM32 0h1v1H32zM34 0h3v1H34zM38 0h1v1H38zM40 0h1v1H40zM42 0h1v1H42zM44 0h1v1H44zM46 0h1v1H46zM48 0h1v1H48zM50 0h1v1H50zM52 0h2v1H52zM55 0h1v1H55zM58,0 h7v1H58zM0 1h1v1H0zM6 1h1v1H6zM11 1h3v1H11zM15 1h1v1H15zM17 1h1v1H17zM19 1h1v1H19zM21 1h1v1H21zM23 1h1v1H23zM25 1h1v1H25zM27 1h1v1H27zM30 1h2v1H30zM35 1h1v1H35zM38 1h2v1H38zM42 1h2v1H42zM46 1h2v1H46zM50 1h2v1H50zM56 1h1v1H56zM58 1h1v1H58zM64,1 h1v1H64zM0 2h1v1H0zM2 2h3v1H2zM6 2h1v1H6zM8 2h1v1H8zM10 2h2v1H10zM14 2h1v1H14zM16 2h3v1H16zM20 2h3v1H20zM24 2h3v1H24zM28 2h1v1H28zM30 2h4v1H30zM35 2h1v1H35zM38 2h2v1H38zM41 2h1v1H41zM43 2h1v1H43zM45 2h3v1H45zM50 2h2v1H50zM54 2h1v1H54zM56 2h1v1H56zM58 2h1v1H58zM60 2h3v1H60zM64,2 h1v1H64zM0 3h1v1H0zM2 3h3v1H2zM6 3h1v1H6zM9 3h1v1H9zM11 3h1v1H11zM13 3h2v1H13zM17 3h1v1H17zM20 3h2v1H20zM24 3h2v1H24zM28 3h2v1H28zM31 3h1v1H31zM34 3h2v1H34zM39 3h1v1H39zM43 3h1v1H43zM45 3h1v1H45zM47 3h1v1H47zM49 3h3v1H49zM54 3h2v1H54zM58 3h1v1H58zM60 3h3v1H60zM64,3 h1v1H64zM0 4h1v1H0zM2 4h3v1H2zM6 4h1v1H6zM9 4h1v1H9zM13 4h1v1H13zM15 4h1v1H15zM17 4h2v1H17zM20 4h3v1H20zM24 4h3v1H24zM28 4h1v1H28zM30 4h5v1H30zM36 4h3v1H36zM40 4h3v1H40zM44 4h3v1H44zM48 4h3v1H48zM52 4h2v1H52zM56 4h1v1H56zM58 4h1v1H58zM60 4h3v1H60zM64,4 h1v1H64zM0 5h1v1H0zM6 5h1v1H6zM10 5h3v1H10zM14 5h1v1H14zM16 5h2v1H16zM19 5h1v1H19zM21 5h1v1H21zM23 5h1v1H23zM25 5h1v1H25zM27 5h1v1H27zM29 5h2v1H29zM34 5h2v1H34zM37 5h3v1H37zM41 5h3v1H41zM45 5h3v1H45zM49 5h3v1H49zM53 5h2v1H53zM58 5h1v1H58zM64,5 h1v1H64zM0 6h7v1H0zM8 6h1v1H8zM10 6h1v1H10zM12 6h1v1H12zM14 6h1v1H14zM16 6h1v1H16zM18 6h1v1H18zM20 6h1v1H20zM22 6h1v1H22zM24 6h1v1H24zM26 6h1v1H26zM28 6h1v1H28zM30 6h1v1H30zM32 6h1v1H32zM34 6h1v1H34zM36 6h1v1H36zM38 6h1v1H38zM40 6h1v1H40zM42 6h1v1H42zM44 6h1v1H44zM46 6h1v1H46zM48 6h1v1H48zM50 6h1v1H50zM52 6h1v1H52zM54 6h1v1H54zM56 6h1v1H56zM58,6 h7v1H58zM8 7h1v1H8zM13 7h1v1H13zM15 7h1v1H15zM17 7h1v1H17zM19 7h1v1H19zM21 7h1v1H21zM23 7h1v1H23zM25 7h1v1H25zM27 7h1v1H27zM30 7h1v1H30zM34 7h1v1H34zM36 7h2v1H36zM40 7h2v1H40zM44 7h2v1H44zM48 7h2v1H48zM52 7h2v1H52zM55 7h1v1H55zM0 8h3v1H0zM4 8h5v1H4zM10 8h3v1H10zM15 8h1v1H15zM18 8h2v1H18zM22 8h2v1H22zM26 8h2v1H26zM29 8h6v1H29zM36 8h1v1H36zM38 8h1v1H38zM40 8h1v1H40zM42 8h1v1H42zM44 8h1v1H44zM46 8h1v1H46zM48 8h1v1H48zM50 8h1v1H50zM52 8h1v1H52zM54 8h2v1H54zM57 8h2v1H57zM62 8h1v1H62zM0 9h2v1H0zM3 9h1v1H3zM5 9h1v1H5zM10 9h1v1H10zM13 9h1v1H13zM16 9h1v1H16zM18 9h2v1H18zM22 9h2v1H22zM26 9h2v1H26zM29 9h1v1H29zM35 9h1v1H35zM37 9h1v1H37zM39 9h1v1H39zM41 9h1v1H41zM43 9h1v1H43zM45 9h1v1H45zM47 9h1v1H47zM49 9h1v1H49zM51 9h1v1H51zM53 9h1v1H53zM55 9h1v1H55zM57 9h1v1H57zM59 9h1v1H59zM61 9h1v1H61zM64,9 h1v1H64zM1 10h1v1H1zM3 10h1v1H3zM5 10h2v1H5zM9 10h1v1H9zM14 10h2v1H14zM18 10h1v1H18zM20 10h1v1H20zM22 10h1v1H22zM24 10h1v1H24zM26 10h1v1H26zM28 10h1v1H28zM30 10h1v1H30zM32 10h1v1H32zM36 10h2v1H36zM40 10h2v1H40zM44 10h2v1H44zM48 10h2v1H48zM52 10h2v1H52zM56 10h2v1H56zM60 10h1v1H60zM62 10h1v1H62zM64,10 h1v1H64zM0 11h1v1H0zM4 11h2v1H4zM7 11h2v1H7zM11 11h3v1H11zM16 11h2v1H16zM19 11h1v1H19zM21 11h1v1H21zM23 11h1v1H23zM25 11h1v1H25zM27 11h1v1H27zM29 11h1v1H29zM32 11h2v1H32zM35 11h3v1H35zM39 11h3v1H39zM43 11h3v1H43zM47 11h3v1H47zM52 11h2v1H52zM55 11h1v1H55zM60 11h2v1H60zM63 11h1v1H63zM1 12h2v1H1zM4 12h3v1H4zM10 12h2v1H10zM15 12h2v1H15zM18 12h1v1H18zM20 12h1v1H20zM22 12h1v1H22zM24 12h1v1H24zM26 12h1v1H26zM28 12h2v1H28zM32 12h1v1H32zM34 12h3v1H34zM38 12h3v1H38zM42 12h1v1H42zM44 12h1v1H44zM46 12h3v1H46zM50 12h3v1H50zM54 12h2v1H54zM57 12h2v1H57zM60 12h2v1H60zM64,12 h1v1H64zM2 13h4v1H2zM7 13h1v1H7zM10 13h1v1H10zM13 13h3v1H13zM18 13h1v1H18zM20 13h1v1H20zM22 13h1v1H22zM24 13h1v1H24zM26 13h1v1H26zM28 13h1v1H28zM30 13h2v1H30zM33 13h1v1H33zM36 13h2v1H36zM41 13h1v1H41zM43 13h1v1H43zM45 13h1v1H45zM48 13h2v1H48zM52 13h2v1H52zM55 13h1v1H55zM59 13h1v1H59zM61 13h1v1H61zM63,13 h2v1H63zM0 14h1v1H0zM3 14h1v1H3zM6 14h1v1H6zM8 14h2v1H8zM11 14h1v1H11zM16 14h1v1H16zM18 14h1v1H18zM22 14h1v1H22zM26 14h1v1H26zM32 14h2v1H32zM36 14h2v1H36zM39 14h3v1H39zM43 14h1v1H43zM45 14h1v1H45zM47 14h1v1H47zM49 14h1v1H49zM51 14h1v1H51zM53 14h1v1H53zM56 14h1v1H56zM60 14h1v1H60zM62,14 h3v1H62zM3 15h3v1H3zM7 15h1v1H7zM9 15h5v1H9zM15 15h1v1H15zM17 15h1v1H17zM20 15h2v1H20zM24 15h2v1H24zM28 15h1v1H28zM30 15h1v1H30zM32 15h2v1H32zM35 15h1v1H35zM37 15h1v1H37zM40 15h2v1H40zM44 15h2v1H44zM48 15h2v1H48zM52 15h2v1H52zM55 15h1v1H55zM57 15h1v1H57zM60 15h2v1H60zM63 15h1v1H63zM0 16h3v1H0zM6 16h1v1H6zM9 16h1v1H9zM11 16h2v1H11zM15 16h2v1H15zM18 16h2v1H18zM22 16h2v1H22zM26 16h2v1H26zM30 16h1v1H30zM32 16h1v1H32zM34 16h2v1H34zM38 16h1v1H38zM40 16h1v1H40zM42 16h1v1H42zM44 16h1v1H44zM46 16h1v1H46zM48 16h1v1H48zM50 16h1v1H50zM52 16h1v1H52zM54 16h2v1H54zM58 16h1v1H58zM60 16h2v1H60zM63,16 h2v1H63zM0 17h1v1H0zM3 17h2v1H3zM8 17h3v1H8zM12 17h4v1H12zM18 17h2v1H18zM22 17h2v1H22zM26 17h2v1H26zM29 17h1v1H29zM31 17h1v1H31zM33 17h1v1H33zM35 17h3v1H35zM39 17h1v1H39zM41 17h1v1H41zM43 17h1v1H43zM45 17h1v1H45zM47 17h1v1H47zM49 17h1v1H49zM51 17h1v1H51zM53 17h1v1H53zM55 17h1v1H55zM57 17h1v1H57zM59 17h1v1H59zM61 17h1v1H61zM64,17 h1v1H64zM0 18h1v1H0zM2 18h1v1H2zM4 18h1v1H4zM6 18h1v1H6zM8 18h2v1H8zM11 18h2v1H11zM14 18h2v1H14zM17 18h1v1H17zM20 18h2v1H20zM24 18h2v1H24zM28 18h1v1H28zM30 18h1v1H30zM32 18h2v1H32zM35 18h1v1H35zM37 18h1v1H37zM40 18h2v1H40zM44 18h2v1H44zM48 18h2v1H48zM52 18h2v1H52zM56 18h2v1H56zM60 18h3v1H60zM64,18 h1v1H64zM3 19h3v1H3zM7 19h4v1H7zM12 19h8v1H12zM21 19h3v1H21zM25 19h3v1H25zM29 19h1v1H29zM32 19h1v1H32zM34 19h1v1H34zM36 19h1v1H36zM38 19h1v1H38zM40 19h2v1H40zM44 19h2v1H44zM48 19h1v1H48zM52 19h1v1H52zM54 19h2v1H54zM57 19h1v1H57zM60 19h1v1H60zM63 19h1v1H63zM1 20h1v1H1zM3 20h2v1H3zM6 20h2v1H6zM10 20h1v1H10zM12 20h3v1H12zM16 20h2v1H16zM19 20h1v1H19zM21 20h1v1H21zM23 20h1v1H23zM25 20h1v1H25zM27 20h1v1H27zM29 20h1v1H29zM32 20h1v1H32zM36 20h3v1H36zM40 20h3v1H40zM44 20h3v1H44zM48 20h3v1H48zM52 20h2v1H52zM58 20h3v1H58zM64,20 h1v1H64zM0 21h1v1H0zM2 21h3v1H2zM9 21h5v1H9zM16 21h2v1H16zM19 21h1v1H19zM21 21h1v1H21zM23 21h1v1H23zM25 21h1v1H25zM27 21h1v1H27zM29 21h1v1H29zM31 21h1v1H31zM34 21h2v1H34zM39 21h1v1H39zM43 21h1v1H43zM47 21h1v1H47zM51 21h1v1H51zM57 21h1v1H57zM61 21h1v1H61zM64,21 h1v1H64zM0 22h1v1H0zM2 22h1v1H2zM6 22h1v1H6zM8 22h2v1H8zM12 22h2v1H12zM18 22h1v1H18zM20 22h1v1H20zM22 22h1v1H22zM24 22h1v1H24zM26 22h1v1H26zM28 22h1v1H28zM30 22h1v1H30zM32 22h1v1H32zM34 22h1v1H34zM36 22h1v1H36zM38 22h1v1H38zM40 22h2v1H40zM44 22h2v1H44zM48 22h1v1H48zM52 22h1v1H52zM57 22h1v1H57zM60 22h1v1H60zM62 22h1v1H62zM64,22 h1v1H64zM1 23h1v1H1zM5 23h1v1H5zM7 23h1v1H7zM16 23h2v1H16zM19 23h1v1H19zM21 23h1v1H21zM23 23h1v1H23zM25 23h1v1H25zM27 23h1v1H27zM29 23h1v1H29zM31 23h1v1H31zM34 23h1v1H34zM36 23h2v1H36zM40 23h2v1H40zM44 23h2v1H44zM48 23h2v1H48zM52 23h2v1H52zM56 23h2v1H56zM60 23h2v1H60zM63 23h1v1H63zM0 24h5v1H0zM6 24h4v1H6zM11 24h1v1H11zM13 24h3v1H13zM18 24h2v1H18zM22 24h2v1H22zM26 24h2v1H26zM29 24h1v1H29zM31 24h1v1H31zM33 24h2v1H33zM36 24h1v1H36zM38 24h1v1H38zM40 24h1v1H40zM42 24h1v1H42zM44 24h1v1H44zM46 24h1v1H46zM48 24h1v1H48zM50 24h1v1H50zM52 24h1v1H52zM54 24h2v1H54zM58 24h1v1H58zM60 24h2v1H60zM64,24 h1v1H64zM0 25h1v1H0zM8 25h5v1H8zM15 25h1v1H15zM18 25h2v1H18zM22 25h2v1H22zM26 25h2v1H26zM29 25h1v1H29zM31 25h3v1H31zM35 25h1v1H35zM37 25h1v1H37zM39 25h1v1H39zM41 25h1v1H41zM43 25h1v1H43zM45 25h1v1H45zM47 25h1v1H47zM49 25h1v1H49zM51 25h1v1H51zM53 25h1v1H53zM55 25h1v1H55zM57 25h1v1H57zM59 25h1v1H59zM61 25h1v1H61zM64,25 h1v1H64zM0 26h3v1H0zM4 26h4v1H4zM10 26h2v1H10zM13 26h1v1H13zM16 26h1v1H16zM18 26h1v1H18zM20 26h1v1H20zM22 26h1v1H22zM24 26h1v1H24zM26 26h1v1H26zM28 26h1v1H28zM30 26h2v1H30zM33 26h1v1H33zM36 26h2v1H36zM40 26h2v1H40zM44 26h2v1H44zM48 26h2v1H48zM52 26h2v1H52zM56 26h2v1H56zM60 26h1v1H60zM62 26h1v1H62zM64,26 h1v1H64zM1 27h2v1H1zM5 27h1v1H5zM7 27h4v1H7zM13 27h3v1H13zM17 27h1v1H17zM19 27h1v1H19zM21 27h1v1H21zM23 27h1v1H23zM25 27h1v1H25zM27 27h1v1H27zM29 27h1v1H29zM32 27h2v1H32zM35 27h3v1H35zM39 27h3v1H39zM43 27h3v1H43zM48 27h2v1H48zM51 27h3v1H51zM55 27h1v1H55zM60 27h2v1H60zM63 27h1v1H63zM2 28h2v1H2zM5 28h2v1H5zM8 28h2v1H8zM11 28h2v1H11zM15 28h2v1H15zM18 28h3v1H18zM22 28h3v1H22zM26 28h4v1H26zM32 28h1v1H32zM34 28h3v1H34zM38 28h3v1H38zM42 28h3v1H42zM46 28h1v1H46zM48 28h1v1H48zM50 28h1v1H50zM52 28h1v1H52zM54 28h2v1H54zM57 28h2v1H57zM60 28h2v1H60zM64,28 h1v1H64zM1 29h2v1H1zM5 29h1v1H5zM7 29h1v1H7zM9 29h4v1H9zM15 29h1v1H15zM18 29h2v1H18zM22 29h2v1H22zM26 29h2v1H26zM29 29h1v1H29zM31 29h1v1H31zM33 29h1v1H33zM35 29h3v1H35zM39 29h1v1H39zM41 29h1v1H41zM43 29h1v1H43zM45 29h1v1H45zM47 29h3v1H47zM51 29h1v1H51zM53 29h1v1H53zM55 29h1v1H55zM59 29h1v1H59zM61 29h1v1H61zM63,29 h2v1H63zM1 30h1v1H1zM4 30h5v1H4zM10 30h1v1H10zM15 30h2v1H15zM18 30h3v1H18zM22 30h3v1H22zM26 30h3v1H26zM30 30h6v1H30zM37 30h1v1H37zM39 30h3v1H39zM43 30h1v1H43zM45 30h1v1H45zM48 30h2v1H48zM51 30h1v1H51zM53 30h1v1H53zM56 30h5v1H56zM62,30 h3v1H62zM0 31h1v1H0zM4 31h1v1H4zM8 31h2v1H8zM11 31h2v1H11zM15 31h1v1H15zM17 31h1v1H17zM19 31h1v1H19zM21 31h1v1H21zM23 31h1v1H23zM25 31h1v1H25zM27 31h1v1H27zM30 31h1v1H30zM34 31h2v1H34zM37 31h1v1H37zM40 31h2v1H40zM44 31h2v1H44zM48 31h2v1H48zM52 31h2v1H52zM55 31h2v1H55zM60 31h2v1H60zM63 31h1v1H63zM1 32h2v1H1zM4 32h1v1H4zM6 32h1v1H6zM8 32h3v1H8zM12 32h1v1H12zM15 32h1v1H15zM18 32h2v1H18zM22 32h2v1H22zM26 32h2v1H26zM30 32h1v1H30zM32 32h1v1H32zM34 32h1v1H34zM36 32h1v1H36zM38 32h1v1H38zM40 32h1v1H40zM42 32h1v1H42zM44 32h1v1H44zM46 32h1v1H46zM48 32h1v1H48zM50 32h1v1H50zM52 32h1v1H52zM54 32h1v1H54zM56 32h1v1H56zM58 32h1v1H58zM60 32h2v1H60zM0 33h1v1H0zM2 33h3v1H2zM8 33h1v1H8zM12 33h1v1H12zM15 33h1v1H15zM18 33h2v1H18zM22 33h2v1H22zM26 33h2v1H26zM29 33h2v1H29zM34 33h2v1H34zM37 33h1v1H37zM39 33h1v1H39zM41 33h1v1H41zM43 33h1v1H43zM45 33h1v1H45zM47 33h1v1H47zM49 33h1v1H49zM51 33h1v1H51zM53 33h1v1H53zM55 33h2v1H55zM60 33h1v1H60zM62 33h1v1H62zM64,33 h1v1H64zM0 34h2v1H0zM3 34h6v1H3zM10 34h1v1H10zM16 34h1v1H16zM18 34h1v1H18zM20 34h1v1H20zM22 34h1v1H22zM24 34h1v1H24zM26 34h1v1H26zM28 34h1v1H28zM30 34h5v1H30zM36 34h2v1H36zM40 34h2v1H40zM44 34h2v1H44zM48 34h2v1H48zM52 34h2v1H52zM55 34h6v1H55zM64,34 h1v1H64zM0 35h1v1H0zM2 35h2v1H2zM9 35h1v1H9zM11 35h2v1H11zM15 35h1v1H15zM19 35h1v1H19zM23 35h1v1H23zM27 35h1v1H27zM29 35h3v1H29zM34 35h1v1H34zM36 35h2v1H36zM40 35h1v1H40zM44 35h1v1H44zM48 35h2v1H48zM52 35h1v1H52zM54 35h1v1H54zM57 35h3v1H57zM63 35h1v1H63zM1 36h2v1H1zM5 36h2v1H5zM11 36h2v1H11zM15 36h1v1H15zM18 36h2v1H18zM22 36h2v1H22zM26 36h2v1H26zM30 36h2v1H30zM34 36h1v1H34zM36 36h1v1H36zM38 36h1v1H38zM40 36h2v1H40zM44 36h1v1H44zM46 36h1v1H46zM48 36h3v1H48zM52 36h3v1H52zM56 36h1v1H56zM58 36h2v1H58zM64,36 h1v1H64zM0 37h1v1H0zM2 37h2v1H2zM5 37h1v1H5zM11 37h1v1H11zM13 37h3v1H13zM19 37h1v1H19zM23 37h1v1H23zM27 37h1v1H27zM29 37h1v1H29zM31 37h1v1H31zM33 37h1v1H33zM35 37h1v1H35zM39 37h1v1H39zM43 37h1v1H43zM47 37h1v1H47zM51 37h1v1H51zM53 37h1v1H53zM55 37h1v1H55zM57 37h1v1H57zM59 37h1v1H59zM61 37h1v1H61zM64,37 h1v1H64zM0 38h4v1H0zM5 38h2v1H5zM9 38h1v1H9zM12 38h1v1H12zM14 38h1v1H14zM16 38h1v1H16zM18 38h1v1H18zM20 38h1v1H20zM22 38h1v1H22zM24 38h1v1H24zM26 38h1v1H26zM28 38h3v1H28zM32 38h1v1H32zM34 38h1v1H34zM36 38h1v1H36zM40 38h1v1H40zM44 38h1v1H44zM48 38h1v1H48zM52 38h1v1H52zM56 38h1v1H56zM58 38h1v1H58zM60 38h1v1H60zM62 38h1v1H62zM64,38 h1v1H64zM0 39h4v1H0zM5 39h1v1H5zM7 39h1v1H7zM10 39h1v1H10zM14 39h2v1H14zM17 39h1v1H17zM19 39h1v1H19zM21 39h1v1H21zM23 39h1v1H23zM25 39h1v1H25zM27 39h1v1H27zM29 39h3v1H29zM34 39h1v1H34zM36 39h2v1H36zM40 39h2v1H40zM44 39h2v1H44zM48 39h2v1H48zM52 39h2v1H52zM58 39h2v1H58zM61 39h1v1H61zM63 39h1v1H63zM0 40h1v1H0zM2 40h1v1H2zM5 40h3v1H5zM10 40h1v1H10zM12 40h1v1H12zM14 40h2v1H14zM18 40h2v1H18zM22 40h2v1H22zM26 40h2v1H26zM30 40h2v1H30zM34 40h1v1H34zM36 40h1v1H36zM38 40h1v1H38zM40 40h1v1H40zM42 40h1v1H42zM44 40h1v1H44zM46 40h1v1H46zM48 40h1v1H48zM50 40h1v1H50zM52 40h1v1H52zM54 40h1v1H54zM56 40h1v1H56zM58 40h2v1H58zM61 40h1v1H61zM64,40 h1v1H64zM0 41h1v1H0zM2 41h1v1H2zM4 41h1v1H4zM8 41h1v1H8zM10 41h1v1H10zM13 41h3v1H13zM18 41h2v1H18zM22 41h2v1H22zM26 41h2v1H26zM29 41h1v1H29zM31 41h1v1H31zM35 41h1v1H35zM37 41h1v1H37zM39 41h1v1H39zM41 41h1v1H41zM43 41h1v1H43zM45 41h1v1H45zM47 41h1v1H47zM49 41h1v1H49zM51 41h1v1H51zM53 41h1v1H53zM56 41h2v1H56zM61 41h1v1H61zM64,41 h1v1H64zM1 42h7v1H1zM12 42h1v1H12zM14 42h1v1H14zM16 42h1v1H16zM18 42h1v1H18zM20 42h1v1H20zM22 42h1v1H22zM24 42h1v1H24zM26 42h1v1H26zM28 42h3v1H28zM32 42h1v1H32zM34 42h1v1H34zM36 42h2v1H36zM40 42h2v1H40zM44 42h2v1H44zM48 42h2v1H48zM52 42h2v1H52zM55 42h1v1H55zM58 42h2v1H58zM62 42h1v1H62zM64,42 h1v1H64zM1 43h1v1H1zM5 43h1v1H5zM7 43h1v1H7zM9 43h1v1H9zM11 43h1v1H11zM15 43h1v1H15zM17 43h1v1H17zM19 43h1v1H19zM21 43h1v1H21zM23 43h1v1H23zM25 43h1v1H25zM27 43h1v1H27zM29 43h3v1H29zM35 43h3v1H35zM40 43h2v1H40zM43 43h3v1H43zM48 43h2v1H48zM51 43h3v1H51zM58 43h2v1H58zM61 43h1v1H61zM63 43h1v1H63zM0 44h1v1H0zM2 44h1v1H2zM4 44h1v1H4zM6 44h3v1H6zM11 44h1v1H11zM13 44h1v1H13zM16 44h1v1H16zM18 44h1v1H18zM20 44h1v1H20zM22 44h1v1H22zM24 44h1v1H24zM26 44h1v1H26zM28 44h1v1H28zM30 44h3v1H30zM36 44h1v1H36zM38 44h3v1H38zM42 44h3v1H42zM46 44h3v1H46zM50 44h3v1H50zM54 44h1v1H54zM56 44h1v1H56zM58 44h2v1H58zM61 44h1v1H61zM64,44 h1v1H64zM2 45h1v1H2zM4 45h2v1H4zM7 45h1v1H7zM11 45h3v1H11zM16 45h1v1H16zM18 45h1v1H18zM20 45h1v1H20zM22 45h1v1H22zM24 45h1v1H24zM26 45h1v1H26zM28 45h2v1H28zM31 45h1v1H31zM34 45h4v1H34zM41 45h1v1H41zM45 45h1v1H45zM49 45h1v1H49zM51 45h3v1H51zM55 45h1v1H55zM57 45h1v1H57zM59 45h1v1H59zM61 45h1v1H61zM63 45h1v1H63zM1 46h4v1H1zM6 46h1v1H6zM9 46h3v1H9zM18 46h1v1H18zM22 46h1v1H22zM26 46h1v1H26zM29 46h4v1H29zM34 46h1v1H34zM37 46h1v1H37zM39 46h1v1H39zM41 46h1v1H41zM44 46h2v1H44zM48 46h2v1H48zM51 46h3v1H51zM58 46h1v1H58zM60 46h1v1H60zM62,46 h3v1H62zM3 47h3v1H3zM8 47h1v1H8zM10 47h1v1H10zM13 47h2v1H13zM16 47h2v1H16zM20 47h2v1H20zM24 47h2v1H24zM28 47h1v1H28zM30 47h2v1H30zM34 47h1v1H34zM36 47h2v1H36zM40 47h2v1H40zM44 47h2v1H44zM48 47h2v1H48zM52 47h2v1H52zM58 47h2v1H58zM61 47h1v1H61zM0 48h2v1H0zM3 48h1v1H3zM5 48h2v1H5zM10 48h4v1H10zM15 48h1v1H15zM18 48h2v1H18zM22 48h2v1H22zM26 48h2v1H26zM29 48h1v1H29zM31 48h1v1H31zM34 48h1v1H34zM36 48h1v1H36zM38 48h1v1H38zM40 48h1v1H40zM42 48h1v1H42zM44 48h1v1H44zM46 48h1v1H46zM48 48h1v1H48zM50 48h1v1H50zM52 48h1v1H52zM54 48h1v1H54zM56 48h2v1H56zM59 48h1v1H59zM61 48h1v1H61zM64,48 h1v1H64zM3 49h2v1H3zM9 49h1v1H9zM11 49h1v1H11zM15 49h1v1H15zM18 49h2v1H18zM22 49h2v1H22zM26 49h2v1H26zM31 49h1v1H31zM33 49h1v1H33zM35 49h1v1H35zM37 49h1v1H37zM39 49h1v1H39zM41 49h1v1H41zM43 49h1v1H43zM45 49h1v1H45zM47 49h1v1H47zM49 49h1v1H49zM51 49h1v1H51zM53 49h1v1H53zM55 49h1v1H55zM59 49h1v1H59zM61 49h2v1H61zM64,49 h1v1H64zM1 50h4v1H1zM6 50h2v1H6zM9 50h3v1H9zM16 50h2v1H16zM20 50h2v1H20zM24 50h2v1H24zM28 50h1v1H28zM32 50h1v1H32zM34 50h1v1H34zM36 50h2v1H36zM40 50h2v1H40zM44 50h2v1H44zM48 50h2v1H48zM52 50h2v1H52zM57 50h2v1H57zM60 50h1v1H60zM64,50 h1v1H64zM5 51h1v1H5zM7 51h6v1H7zM14 51h2v1H14zM17 51h3v1H17zM21 51h3v1H21zM25 51h3v1H25zM29 51h1v1H29zM31 51h1v1H31zM34 51h1v1H34zM36 51h1v1H36zM40 51h2v1H40zM44 51h2v1H44zM48 51h1v1H48zM52 51h1v1H52zM54 51h1v1H54zM57 51h3v1H57zM63 51h1v1H63zM0 52h4v1H0zM5 52h2v1H5zM8 52h1v1H8zM10 52h4v1H10zM15 52h1v1H15zM17 52h1v1H17zM19 52h1v1H19zM21 52h1v1H21zM23 52h1v1H23zM25 52h1v1H25zM27 52h1v1H27zM30 52h2v1H30zM34 52h1v1H34zM36 52h1v1H36zM38 52h1v1H38zM40 52h3v1H40zM44 52h3v1H44zM48 52h1v1H48zM50 52h1v1H50zM52 52h2v1H52zM56 52h1v1H56zM58 52h2v1H58zM64,52 h1v1H64zM0 53h1v1H0zM4 53h1v1H4zM11 53h5v1H11zM17 53h1v1H17zM19 53h1v1H19zM21 53h1v1H21zM23 53h1v1H23zM25 53h1v1H25zM27 53h1v1H27zM29 53h1v1H29zM31 53h1v1H31zM33 53h1v1H33zM35 53h1v1H35zM39 53h1v1H39zM43 53h1v1H43zM45 53h1v1H45zM47 53h1v1H47zM49 53h1v1H49zM51 53h1v1H51zM55 53h1v1H55zM57 53h1v1H57zM59 53h1v1H59zM61 53h1v1H61zM64,53 h1v1H64zM2 54h2v1H2zM5 54h2v1H5zM9 54h1v1H9zM14 54h1v1H14zM16 54h1v1H16zM18 54h1v1H18zM20 54h1v1H20zM22 54h1v1H22zM24 54h1v1H24zM26 54h1v1H26zM28 54h3v1H28zM32 54h1v1H32zM34 54h1v1H34zM36 54h1v1H36zM40 54h2v1H40zM44 54h2v1H44zM48 54h1v1H48zM52 54h1v1H52zM56 54h1v1H56zM58 54h1v1H58zM60 54h1v1H60zM62 54h1v1H62zM64,54 h1v1H64zM0 55h1v1H0zM3 55h1v1H3zM8 55h1v1H8zM10 55h3v1H10zM15 55h1v1H15zM17 55h1v1H17zM19 55h1v1H19zM21 55h1v1H21zM23 55h1v1H23zM25 55h1v1H25zM27 55h1v1H27zM29 55h3v1H29zM34 55h1v1H34zM36 55h2v1H36zM40 55h2v1H40zM44 55h2v1H44zM48 55h2v1H48zM52 55h2v1H52zM56 55h1v1H56zM58 55h2v1H58zM61 55h1v1H61zM63 55h1v1H63zM1 56h2v1H1zM4 56h1v1H4zM6 56h1v1H6zM8 56h2v1H8zM12 56h4v1H12zM18 56h2v1H18zM22 56h2v1H22zM26 56h2v1H26zM30 56h5v1H30zM36 56h1v1H36zM38 56h1v1H38zM40 56h1v1H40zM42 56h1v1H42zM44 56h1v1H44zM46 56h1v1H46zM48 56h1v1H48zM50 56h1v1H50zM52 56h1v1H52zM54 56h1v1H54zM56 56h6v1H56zM64,56 h1v1H64zM8 57h1v1H8zM12 57h2v1H12zM15 57h1v1H15zM18 57h2v1H18zM22 57h2v1H22zM26 57h2v1H26zM29 57h2v1H29zM34 57h2v1H34zM37 57h1v1H37zM39 57h1v1H39zM41 57h1v1H41zM43 57h1v1H43zM45 57h1v1H45zM47 57h1v1H47zM49 57h1v1H49zM51 57h1v1H51zM53 57h1v1H53zM56 57h1v1H56zM60 57h2v1H60zM64,57 h1v1H64zM0 58h7v1H0zM8 58h4v1H8zM13 58h2v1H13zM16 58h1v1H16zM18 58h1v1H18zM20 58h1v1H20zM22 58h1v1H22zM24 58h1v1H24zM26 58h1v1H26zM28 58h1v1H28zM30 58h1v1H30zM32 58h1v1H32zM34 58h1v1H34zM36 58h2v1H36zM40 58h2v1H40zM44 58h2v1H44zM48 58h2v1H48zM52 58h2v1H52zM56 58h1v1H56zM58 58h1v1H58zM60 58h1v1H60zM62 58h1v1H62zM64,58 h1v1H64zM0 59h1v1H0zM6 59h1v1H6zM8 59h8v1H8zM17 59h1v1H17zM19 59h1v1H19zM21 59h1v1H21zM23 59h1v1H23zM25 59h1v1H25zM27 59h1v1H27zM29 59h2v1H29zM34 59h4v1H34zM39 59h3v1H39zM43 59h3v1H43zM48 59h2v1H48zM51 59h3v1H51zM55 59h2v1H55zM60 59h2v1H60zM63 59h1v1H63zM0 60h1v1H0zM2 60h3v1H2zM6 60h1v1H6zM8 60h2v1H8zM11 60h2v1H11zM14 60h3v1H14zM18 60h3v1H18zM22 60h3v1H22zM26 60h3v1H26zM30 60h7v1H30zM38 60h1v1H38zM40 60h1v1H40zM42 60h3v1H42zM46 60h3v1H46zM50 60h3v1H50zM54 60h8v1H54zM64,60 h1v1H64zM0 61h1v1H0zM2 61h3v1H2zM6 61h1v1H6zM9 61h2v1H9zM12 61h4v1H12zM18 61h2v1H18zM22 61h2v1H22zM26 61h2v1H26zM30 61h1v1H30zM32 61h1v1H32zM34 61h2v1H34zM37 61h1v1H37zM41 61h1v1H41zM45 61h1v1H45zM49 61h1v1H49zM51 61h3v1H51zM56 61h2v1H56zM59 61h3v1H59zM63 61h1v1H63zM0 62h1v1H0zM2 62h3v1H2zM6 62h1v1H6zM8 62h1v1H8zM10 62h1v1H10zM13 62h4v1H13zM18 62h3v1H18zM22 62h3v1H22zM26 62h3v1H26zM30 62h1v1H30zM32 62h1v1H32zM37 62h1v1H37zM41 62h1v1H41zM43 62h1v1H43zM45 62h1v1H45zM47 62h1v1H47zM49 62h1v1H49zM51 62h1v1H51zM53 62h1v1H53zM56 62h1v1H56zM58 62h3v1H58zM62 62h1v1H62zM64,62 h1v1H64zM0 63h1v1H0zM6 63h1v1H6zM8 63h1v1H8zM13 63h3v1H13zM17 63h1v1H17zM19 63h1v1H19zM21 63h1v1H21zM23 63h1v1H23zM25 63h1v1H25zM27 63h1v1H27zM29 63h1v1H29zM31 63h1v1H31zM34 63h1v1H34zM36 63h2v1H36zM40 63h2v1H40zM44 63h2v1H44zM48 63h2v1H48zM52 63h2v1H52zM55 63h1v1H55zM57 63h1v1H57zM61 63h1v1H61zM63 63h1v1H63zM0 64h7v1H0zM8 64h5v1H8zM14 64h2v1H14zM18 64h2v1H18zM22 64h2v1H22zM26 64h2v1H26zM30 64h1v1H30zM32 64h1v1H32zM34 64h1v1H34zM36 64h1v1H36zM38 64h1v1H38zM40 64h1v1H40zM42 64h1v1H42zM44 64h1v1H44zM46 64h1v1H46zM48 64h1v1H48zM50 64h1v1H50zM52 64h1v1H52zM54 64h1v1H54zM56 64h2v1H56zM60 64h2v1H60zM63,64 h2v1H63z" shape-rendering="crispEdges"/></svg>