<svg xmlns="http://www.w3.org/2000/svg" height="300" width="300" viewBox="0 0 61 61" role="img" aria-label="QR code containing user picks" style="cursor: pointer;"><path fill="#FFFFFF" d="M0,0 h61v61H0z" shape-rendering="crispEdges"/><path fill="#000000" d="M0 0h7v1H0zM9 0h1v1H9zM11 0h1v1H11zM13 0h3v1H13zM17 0h1v1H17zM22 0h1v1H22zM24 0h4v1H24zM30 0h4v1H30zM35 0h3v1H35zM39 0h2v1H39zM42 0h2v1H42zM45 0h1v1H45zM48 0h1v1H48zM51 0h2v1H51zM54,0 h7v1H54zM0 1h1v1H0zM6 1h1v1H6zM8 1h4v1H8zM15 1h1v1H15zM18 1h2v1H18zM21 1h1v1H21zM23 1h2v1H23zM29 1h2v1H29zM34 1h1v1H34zM36 1h1v1H36zM38 1h4v1H38zM45 1h3v1H45zM51 1h2v1H51zM54 1h1v1H54zM60,1 h1v1H60zM0 2h1v1H0zM2 2h3v1H2zM6 2h1v1H6zM9 2h5v1H9zM15 2h1v1H15zM17 2h2v1H17zM21 2h1v1H21zM24 2h1v1H24zM27 2h1v1H27zM30 2h4v1H30zM35 2h1v1H35zM40 2h1v1H40zM42 2h4v1H42zM47 2h1v1H47zM50 2h3v1H50zM54 2h1v1H54zM56 2h3v1H56zM60,2 h1v1H60zM0 3h1v1H0zM2 3h3v1H2zM6 3h1v1H6zM8 3h1v1H8zM10 3h2v1H10zM16 3h1v1H16zM18 3h4v1H18zM23 3h1v1H23zM28 3h2v1H28zM32 3h1v1H32zM36 3h2v1H36zM39 3h1v1H39zM42 3h1v1H42zM45 3h1v1H45zM48 3h1v1H48zM50 3h1v1H50zM52 3h1v1H52zM54 3h1v1H54zM56 3h3v1H56zM60,3 h1v1H60zM0 4h1v1H0zM2 4h3v1H2zM6 4h1v1H6zM9 4h1v1H9zM11 4h1v1H11zM13 4h3v1H13zM17 4h1v1H17zM22 4h1v1H22zM24 4h10v1H24zM36 4h1v1H36zM42 4h1v1H42zM45 4h1v1H45zM48 4h4v1H48zM54 4h1v1H54zM56 4h3v1H56zM60,4 h1v1H60zM0 5h1v1H0zM6 5h1v1H6zM8 5h4v1H8zM18 5h1v1H18zM21 5h1v1H21zM23 5h2v1H23zM27 5h2v1H27zM32 5h1v1H32zM34 5h1v1H34zM36 5h4v1H36zM41 5h1v1H41zM46 5h1v1H46zM48 5h3v1H48zM54 5h1v1H54zM60,5 h1v1H60zM0 6h7v1H0zM8 6h1v1H8zM10 6h1v1H10zM12 6h1v1H12zM14 6h1v1H14zM16 6h1v1H16zM18 6h1v1H18zM20 6h1v1H20zM22 6h1v1H22zM24 6h1v1H24zM26 6h1v1H26zM28 6h1v1H28zM30 6h1v1H30zM32 6h1v1H32zM34 6h1v1H34zM36 6h1v1H36zM38 6h1v1H38zM40 6h1v1H40zM42 6h1v1H42zM44 6h1v1H44zM46 6h1v1H46zM48 6h1v1H48zM50 6h1v1H50zM52 6h1v1H52zM54,6 h7v1H54zM9 7h5v1H9zM15 7h1v1H15zM17 7h2v1H17zM21 7h1v1H21zM24 7h1v1H24zM28 7h1v1H28zM32 7h3v1H32zM40 7h1v1H40zM42 7h4v1H42zM47 7h1v1H47zM49 7h3v1H49zM0 8h5v1H0zM6 8h4v1H6zM11 8h1v1H11zM16 8h1v1H16zM18 8h4v1H18zM23 8h1v1H23zM27 8h7v1H27zM35 8h3v1H35zM39 8h1v1H39zM43 8h1v1H43zM45 8h1v1H45zM48 8h1v1H48zM50 8h1v1H50zM52 8h2v1H52zM55 8h1v1H55zM57 8h1v1H57zM59 8h1v1H59zM0 9h2v1H0zM5 9h1v1H5zM7 9h1v1H7zM9 9h1v1H9zM11 9h5v1H11zM17 9h1v1H17zM22 9h1v1H22zM24 9h4v1H24zM30 9h3v1H30zM36 9h1v1H36zM42 9h2v1H42zM45 9h1v1H45zM48 9h2v1H48zM51 9h1v1H51zM53 9h3v1H53zM57 9h1v1H57zM1 10h1v1H1zM3 10h1v1H3zM5 10h2v1H5zM9 10h2v1H9zM12 10h1v1H12zM15 10h1v1H15zM18 10h2v1H18zM21 10h1v1H21zM24 10h1v1H24zM28 10h3v1H28zM33 10h7v1H33zM41 10h1v1H41zM46 10h1v1H46zM48 10h1v1H48zM50 10h1v1H50zM53 10h1v1H53zM57 10h1v1H57zM59,10 h2v1H59zM4 11h2v1H4zM8 11h2v1H8zM12 11h1v1H12zM15 11h1v1H15zM18 11h1v1H18zM24 11h1v1H24zM27 11h1v1H27zM30 11h2v1H30zM33 11h1v1H33zM35 11h1v1H35zM40 11h1v1H40zM42 11h4v1H42zM47 11h1v1H47zM51 11h1v1H51zM54 11h4v1H54zM60,11 h1v1H60zM0 12h1v1H0zM2 12h2v1H2zM5 12h2v1H5zM11 12h1v1H11zM16 12h1v1H16zM18 12h4v1H18zM23 12h1v1H23zM27 12h1v1H27zM29 12h1v1H29zM36 12h2v1H36zM39 12h1v1H39zM41 12h2v1H41zM45 12h1v1H45zM48 12h2v1H48zM52 12h3v1H52zM58,12 h3v1H58zM1 13h4v1H1zM7 13h3v1H7zM13 13h3v1H13zM17 13h1v1H17zM22 13h1v1H22zM24 13h4v1H24zM30 13h4v1H30zM35 13h2v1H35zM39 13h1v1H39zM42 13h2v1H42zM45 13h1v1H45zM47 13h2v1H47zM51 13h1v1H51zM54 13h1v1H54zM57 13h1v1H57zM59 13h1v1H59zM0 14h5v1H0zM6 14h3v1H6zM10 14h2v1H10zM18 14h1v1H18zM21 14h1v1H21zM23 14h2v1H23zM28 14h3v1H28zM34 14h1v1H34zM36 14h4v1H36zM41 14h1v1H41zM46 14h1v1H46zM48 14h4v1H48zM53 14h1v1H53zM57 14h1v1H57zM60,14 h1v1H60zM0 15h1v1H0zM2 15h2v1H2zM7 15h1v1H7zM10 15h1v1H10zM15 15h1v1H15zM18 15h1v1H18zM21 15h1v1H21zM24 15h2v1H24zM27 15h1v1H27zM30 15h1v1H30zM33 15h1v1H33zM35 15h1v1H35zM38 15h1v1H38zM40 15h1v1H40zM42 15h3v1H42zM46 15h1v1H46zM51 15h1v1H51zM54 15h4v1H54zM60,15 h1v1H60zM5 16h2v1H5zM9 16h3v1H9zM16 16h1v1H16zM18 16h4v1H18zM23 16h1v1H23zM27 16h1v1H27zM29 16h1v1H29zM33 16h1v1H33zM36 16h2v1H36zM41 16h2v1H41zM46 16h4v1H46zM51 16h4v1H51zM58 16h1v1H58zM60,16 h1v1H60zM1 17h5v1H1zM8 17h2v1H8zM11 17h2v1H11zM15 17h1v1H15zM17 17h1v1H17zM22 17h1v1H22zM24 17h4v1H24zM30 17h4v1H30zM36 17h2v1H36zM42 17h2v1H42zM51 17h1v1H51zM54 17h2v1H54zM57 17h1v1H57zM59 17h1v1H59zM0 18h4v1H0zM6 18h1v1H6zM9 18h3v1H9zM14 18h2v1H14zM18 18h2v1H18zM21 18h1v1H21zM23 18h2v1H23zM28 18h1v1H28zM30 18h1v1H30zM34 18h1v1H34zM36 18h1v1H36zM38 18h1v1H38zM40 18h2v1H40zM46 18h8v1H46zM60,18 h1v1H60zM0 19h3v1H0zM5 19h1v1H5zM7 19h2v1H7zM11 19h1v1H11zM15 19h1v1H15zM17 19h2v1H17zM24 19h2v1H24zM27 19h1v1H27zM30 19h1v1H30zM33 19h1v1H33zM35 19h1v1H35zM40 19h1v1H40zM42 19h4v1H42zM47 19h1v1H47zM52 19h1v1H52zM54 19h4v1H54zM60,19 h1v1H60zM1 20h2v1H1zM4 20h1v1H4zM6 20h1v1H6zM11 20h4v1H11zM16 20h1v1H16zM18 20h4v1H18zM23 20h1v1H23zM29 20h1v1H29zM33 20h1v1H33zM36 20h2v1H36zM39 20h1v1H39zM41 20h2v1H41zM48 20h1v1H48zM52 20h3v1H52zM58 20h1v1H58zM60,20 h1v1H60zM1 21h1v1H1zM4 21h1v1H4zM8 21h1v1H8zM11 21h1v1H11zM13 21h3v1H13zM17 21h1v1H17zM22 21h1v1H22zM24 21h4v1H24zM30 21h4v1H30zM35 21h2v1H35zM39 21h1v1H39zM42 21h1v1H42zM45 21h1v1H45zM47 21h2v1H47zM51 21h1v1H51zM54 21h1v1H54zM57 21h1v1H57zM59 21h1v1H59zM0 22h3v1H0zM4 22h3v1H4zM10 22h4v1H10zM18 22h2v1H18zM21 22h1v1H21zM24 22h1v1H24zM28 22h3v1H28zM34 22h1v1H34zM36 22h4v1H36zM41 22h1v1H41zM46 22h1v1H46zM48 22h3v1H48zM53 22h1v1H53zM60,22 h1v1H60zM0 23h5v1H0zM8 23h3v1H8zM12 23h1v1H12zM15 23h1v1H15zM17 23h2v1H17zM21 23h1v1H21zM24 23h1v1H24zM27 23h1v1H27zM30 23h2v1H30zM33 23h2v1H33zM40 23h2v1H40zM43 23h3v1H43zM47 23h1v1H47zM51 23h1v1H51zM53 23h4v1H53zM59,23 h2v1H59zM1 24h1v1H1zM3 24h1v1H3zM6 24h6v1H6zM13 24h2v1H13zM16 24h1v1H16zM18 24h4v1H18zM23 24h1v1H23zM29 24h1v1H29zM31 24h6v1H31zM39 24h1v1H39zM41 24h1v1H41zM43 24h1v1H43zM45 24h1v1H45zM48 24h3v1H48zM52 24h4v1H52zM57 24h2v1H57zM60,24 h1v1H60zM3 25h2v1H3zM12 25h4v1H12zM17 25h1v1H17zM22 25h1v1H22zM24 25h4v1H24zM30 25h4v1H30zM36 25h1v1H36zM39 25h1v1H39zM41 25h3v1H41zM45 25h1v1H45zM48 25h2v1H48zM51 25h1v1H51zM53 25h5v1H53zM0 26h1v1H0zM5 26h2v1H5zM9 26h1v1H9zM12 26h1v1H12zM18 26h1v1H18zM21 26h1v1H21zM24 26h1v1H24zM28 26h3v1H28zM33 26h2v1H33zM36 26h4v1H36zM43 26h2v1H43zM46 26h1v1H46zM48 26h1v1H48zM50 26h2v1H50zM57 26h1v1H57zM59,26 h2v1H59zM3 27h2v1H3zM8 27h1v1H8zM10 27h2v1H10zM13 27h1v1H13zM15 27h1v1H15zM17 27h2v1H17zM21 27h1v1H21zM24 27h1v1H24zM27 27h1v1H27zM30 27h1v1H30zM33 27h1v1H33zM35 27h1v1H35zM40 27h1v1H40zM42 27h4v1H42zM47 27h1v1H47zM51 27h1v1H51zM54 27h4v1H54zM59,27 h2v1H59zM1 28h1v1H1zM4 28h5v1H4zM11 28h1v1H11zM14 28h1v1H14zM16 28h1v1H16zM18 28h4v1H18zM23 28h1v1H23zM28 28h6v1H28zM36 28h1v1H36zM39 28h1v1H39zM41 28h2v1H41zM48 28h1v1H48zM52 28h5v1H52zM58 28h1v1H58zM60,28 h1v1H60zM4 29h1v1H4zM8 29h1v1H8zM10 29h1v1H10zM14 29h2v1H14zM17 29h1v1H17zM22 29h1v1H22zM24 29h5v1H24zM32 29h2v1H32zM35 29h2v1H35zM42 29h2v1H42zM45 29h1v1H45zM47 29h2v1H47zM52 29h1v1H52zM56 29h2v1H56zM59 29h1v1H59zM0 30h1v1H0zM2 30h1v1H2zM4 30h1v1H4zM6 30h1v1H6zM8 30h2v1H8zM11 30h1v1H11zM13 30h3v1H13zM18 30h1v1H18zM21 30h1v1H21zM24 30h1v1H24zM27 30h2v1H27zM30 30h1v1H30zM32 30h1v1H32zM34 30h1v1H34zM36 30h4v1H36zM41 30h1v1H41zM46 30h1v1H46zM48 30h5v1H48zM54 30h1v1H54zM56 30h1v1H56zM60,30 h1v1H60zM0 31h1v1H0zM2 31h3v1H2zM8 31h2v1H8zM13 31h1v1H13zM15 31h1v1H15zM18 31h1v1H18zM24 31h1v1H24zM27 31h2v1H27zM32 31h2v1H32zM35 31h1v1H35zM37 31h1v1H37zM40 31h1v1H40zM42 31h4v1H42zM51 31h2v1H51zM56 31h2v1H56zM60,31 h1v1H60zM0 32h1v1H0zM4 32h6v1H4zM12 32h1v1H12zM14 32h1v1H14zM16 32h1v1H16zM18 32h4v1H18zM23 32h1v1H23zM28 32h6v1H28zM36 32h4v1H36zM42 32h1v1H42zM45 32h4v1H45zM52 32h5v1H52zM58 32h1v1H58zM60,32 h1v1H60zM2 33h1v1H2zM5 33h1v1H5zM7 33h3v1H7zM11 33h1v1H11zM15 33h1v1H15zM17 33h1v1H17zM22 33h1v1H22zM24 33h3v1H24zM29 33h1v1H29zM33 33h1v1H33zM35 33h3v1H35zM42 33h1v1H42zM51 33h1v1H51zM54 33h1v1H54zM57 33h1v1H57zM59 33h1v1H59zM2 34h1v1H2zM6 34h1v1H6zM10 34h1v1H10zM12 34h1v1H12zM18 34h1v1H18zM21 34h1v1H21zM23 34h2v1H23zM27 34h2v1H27zM30 34h3v1H30zM34 34h1v1H34zM36 34h4v1H36zM41 34h1v1H41zM45 34h3v1H45zM49 34h3v1H49zM54 34h2v1H54zM57 34h1v1H57zM60,34 h1v1H60zM1 35h3v1H1zM5 35h1v1H5zM7 35h4v1H7zM15 35h1v1H15zM17 35h2v1H17zM24 35h2v1H24zM27 35h1v1H27zM30 35h1v1H30zM33 35h1v1H33zM35 35h1v1H35zM40 35h1v1H40zM42 35h4v1H42zM47 35h1v1H47zM52 35h2v1H52zM57 35h1v1H57zM60,35 h1v1H60zM0 36h1v1H0zM2 36h1v1H2zM4 36h1v1H4zM6 36h1v1H6zM8 36h5v1H8zM16 36h1v1H16zM18 36h4v1H18zM23 36h1v1H23zM27 36h2v1H27zM30 36h1v1H30zM36 36h1v1H36zM39 36h1v1H39zM41 36h2v1H41zM45 36h1v1H45zM48 36h2v1H48zM51 36h2v1H51zM54 36h3v1H54zM58 36h1v1H58zM60,36 h1v1H60zM0 37h1v1H0zM2 37h1v1H2zM5 37h1v1H5zM11 37h2v1H11zM15 37h1v1H15zM17 37h1v1H17zM22 37h1v1H22zM24 37h3v1H24zM29 37h1v1H29zM33 37h1v1H33zM36 37h1v1H36zM42 37h1v1H42zM45 37h1v1H45zM47 37h2v1H47zM51 37h1v1H51zM53 37h2v1H53zM58 37h2v1H58zM0 38h5v1H0zM6 38h2v1H6zM10 38h2v1H10zM14 38h2v1H14zM18 38h2v1H18zM21 38h1v1H21zM23 38h2v1H23zM27 38h1v1H27zM30 38h3v1H30zM34 38h1v1H34zM36 38h4v1H36zM41 38h1v1H41zM46 38h1v1H46zM48 38h3v1H48zM52 38h1v1H52zM54 38h1v1H54zM57 38h2v1H57zM60,38 h1v1H60zM1 39h2v1H1zM7 39h2v1H7zM10 39h1v1H10zM12 39h2v1H12zM15 39h1v1H15zM18 39h1v1H18zM21 39h1v1H21zM24 39h2v1H24zM27 39h1v1H27zM29 39h2v1H29zM34 39h1v1H34zM36 39h1v1H36zM40 39h3v1H40zM44 39h2v1H44zM47 39h1v1H47zM49 39h2v1H49zM53 39h1v1H53zM59,39 h2v1H59zM1 40h6v1H1zM8 40h1v1H8zM10 40h2v1H10zM13 40h2v1H13zM16 40h1v1H16zM18 40h4v1H18zM23 40h1v1H23zM27 40h2v1H27zM30 40h2v1H30zM33 40h5v1H33zM39 40h1v1H39zM42 40h1v1H42zM45 40h1v1H45zM48 40h4v1H48zM54 40h5v1H54zM60,40 h1v1H60zM0 41h6v1H0zM8 41h1v1H8zM10 41h1v1H10zM12 41h1v1H12zM14 41h2v1H14zM17 41h1v1H17zM22 41h1v1H22zM24 41h3v1H24zM29 41h1v1H29zM35 41h1v1H35zM39 41h1v1H39zM41 41h2v1H41zM45 41h1v1H45zM47 41h3v1H47zM51 41h1v1H51zM54 41h1v1H54zM57 41h1v1H57zM60,41 h1v1H60zM1 42h1v1H1zM3 42h1v1H3zM5 42h3v1H5zM10 42h2v1H10zM18 42h2v1H18zM21 42h1v1H21zM23 42h2v1H23zM27 42h1v1H27zM30 42h1v1H30zM32 42h8v1H32zM43 42h1v1H43zM46 42h1v1H46zM48 42h1v1H48zM50 42h3v1H50zM54 42h2v1H54zM59,42 h2v1H59zM0 43h2v1H0zM3 43h1v1H3zM7 43h2v1H7zM10 43h1v1H10zM12 43h1v1H12zM15 43h1v1H15zM18 43h1v1H18zM24 43h2v1H24zM27 43h1v1H27zM30 43h2v1H30zM33 43h1v1H33zM35 43h1v1H35zM40 43h1v1H40zM42 43h4v1H42zM47 43h1v1H47zM53 43h1v1H53zM57 43h1v1H57zM59,43 h2v1H59zM3 44h1v1H3zM5 44h3v1H5zM10 44h1v1H10zM13 44h1v1H13zM16 44h1v1H16zM18 44h4v1H18zM23 44h1v1H23zM27 44h2v1H27zM30 44h3v1H30zM36 44h1v1H36zM39 44h1v1H39zM41 44h2v1H41zM45 44h1v1H45zM48 44h1v1H48zM51 44h4v1H51zM56 44h1v1H56zM58 44h1v1H58zM60,44 h1v1H60zM1 45h5v1H1zM8 45h1v1H8zM10 45h1v1H10zM12 45h4v1H12zM17 45h1v1H17zM22 45h1v1H22zM24 45h3v1H24zM29 45h1v1H29zM31 45h3v1H31zM36 45h1v1H36zM42 45h1v1H42zM45 45h1v1H45zM48 45h1v1H48zM51 45h1v1H51zM53 45h3v1H53zM57 45h1v1H57zM59 45h1v1H59zM2 46h1v1H2zM4 46h4v1H4zM9 46h1v1H9zM12 46h1v1H12zM15 46h1v1H15zM18 46h2v1H18zM21 46h1v1H21zM24 46h1v1H24zM27 46h2v1H27zM30 46h3v1H30zM34 46h1v1H34zM36 46h4v1H36zM41 46h1v1H41zM46 46h1v1H46zM48 46h8v1H48zM57 46h1v1H57zM60,46 h1v1H60zM5 47h1v1H5zM8 47h1v1H8zM11 47h3v1H11zM15 47h1v1H15zM17 47h2v1H17zM24 47h2v1H24zM27 47h1v1H27zM29 47h2v1H29zM33 47h1v1H33zM35 47h1v1H35zM38 47h3v1H38zM42 47h3v1H42zM57 47h1v1H57zM60,47 h1v1H60zM1 48h4v1H1zM6 48h2v1H6zM10 48h1v1H10zM12 48h2v1H12zM16 48h1v1H16zM18 48h4v1H18zM23 48h1v1H23zM27 48h2v1H27zM30 48h1v1H30zM33 48h1v1H33zM36 48h1v1H36zM38 48h1v1H38zM42 48h1v1H42zM47 48h3v1H47zM51 48h2v1H51zM54 48h3v1H54zM58 48h1v1H58zM60,48 h1v1H60zM0 49h1v1H0zM2 49h2v1H2zM7 49h4v1H7zM15 49h1v1H15zM17 49h1v1H17zM22 49h1v1H22zM24 49h3v1H24zM29 49h1v1H29zM33 49h1v1H33zM35 49h3v1H35zM39 49h1v1H39zM42 49h2v1H42zM47 49h1v1H47zM51 49h1v1H51zM53 49h2v1H53zM57 49h1v1H57zM59 49h1v1H59zM2 50h8v1H2zM12 50h4v1H12zM18 50h2v1H18zM21 50h1v1H21zM24 50h1v1H24zM27 50h1v1H27zM30 50h3v1H30zM34 50h1v1H34zM36 50h1v1H36zM38 50h1v1H38zM41 50h1v1H41zM45 50h3v1H45zM49 50h3v1H49zM54 50h1v1H54zM60,50 h1v1H60zM0 51h3v1H0zM4 51h1v1H4zM7 51h1v1H7zM9 51h1v1H9zM15 51h1v1H15zM17 51h2v1H17zM21 51h1v1H21zM24 51h1v1H24zM27 51h1v1H27zM30 51h1v1H30zM33 51h1v1H33zM35 51h1v1H35zM40 51h1v1H40zM42 51h4v1H42zM47 51h1v1H47zM52 51h2v1H52zM57 51h1v1H57zM59,51 h2v1H59zM0 52h4v1H0zM6 52h3v1H6zM10 52h1v1H10zM13 52h1v1H13zM16 52h1v1H16zM18 52h4v1H18zM23 52h1v1H23zM27 52h7v1H27zM36 52h2v1H36zM39 52h1v1H39zM42 52h1v1H42zM45 52h1v1H45zM48 52h1v1H48zM51 52h6v1H51zM58 52h1v1H58zM60,52 h1v1H60zM8 53h4v1H8zM13 53h3v1H13zM17 53h1v1H17zM22 53h1v1H22zM24 53h3v1H24zM28 53h1v1H28zM32 53h2v1H32zM36 53h1v1H36zM39 53h1v1H39zM42 53h2v1H42zM45 53h1v1H45zM47 53h2v1H47zM52 53h1v1H52zM56 53h4v1H56zM0 54h7v1H0zM8 54h2v1H8zM12 54h1v1H12zM18 54h1v1H18zM21 54h1v1H21zM24 54h1v1H24zM28 54h1v1H28zM30 54h1v1H30zM32 54h1v1H32zM34 54h1v1H34zM36 54h4v1H36zM41 54h1v1H41zM46 54h1v1H46zM48 54h5v1H48zM54 54h1v1H54zM56 54h3v1H56zM60,54 h1v1H60zM0 55h1v1H0zM6 55h1v1H6zM9 55h3v1H9zM14 55h2v1H14zM18 55h1v1H18zM24 55h1v1H24zM27 55h2v1H27zM32 55h2v1H32zM40 55h1v1H40zM42 55h1v1H42zM44 55h2v1H44zM47 55h1v1H47zM49 55h2v1H49zM52 55h1v1H52zM56 55h1v1H56zM59,55 h2v1H59zM0 56h1v1H0zM2 56h3v1H2zM6 56h1v1H6zM8 56h3v1H8zM12 56h1v1H12zM14 56h1v1H14zM16 56h1v1H16zM18 56h4v1H18zM23 56h1v1H23zM27 56h6v1H27zM34 56h3v1H34zM39 56h1v1H39zM41 56h3v1H41zM48 56h2v1H48zM52 56h7v1H52zM60,56 h1v1H60zM0 57h1v1H0zM2 57h3v1H2zM6 57h1v1H6zM8 57h2v1H8zM11 57h1v1H11zM13 57h1v1H13zM15 57h1v1H15zM17 57h1v1H17zM22 57h1v1H22zM24 57h4v1H24zM30 57h1v1H30zM35 57h2v1H35zM39 57h1v1H39zM41 57h3v1H41zM45 57h1v1H45zM47 57h2v1H47zM52 57h1v1H52zM54 57h4v1H54zM60,57 h1v1H60zM0 58h1v1H0zM2 58h3v1H2zM6 58h1v1H6zM8 58h1v1H8zM13 58h1v1H13zM15 58h1v1H15zM18 58h2v1H18zM21 58h1v1H21zM24 58h1v1H24zM27 58h1v1H27zM29 58h1v1H29zM33 58h2v1H33zM36 58h4v1H36zM41 58h1v1H41zM46 58h1v1H46zM48 58h1v1H48zM50 58h2v1H50zM53 58h2v1H53zM60,58 h1v1H60zM0 59h1v1H0zM6 59h1v1H6zM8 59h2v1H8zM11 59h1v1H11zM13 59h3v1H13zM18 59h1v1H18zM21 59h1v1H21zM24 59h2v1H24zM28 59h1v1H28zM30 59h4v1H30zM35 59h1v1H35zM40 59h1v1H40zM42 59h4v1H42zM47 59h1v1H47zM54 59h2v1H54zM57 59h1v1H57zM60,59 h1v1H60zM0 60h7v1H0zM8 60h2v1H8zM14 60h1v1H14zM16 60h1v1H16zM18 60h4v1H18zM23 60h1v1H23zM27 60h1v1H27zM30 60h1v1H30zM33 60h1v1H33zM36 60h2v1H36zM39 60h1v1H39zM42 60h1v1H42zM48 60h1v1H48zM51 60h1v1H51zM53 60h1v1H53zM58,60 h3v1H58z" shape-rendering="crispEdges"/></svg>